<svg width="26" height="41" viewBox="0 0 26 41" fill="none" xmlns="http://www.w3.org/2000/svg">
<path d="M14.818 0.0620003C14.8593 0.0206675 15.2107 0 15.872 0C16.8227 0 17.4013 0.227333 17.608 0.681999C17.6907 0.847333 17.732 6.79934 17.732 18.538V36.146H21.7H25.668V38.378V40.61H24.862L18.662 40.486C15.066 40.4447 11.4907 40.4447 7.936 40.486C3.80267 40.5687 1.75667 40.61 1.798 40.61H0.992V38.378V36.146H4.898H8.804V21.824V7.502L8.122 7.626C5.97267 8.16333 3.61667 8.432 1.054 8.432H0V6.2V3.968H1.054C5.68333 3.968 9.50667 3.162 12.524 1.55C13.516 1.09533 14.2807 0.599334 14.818 0.0620003Z" fill="white"/>
<path d="M14.818 0.0620003C14.8593 0.0206675 15.2107 0 15.872 0C16.8227 0 17.4013 0.227333 17.608 0.681999C17.6907 0.847333 17.732 6.79934 17.732 18.538V36.146H21.7H25.668V38.378V40.61H24.862L18.662 40.486C15.066 40.4447 11.4907 40.4447 7.936 40.486C3.80267 40.5687 1.75667 40.61 1.798 40.61H0.992V38.378V36.146H4.898H8.804V21.824V7.502L8.122 7.626C5.97267 8.16333 3.61667 8.432 1.054 8.432H0V6.2V3.968H1.054C5.68333 3.968 9.50667 3.162 12.524 1.55C13.516 1.09533 14.2807 0.599334 14.818 0.0620003Z" fill="url(#paint0_linear_67_448)"/>
<defs>
<linearGradient id="paint0_linear_67_448" x1="1.80095" y1="-18.3906" x2="34.3492" y2="-17.3021" gradientUnits="userSpaceOnUse">
<stop stop-color="#FE8603"/>
<stop offset="1" stop-color="#E32E7F"/>
</linearGradient>
</defs>
</svg>
