<svg width="29" height="41" viewBox="0 0 29 41" fill="none" xmlns="http://www.w3.org/2000/svg">
<path d="M11.78 0L15.934 0.0619984C19.4473 0.557999 22.2993 1.75667 24.49 3.658C27.1767 5.93133 28.52 8.866 28.52 12.462C28.52 15.19 27.28 17.732 24.8 20.088C23.9733 20.8733 22.2787 22.1547 19.716 23.932C17.98 25.0893 15.8927 26.6393 13.454 28.582L10.168 31.186L13.206 31.248C18.8687 31.248 21.9687 31.1447 22.506 30.938C22.8367 30.814 23.188 30.008 23.56 28.52L24.056 25.296C24.056 25.2547 24.8 25.234 26.288 25.234H28.52V25.482C28.4787 25.5647 28.148 28.024 27.528 32.86C26.9907 37.6133 26.6807 40.0933 26.598 40.3V40.548H13.268H0V38.688C0 37.4067 0.0206668 36.704 0.062 36.58C0.144667 36.4147 2.14933 34.3687 6.076 30.442C11.1187 25.2753 14.012 22.196 14.756 21.204C14.88 21.08 15.0247 20.894 15.19 20.646C16.3473 19.1993 17.1533 17.8147 17.608 16.492C18.104 15.1693 18.352 13.826 18.352 12.462C18.352 11.47 18.2073 10.478 17.918 9.486C16.802 6.55133 14.6113 4.87733 11.346 4.464C11.0567 4.42267 10.788 4.402 10.54 4.402C9.424 4.402 8.804 4.464 8.68 4.588L9.052 5.022C10.044 6.09667 10.5193 7.378 10.478 8.866C10.354 11.4287 9.07267 13.0613 6.634 13.764C6.30333 13.8467 5.84867 13.888 5.27 13.888C4.65 13.888 4.17467 13.8467 3.844 13.764C1.90133 13.1853 0.682 11.9867 0.186 10.168C0.103333 9.87867 0.062 9.362 0.062 8.618C0.062 7.91533 0.124 7.33667 0.248 6.882C0.578667 5.642 1.15733 4.60867 1.984 3.782C2.81067 2.914 3.86467 2.17 5.146 1.55C6.386 0.971335 7.77067 0.558001 9.3 0.309999C9.63067 0.227334 10.4573 0.124001 11.78 0Z" fill="white"/>
<path d="M11.78 0L15.934 0.0619984C19.4473 0.557999 22.2993 1.75667 24.49 3.658C27.1767 5.93133 28.52 8.866 28.52 12.462C28.52 15.19 27.28 17.732 24.8 20.088C23.9733 20.8733 22.2787 22.1547 19.716 23.932C17.98 25.0893 15.8927 26.6393 13.454 28.582L10.168 31.186L13.206 31.248C18.8687 31.248 21.9687 31.1447 22.506 30.938C22.8367 30.814 23.188 30.008 23.56 28.52L24.056 25.296C24.056 25.2547 24.8 25.234 26.288 25.234H28.52V25.482C28.4787 25.5647 28.148 28.024 27.528 32.86C26.9907 37.6133 26.6807 40.0933 26.598 40.3V40.548H13.268H0V38.688C0 37.4067 0.0206668 36.704 0.062 36.58C0.144667 36.4147 2.14933 34.3687 6.076 30.442C11.1187 25.2753 14.012 22.196 14.756 21.204C14.88 21.08 15.0247 20.894 15.19 20.646C16.3473 19.1993 17.1533 17.8147 17.608 16.492C18.104 15.1693 18.352 13.826 18.352 12.462C18.352 11.47 18.2073 10.478 17.918 9.486C16.802 6.55133 14.6113 4.87733 11.346 4.464C11.0567 4.42267 10.788 4.402 10.54 4.402C9.424 4.402 8.804 4.464 8.68 4.588L9.052 5.022C10.044 6.09667 10.5193 7.378 10.478 8.866C10.354 11.4287 9.07267 13.0613 6.634 13.764C6.30333 13.8467 5.84867 13.888 5.27 13.888C4.65 13.888 4.17467 13.8467 3.844 13.764C1.90133 13.1853 0.682 11.9867 0.186 10.168C0.103333 9.87867 0.062 9.362 0.062 8.618C0.062 7.91533 0.124 7.33667 0.248 6.882C0.578667 5.642 1.15733 4.60867 1.984 3.782C2.81067 2.914 3.86467 2.17 5.146 1.55C6.386 0.971335 7.77067 0.558001 9.3 0.309999C9.63067 0.227334 10.4573 0.124001 11.78 0Z" fill="url(#paint0_linear_67_450)"/>
<defs>
<linearGradient id="paint0_linear_67_450" x1="3.22673" y1="-18.4511" x2="35.775" y2="-17.3626" gradientUnits="userSpaceOnUse">
<stop stop-color="#FE8603"/>
<stop offset="1" stop-color="#E32E7F"/>
</linearGradient>
</defs>
</svg>
