<svg width="30" height="42" viewBox="0 0 30 42" fill="none" xmlns="http://www.w3.org/2000/svg">
<path d="M12.0762 0H15.6102C19.1649 0.248002 22.0996 1.19867 24.4142 2.852C25.9436 4.05067 26.9562 5.58 27.4522 7.44C27.5349 7.85333 27.5762 8.432 27.5762 9.176C27.5762 10.0027 27.5349 10.602 27.4522 10.974C26.7909 14.0327 24.8069 16.4713 21.5002 18.29L20.5082 18.848H20.4462C20.2396 18.972 20.1156 19.034 20.0742 19.034L20.4462 19.158L21.6242 19.53C24.4349 20.4807 26.4809 21.8447 27.7622 23.622C29.0849 25.358 29.7049 27.3007 29.6222 29.45C29.4156 32.7567 28.1136 35.4227 25.7162 37.448C23.1949 39.6387 19.7642 40.8787 15.4242 41.168C9.88556 41.54 5.60756 40.2173 2.59022 37.2C1.35022 35.96 0.523556 34.4513 0.110222 32.674C-0.0551111 31.5167 -0.0344444 30.4627 0.172222 29.512C0.461555 28.3133 1.08156 27.3627 2.03222 26.66C3.06556 25.916 4.22289 25.544 5.50422 25.544C6.78556 25.544 7.94289 25.916 8.97622 26.66C9.92689 27.3627 10.5469 28.3133 10.8362 29.512C10.9189 29.8013 10.9602 30.2973 10.9602 31C10.9602 31.744 10.9189 32.2813 10.8362 32.612C10.4642 33.852 9.74089 34.8647 8.66622 35.65L8.29422 35.898L8.79022 36.084C9.53422 36.4147 10.2369 36.6213 10.8982 36.704C12.4276 37.0347 13.7089 37.0967 14.7422 36.89C15.7342 36.6833 16.5402 36.2287 17.1602 35.526C17.9456 34.658 18.4002 33.294 18.5242 31.434V26.474C18.3589 23.9113 17.4702 22.2373 15.8582 21.452C15.1556 21.1213 14.1636 20.9353 12.8822 20.894C12.7169 20.894 12.4069 20.894 11.9522 20.894C10.3816 20.894 9.47222 20.8527 9.22422 20.77C8.97622 20.5633 8.85222 19.964 8.85222 18.972C8.85222 17.98 8.97622 17.422 9.22422 17.298C9.43089 17.174 10.0302 17.0913 11.0222 17.05C12.4276 16.9673 13.3576 16.8227 13.8122 16.616C15.7962 15.8307 17.0156 13.888 17.4702 10.788C17.6356 9.71333 17.6356 8.45267 17.4702 7.006C17.2636 5.518 16.4369 4.54667 14.9902 4.092C14.7422 4.00933 14.2462 3.968 13.5022 3.968C12.5102 3.968 11.6422 4.092 10.8982 4.34L9.28622 5.022L9.65822 5.27C10.8156 5.89 11.5802 6.882 11.9522 8.246C12.0349 8.53533 12.0762 9.03133 12.0762 9.734C12.0762 10.3953 12.0349 10.8913 11.9522 11.222C11.3322 13.2887 9.92689 14.446 7.73622 14.694C7.52956 14.7353 7.30222 14.756 7.05422 14.756C4.78089 14.756 3.21022 13.764 2.34222 11.78C2.25956 11.6147 2.19756 11.4287 2.15622 11.222C2.07356 10.8913 2.03222 10.354 2.03222 9.61C2.03222 8.866 2.07356 8.308 2.15622 7.936C2.36289 6.86133 2.79689 5.828 3.45822 4.836C5.02889 2.39733 7.57089 0.847333 11.0842 0.186001C11.4149 0.103333 11.7456 0.0413328 12.0762 0Z" fill="white"/>
<path d="M12.0762 0H15.6102C19.1649 0.248002 22.0996 1.19867 24.4142 2.852C25.9436 4.05067 26.9562 5.58 27.4522 7.44C27.5349 7.85333 27.5762 8.432 27.5762 9.176C27.5762 10.0027 27.5349 10.602 27.4522 10.974C26.7909 14.0327 24.8069 16.4713 21.5002 18.29L20.5082 18.848H20.4462C20.2396 18.972 20.1156 19.034 20.0742 19.034L20.4462 19.158L21.6242 19.53C24.4349 20.4807 26.4809 21.8447 27.7622 23.622C29.0849 25.358 29.7049 27.3007 29.6222 29.45C29.4156 32.7567 28.1136 35.4227 25.7162 37.448C23.1949 39.6387 19.7642 40.8787 15.4242 41.168C9.88556 41.54 5.60756 40.2173 2.59022 37.2C1.35022 35.96 0.523556 34.4513 0.110222 32.674C-0.0551111 31.5167 -0.0344444 30.4627 0.172222 29.512C0.461555 28.3133 1.08156 27.3627 2.03222 26.66C3.06556 25.916 4.22289 25.544 5.50422 25.544C6.78556 25.544 7.94289 25.916 8.97622 26.66C9.92689 27.3627 10.5469 28.3133 10.8362 29.512C10.9189 29.8013 10.9602 30.2973 10.9602 31C10.9602 31.744 10.9189 32.2813 10.8362 32.612C10.4642 33.852 9.74089 34.8647 8.66622 35.65L8.29422 35.898L8.79022 36.084C9.53422 36.4147 10.2369 36.6213 10.8982 36.704C12.4276 37.0347 13.7089 37.0967 14.7422 36.89C15.7342 36.6833 16.5402 36.2287 17.1602 35.526C17.9456 34.658 18.4002 33.294 18.5242 31.434V26.474C18.3589 23.9113 17.4702 22.2373 15.8582 21.452C15.1556 21.1213 14.1636 20.9353 12.8822 20.894C12.7169 20.894 12.4069 20.894 11.9522 20.894C10.3816 20.894 9.47222 20.8527 9.22422 20.77C8.97622 20.5633 8.85222 19.964 8.85222 18.972C8.85222 17.98 8.97622 17.422 9.22422 17.298C9.43089 17.174 10.0302 17.0913 11.0222 17.05C12.4276 16.9673 13.3576 16.8227 13.8122 16.616C15.7962 15.8307 17.0156 13.888 17.4702 10.788C17.6356 9.71333 17.6356 8.45267 17.4702 7.006C17.2636 5.518 16.4369 4.54667 14.9902 4.092C14.7422 4.00933 14.2462 3.968 13.5022 3.968C12.5102 3.968 11.6422 4.092 10.8982 4.34L9.28622 5.022L9.65822 5.27C10.8156 5.89 11.5802 6.882 11.9522 8.246C12.0349 8.53533 12.0762 9.03133 12.0762 9.734C12.0762 10.3953 12.0349 10.8913 11.9522 11.222C11.3322 13.2887 9.92689 14.446 7.73622 14.694C7.52956 14.7353 7.30222 14.756 7.05422 14.756C4.78089 14.756 3.21022 13.764 2.34222 11.78C2.25956 11.6147 2.19756 11.4287 2.15622 11.222C2.07356 10.8913 2.03222 10.354 2.03222 9.61C2.03222 8.866 2.07356 8.308 2.15622 7.936C2.36289 6.86133 2.79689 5.828 3.45822 4.836C5.02889 2.39733 7.57089 0.847333 11.0842 0.186001C11.4149 0.103333 11.7456 0.0413328 12.0762 0Z" fill="url(#paint0_linear_67_451)"/>
<defs>
<linearGradient id="paint0_linear_67_451" x1="3.77116" y1="-18.4511" x2="36.3194" y2="-17.3626" gradientUnits="userSpaceOnUse">
<stop stop-color="#FE8603"/>
<stop offset="1" stop-color="#E32E7F"/>
</linearGradient>
</defs>
</svg>
