<svg width="32" height="41" viewBox="0 0 32 41" fill="none" xmlns="http://www.w3.org/2000/svg">
<path d="M21.39 0.193749C21.8447 -0.0129171 23.0847 -0.0542501 25.11 0.0697508C25.4407 0.111084 25.6473 0.152417 25.73 0.193749C25.978 0.276417 26.164 0.44175 26.288 0.68975C26.3707 0.855083 26.412 5.23642 26.412 13.8338V26.7297H29.016H31.62V28.9617V31.1938H29.016H26.412V33.7358V36.2778H29.016H31.62V38.5098V40.7418H30.938C30.9793 40.7418 29.3467 40.7004 26.04 40.6178C23.188 40.5764 20.088 40.5764 16.74 40.6178L10.974 40.7418H10.168V38.5098V36.2778H13.64H17.112V33.7358V31.1938H8.556H0V28.9617V26.7297L10.292 13.7718C17.3187 5.00908 20.8527 0.607084 20.894 0.565751C21.0593 0.317749 21.2247 0.193749 21.39 0.193749ZM17.794 26.7297V18.7937V10.9197L11.47 18.7937L5.208 26.6677L11.47 26.7297H17.794Z" fill="white"/>
<path d="M21.39 0.193749C21.8447 -0.0129171 23.0847 -0.0542501 25.11 0.0697508C25.4407 0.111084 25.6473 0.152417 25.73 0.193749C25.978 0.276417 26.164 0.44175 26.288 0.68975C26.3707 0.855083 26.412 5.23642 26.412 13.8338V26.7297H29.016H31.62V28.9617V31.1938H29.016H26.412V33.7358V36.2778H29.016H31.62V38.5098V40.7418H30.938C30.9793 40.7418 29.3467 40.7004 26.04 40.6178C23.188 40.5764 20.088 40.5764 16.74 40.6178L10.974 40.7418H10.168V38.5098V36.2778H13.64H17.112V33.7358V31.1938H8.556H0V28.9617V26.7297L10.292 13.7718C17.3187 5.00908 20.8527 0.607084 20.894 0.565751C21.0593 0.317749 21.2247 0.193749 21.39 0.193749ZM17.794 26.7297V18.7937V10.9197L11.47 18.7937L5.208 26.6677L11.47 26.7297H17.794Z" fill="url(#paint0_linear_67_452)"/>
<defs>
<linearGradient id="paint0_linear_67_452" x1="4.77702" y1="-18.2578" x2="37.3253" y2="-17.1693" gradientUnits="userSpaceOnUse">
<stop stop-color="#FE8603"/>
<stop offset="1" stop-color="#E32E7F"/>
</linearGradient>
</defs>
</svg>
