<svg width="72" height="106" viewBox="0 0 72 106" fill="none" xmlns="http://www.w3.org/2000/svg">
<path fill-rule="evenodd" clip-rule="evenodd" d="M48.0101 9.87461L48.1369 9.99938C48.1369 9.99937 48.1188 9.98152 48.0881 9.95124C47.9025 9.76804 47.2558 9.12994 47.3712 9.2383C47.5327 9.39003 49.2725 10.9499 52.752 14.0695L52.7579 14.0748L52.7587 14.0755C59.2233 19.8714 62.7547 28.7662 61.0383 38.0841L56.9392 60.3363L57.3788 59.2205C57.3788 59.2205 67.7467 69.4378 70.3324 77.9337C73.3259 87.7701 68.6244 104.207 68.6244 104.207L48.23 91.745C44.9479 95.2133 40.3104 97.3353 35.2492 97.3353C30.8004 97.3353 26.679 95.6958 23.5177 92.9436L2.70502 105.661C2.70502 105.661 -1.99652 89.2242 0.997066 79.3879C3.34008 71.6891 12.0557 62.5834 13.6707 60.9423L9.46003 38.0841C7.70831 28.5748 11.4224 19.5062 18.1417 13.7223C22.0117 10.3911 23.9466 8.72552 24.1246 8.56432C24.2518 8.44911 23.5203 9.14779 23.3122 9.34663C23.2781 9.37917 23.2581 9.39832 23.2581 9.39834L23.4009 9.26233L31.3832 1.65623C33.7282 -0.578246 37.4234 -0.548085 39.7316 1.72437L48.0101 9.87461ZM47.2492 38.8524C47.2492 45.4798 41.8766 50.8524 35.2492 50.8524C28.6218 50.8524 23.2492 45.4798 23.2492 38.8524C23.2492 32.225 28.6218 26.8524 35.2492 26.8524C41.8766 26.8524 47.2492 32.225 47.2492 38.8524Z" fill="white"/>
<path fill-rule="evenodd" clip-rule="evenodd" d="M48.0101 9.87461L48.1369 9.99938C48.1369 9.99937 48.1188 9.98152 48.0881 9.95124C47.9025 9.76804 47.2558 9.12994 47.3712 9.2383C47.5327 9.39003 49.2725 10.9499 52.752 14.0695L52.7579 14.0748L52.7587 14.0755C59.2233 19.8714 62.7547 28.7662 61.0383 38.0841L56.9392 60.3363L57.3788 59.2205C57.3788 59.2205 67.7467 69.4378 70.3324 77.9337C73.3259 87.7701 68.6244 104.207 68.6244 104.207L48.23 91.745C44.9479 95.2133 40.3104 97.3353 35.2492 97.3353C30.8004 97.3353 26.679 95.6958 23.5177 92.9436L2.70502 105.661C2.70502 105.661 -1.99652 89.2242 0.997066 79.3879C3.34008 71.6891 12.0557 62.5834 13.6707 60.9423L9.46003 38.0841C7.70831 28.5748 11.4224 19.5062 18.1417 13.7223C22.0117 10.3911 23.9466 8.72552 24.1246 8.56432C24.2518 8.44911 23.5203 9.14779 23.3122 9.34663C23.2781 9.37917 23.2581 9.39832 23.2581 9.39834L23.4009 9.26233L31.3832 1.65623C33.7282 -0.578246 37.4234 -0.548085 39.7316 1.72437L48.0101 9.87461ZM47.2492 38.8524C47.2492 45.4798 41.8766 50.8524 35.2492 50.8524C28.6218 50.8524 23.2492 45.4798 23.2492 38.8524C23.2492 32.225 28.6218 26.8524 35.2492 26.8524C41.8766 26.8524 47.2492 32.225 47.2492 38.8524Z" fill="url(#paint0_linear_248_626)"/>
<defs>
<linearGradient id="paint0_linear_248_626" x1="13.3013" y1="3.49425e-05" x2="77.2201" y2="3.46296" gradientUnits="userSpaceOnUse">
<stop stop-color="#FE8603"/>
<stop offset="1" stop-color="#E32E7F"/>
</linearGradient>
</defs>
</svg>
