<svg width="143" height="105" viewBox="0 0 143 105" fill="none" xmlns="http://www.w3.org/2000/svg">
<path fill-rule="evenodd" clip-rule="evenodd" d="M25.4408 35.8186L23.8955 39.2956C70.8441 87.7723 97.4598 100.461 141.782 91.8666L140.8 85.9759C95.3422 107.613 31.6963 46.1575 25.4408 35.8186ZM141.788 85.4438L143 92.7123L141.984 92.9092C119.667 97.2365 101.698 96.2205 83.3865 87.9505C65.1313 79.7062 46.6246 64.2911 23.1326 40.0345L22.6338 39.5195L25.276 33.5746C30.6684 17.8531 37.0042 10.5143 52.5704 0C60.6837 16.4896 68.5676 21.6399 91.8093 19.6526C91.4705 18.292 91.1364 16.8768 90.804 15.3996H99.3003C99.7508 20.2199 100.267 24.4052 100.94 28.2959L93.5467 29.5896C92.3252 29.8033 91.5083 30.9668 91.7221 32.1882C91.9358 33.4097 93.0993 34.2266 94.3207 34.0129L101.798 32.7045C102.053 33.8751 102.326 35.0295 102.622 36.1784L97.7949 37.0231C96.5734 37.2369 95.7565 38.4004 95.9702 39.6218C96.184 40.8433 97.3474 41.6602 98.5689 41.4465L103.853 40.5219C104.202 41.6514 104.575 42.7886 104.976 43.9435L102.043 44.4567C100.822 44.6705 100.005 45.834 100.218 47.0554C100.432 48.2769 101.596 49.0938 102.817 48.8801L106.554 48.2262C107.417 50.4503 108.384 52.7749 109.47 55.262C109.619 55.4282 109.769 55.5932 109.921 55.7571C114.075 57.3604 118.649 57.7663 122.975 58.1503C130.959 58.8588 138.097 59.4924 140.189 67.4395C142.721 77.0629 141.872 84.7538 141.788 85.4438Z" fill="white"/>
<path fill-rule="evenodd" clip-rule="evenodd" d="M25.4408 35.8186L23.8955 39.2956C70.8441 87.7723 97.4598 100.461 141.782 91.8666L140.8 85.9759C95.3422 107.613 31.6963 46.1575 25.4408 35.8186ZM141.788 85.4438L143 92.7123L141.984 92.9092C119.667 97.2365 101.698 96.2205 83.3865 87.9505C65.1313 79.7062 46.6246 64.2911 23.1326 40.0345L22.6338 39.5195L25.276 33.5746C30.6684 17.8531 37.0042 10.5143 52.5704 0C60.6837 16.4896 68.5676 21.6399 91.8093 19.6526C91.4705 18.292 91.1364 16.8768 90.804 15.3996H99.3003C99.7508 20.2199 100.267 24.4052 100.94 28.2959L93.5467 29.5896C92.3252 29.8033 91.5083 30.9668 91.7221 32.1882C91.9358 33.4097 93.0993 34.2266 94.3207 34.0129L101.798 32.7045C102.053 33.8751 102.326 35.0295 102.622 36.1784L97.7949 37.0231C96.5734 37.2369 95.7565 38.4004 95.9702 39.6218C96.184 40.8433 97.3474 41.6602 98.5689 41.4465L103.853 40.5219C104.202 41.6514 104.575 42.7886 104.976 43.9435L102.043 44.4567C100.822 44.6705 100.005 45.834 100.218 47.0554C100.432 48.2769 101.596 49.0938 102.817 48.8801L106.554 48.2262C107.417 50.4503 108.384 52.7749 109.47 55.262C109.619 55.4282 109.769 55.5932 109.921 55.7571C114.075 57.3604 118.649 57.7663 122.975 58.1503C130.959 58.8588 138.097 59.4924 140.189 67.4395C142.721 77.0629 141.872 84.7538 141.788 85.4438Z" fill="url(#paint0_linear_248_651)"/>
<path fill-rule="evenodd" clip-rule="evenodd" d="M2.12408 91.8379C0.950983 91.8379 0 92.7889 0 93.962C0 95.1351 0.950982 96.0861 2.12408 96.0861H26.551C27.7241 96.0861 28.6751 95.1351 28.6751 93.962C28.6751 92.7889 27.7241 91.8379 26.551 91.8379H2.12408ZM31.8613 93.962C31.8613 92.7889 32.8123 91.8379 33.9854 91.8379H58.4123C59.5854 91.8379 60.5364 92.7889 60.5364 93.962C60.5364 95.1351 59.5854 96.0861 58.4123 96.0861H33.9854C32.8123 96.0861 31.8613 95.1351 31.8613 93.962ZM20.1788 102.458C20.1788 101.285 21.1298 100.334 22.3029 100.334H73.2808C74.4539 100.334 75.4049 101.285 75.4049 102.458C75.4049 103.631 74.4539 104.582 73.2808 104.582H22.3029C21.1298 104.582 20.1788 103.631 20.1788 102.458Z" fill="white"/>
<path fill-rule="evenodd" clip-rule="evenodd" d="M2.12408 91.8379C0.950983 91.8379 0 92.7889 0 93.962C0 95.1351 0.950982 96.0861 2.12408 96.0861H26.551C27.7241 96.0861 28.6751 95.1351 28.6751 93.962C28.6751 92.7889 27.7241 91.8379 26.551 91.8379H2.12408ZM31.8613 93.962C31.8613 92.7889 32.8123 91.8379 33.9854 91.8379H58.4123C59.5854 91.8379 60.5364 92.7889 60.5364 93.962C60.5364 95.1351 59.5854 96.0861 58.4123 96.0861H33.9854C32.8123 96.0861 31.8613 95.1351 31.8613 93.962ZM20.1788 102.458C20.1788 101.285 21.1298 100.334 22.3029 100.334H73.2808C74.4539 100.334 75.4049 101.285 75.4049 102.458C75.4049 103.631 74.4539 104.582 73.2808 104.582H22.3029C21.1298 104.582 20.1788 103.631 20.1788 102.458Z" fill="url(#paint1_linear_248_651)"/>
<defs>
<linearGradient id="paint0_linear_248_651" x1="46.9235" y1="1.99211e-05" x2="151.726" y2="10.9486" gradientUnits="userSpaceOnUse">
<stop stop-color="#FE8603"/>
<stop offset="1" stop-color="#E32E7F"/>
</linearGradient>
<linearGradient id="paint1_linear_248_651" x1="14.1613" y1="91.8379" x2="69.7092" y2="118.402" gradientUnits="userSpaceOnUse">
<stop stop-color="#FE8603"/>
<stop offset="1" stop-color="#E32E7F"/>
</linearGradient>
</defs>
</svg>
