<svg width="144" height="103" viewBox="0 0 144 103" fill="none" xmlns="http://www.w3.org/2000/svg">
<path fill-rule="evenodd" clip-rule="evenodd" d="M67.8744 10.9801C66.4825 9.87627 66.8076 7.67963 68.4595 7.0262L85.8045 0.165144C87.4564 -0.48829 89.1962 0.891554 88.9362 2.64886L86.2055 21.1006C85.9454 22.8579 83.8806 23.6747 82.4887 22.5708L76.9896 18.2095L66.2219 31.7861C64.6405 33.7801 61.7434 34.1177 59.7459 32.5407L52.3521 26.7035L30.1378 53.2523C29.3199 54.2298 27.8645 54.3591 26.887 53.5413C25.9096 52.7234 25.7802 51.268 26.5981 50.2906L48.8124 23.7417C50.4153 21.826 53.2514 21.5332 55.212 23.081L62.6058 28.9182L73.3735 15.3415L67.8744 10.9801ZM104.398 29.0567C102.551 27.2103 99.5418 27.2621 97.76 29.1712L91.9336 35.4138C91.1359 36.2684 90.6923 37.3939 90.6923 38.5629V88.6927H78.5599V57.3417C78.5599 56.1176 78.0737 54.9437 77.2081 54.0781L70.9193 47.7893C69.0728 45.9428 66.0634 45.9946 64.2816 47.9037L58.4552 54.1463C57.6576 55.0009 57.214 56.1264 57.214 57.2954V88.6927H45.6757V72.9198C45.6757 71.6957 45.1894 70.5218 44.3239 69.6563L38.035 63.3674C36.1885 61.5209 33.1791 61.5728 31.3974 63.4818L25.5709 69.7244C24.7733 70.579 24.3297 71.7045 24.3297 72.8735V88.6927H13.9452V22.924H20.9638C22.7403 22.924 23.8506 21.0009 22.9623 19.4625L13.636 3.30877C12.7478 1.77032 10.5272 1.77032 9.63897 3.30877L0.312613 19.4625C-0.575612 21.0009 0.534669 22.924 2.31112 22.924H9.3298V88.6927C9.3298 91.2417 11.3962 93.3081 13.9452 93.3081H26.5444C26.5752 93.3093 26.6062 93.3099 26.6374 93.3099C26.6685 93.3099 26.6995 93.3093 26.7303 93.3081H122.406V100.327C122.406 102.103 124.329 103.213 125.867 102.325L142.021 92.9989C143.56 92.1107 143.56 89.8901 142.021 89.0019L125.867 79.6756C124.329 78.7873 122.406 79.8976 122.406 81.6741V88.6927H112.023C112.033 88.604 112.038 88.5137 112.038 88.4221V38.6092C112.038 37.3851 111.552 36.2112 110.687 35.3456L104.398 29.0567ZM107.439 88.6927C107.428 88.604 107.423 88.5137 107.423 88.4221V38.6092L101.134 32.3203L95.3077 38.5629V88.6927H107.439ZM28.945 88.6927H41.0603V72.9198L34.7714 66.6309L28.945 72.8735V88.6927ZM61.8293 88.6927H73.9446V57.3417L67.6557 51.0528L61.8293 57.2954V88.6927Z" fill="white"/>
<path fill-rule="evenodd" clip-rule="evenodd" d="M67.8744 10.9801C66.4825 9.87627 66.8076 7.67963 68.4595 7.0262L85.8045 0.165144C87.4564 -0.48829 89.1962 0.891554 88.9362 2.64886L86.2055 21.1006C85.9454 22.8579 83.8806 23.6747 82.4887 22.5708L76.9896 18.2095L66.2219 31.7861C64.6405 33.7801 61.7434 34.1177 59.7459 32.5407L52.3521 26.7035L30.1378 53.2523C29.3199 54.2298 27.8645 54.3591 26.887 53.5413C25.9096 52.7234 25.7802 51.268 26.5981 50.2906L48.8124 23.7417C50.4153 21.826 53.2514 21.5332 55.212 23.081L62.6058 28.9182L73.3735 15.3415L67.8744 10.9801ZM104.398 29.0567C102.551 27.2103 99.5418 27.2621 97.76 29.1712L91.9336 35.4138C91.1359 36.2684 90.6923 37.3939 90.6923 38.5629V88.6927H78.5599V57.3417C78.5599 56.1176 78.0737 54.9437 77.2081 54.0781L70.9193 47.7893C69.0728 45.9428 66.0634 45.9946 64.2816 47.9037L58.4552 54.1463C57.6576 55.0009 57.214 56.1264 57.214 57.2954V88.6927H45.6757V72.9198C45.6757 71.6957 45.1894 70.5218 44.3239 69.6563L38.035 63.3674C36.1885 61.5209 33.1791 61.5728 31.3974 63.4818L25.5709 69.7244C24.7733 70.579 24.3297 71.7045 24.3297 72.8735V88.6927H13.9452V22.924H20.9638C22.7403 22.924 23.8506 21.0009 22.9623 19.4625L13.636 3.30877C12.7478 1.77032 10.5272 1.77032 9.63897 3.30877L0.312613 19.4625C-0.575612 21.0009 0.534669 22.924 2.31112 22.924H9.3298V88.6927C9.3298 91.2417 11.3962 93.3081 13.9452 93.3081H26.5444C26.5752 93.3093 26.6062 93.3099 26.6374 93.3099C26.6685 93.3099 26.6995 93.3093 26.7303 93.3081H122.406V100.327C122.406 102.103 124.329 103.213 125.867 102.325L142.021 92.9989C143.56 92.1107 143.56 89.8901 142.021 89.0019L125.867 79.6756C124.329 78.7873 122.406 79.8976 122.406 81.6741V88.6927H112.023C112.033 88.604 112.038 88.5137 112.038 88.4221V38.6092C112.038 37.3851 111.552 36.2112 110.687 35.3456L104.398 29.0567ZM107.439 88.6927C107.428 88.604 107.423 88.5137 107.423 88.4221V38.6092L101.134 32.3203L95.3077 38.5629V88.6927H107.439ZM28.945 88.6927H41.0603V72.9198L34.7714 66.6309L28.945 72.8735V88.6927ZM61.8293 88.6927H73.9446V57.3417L67.6557 51.0528L61.8293 57.2954V88.6927Z" fill="url(#paint0_linear_248_645)"/>
<defs>
<linearGradient id="paint0_linear_248_645" x1="26.8887" y1="3.34188e-05" x2="154.854" y2="14.4274" gradientUnits="userSpaceOnUse">
<stop stop-color="#FE8603"/>
<stop offset="1" stop-color="#E32E7F"/>
</linearGradient>
</defs>
</svg>
