<svg width="102" height="107" viewBox="0 0 102 107" fill="none" xmlns="http://www.w3.org/2000/svg">
<path fill-rule="evenodd" clip-rule="evenodd" d="M83 32C83 48.8326 70.0035 62.6296 53.4977 63.904C53.4988 63.9264 53.4995 63.9489 53.4998 63.9715L53.5 64V71H88C90.2091 71 92 72.7909 92 75V83C92 83.0555 91.9977 83.1105 91.9933 83.1648C97.672 84.1142 102 89.0517 102 95C102 101.627 96.6274 107 90 107C83.3726 107 78 101.627 78 95C78 89.0517 82.328 84.1142 88.0067 83.1648C88.0023 83.1105 88 83.0555 88 83V75H53.5V83C53.5 83.0555 53.4977 83.1105 53.4933 83.1648C59.172 84.1142 63.5 89.0517 63.5 95C63.5 101.627 58.1274 107 51.5 107C44.8726 107 39.5 101.627 39.5 95C39.5 89.0517 43.828 84.1142 49.5067 83.1648C49.5023 83.1105 49.5 83.0555 49.5 83V75H14V83C14 83.0555 13.9977 83.1105 13.9933 83.1648C19.672 84.1142 24 89.0517 24 95C24 101.627 18.6274 107 12 107C5.37258 107 0 101.627 0 95C0 89.0517 4.32797 84.1142 10.0067 83.1648C10.0023 83.1105 10 83.0555 10 83V75C10 72.7909 11.7909 71 14 71H49.5V64L49.5003 63.9655C32.5235 63.1823 19 49.1704 19 32C19 14.3269 33.3269 0 51 0C68.6731 0 83 14.3269 83 32ZM49.2369 49.4064V53H51.9272V49.4051C53.9723 49.2835 55.7549 48.8802 57.2749 48.1953C59.1341 47.3625 60.5503 46.2254 61.5236 44.784C62.5079 43.3426 63 41.693 63 39.8352C63 38.3617 62.6993 37.0965 62.0978 36.0395C61.5072 34.9824 60.7308 34.0962 59.7684 33.3809C58.806 32.6655 57.7616 32.0889 56.6352 31.6512C55.5087 31.2134 54.4097 30.8664 53.3379 30.6102L51.9272 30.252V19.9898C53.3126 20.1352 54.4992 20.5363 55.4869 21.193C56.7555 22.0258 57.4773 23.2003 57.6522 24.7164H62.5407C62.4969 22.9547 61.972 21.3958 60.9659 20.0398C59.9598 18.6732 58.5818 17.6001 56.832 16.8207C55.3831 16.1712 53.7482 15.7924 51.9272 15.6841V12H49.2369V15.7192C47.6056 15.8628 46.1073 16.2353 44.7421 16.8367C42.9486 17.6161 41.5269 18.7105 40.477 20.1199C39.4272 21.5293 38.9022 23.1789 38.9022 25.0688C38.9022 27.3536 39.6842 29.1901 41.248 30.5781C42.8228 31.9661 44.9554 33.0178 47.6457 33.7332L49.2369 34.1569V45.039C48.4263 44.955 47.6607 44.7899 46.9403 44.5438C45.8576 44.1594 44.9663 43.5775 44.2664 42.798C43.5774 42.0079 43.1837 41.0203 43.0853 39.8352H38C38.1094 41.8104 38.6835 43.5188 39.7224 44.9602C40.7614 46.3909 42.1995 47.496 44.0367 48.2754C45.5424 48.9142 47.2758 49.2912 49.2369 49.4064ZM51.9272 45.0297C52.8061 44.9319 53.6154 44.7379 54.355 44.4477C55.4814 43.9992 56.3672 43.38 57.0125 42.5898C57.6577 41.7891 57.9803 40.8548 57.9803 39.7871C57.9803 38.8155 57.696 38.0201 57.1273 37.4008C56.5696 36.7815 55.8095 36.269 54.8471 35.8633C53.9786 35.4929 53.0053 35.1626 51.9272 34.8723V45.0297ZM49.2369 29.559V20.0163C48.4581 20.1161 47.7528 20.3001 47.1207 20.5684C46.1146 20.9848 45.3327 21.5613 44.7749 22.298C44.2281 23.0241 43.9547 23.8516 43.9547 24.7805C43.9547 25.5599 44.1406 26.2326 44.5125 26.7984C44.8952 27.3643 45.3928 27.8395 46.0052 28.2238C46.6286 28.5975 47.2957 28.9125 48.0066 29.1688C48.4262 29.3137 48.8363 29.4438 49.2369 29.559Z" fill="white"/>
<path fill-rule="evenodd" clip-rule="evenodd" d="M83 32C83 48.8326 70.0035 62.6296 53.4977 63.904C53.4988 63.9264 53.4995 63.9489 53.4998 63.9715L53.5 64V71H88C90.2091 71 92 72.7909 92 75V83C92 83.0555 91.9977 83.1105 91.9933 83.1648C97.672 84.1142 102 89.0517 102 95C102 101.627 96.6274 107 90 107C83.3726 107 78 101.627 78 95C78 89.0517 82.328 84.1142 88.0067 83.1648C88.0023 83.1105 88 83.0555 88 83V75H53.5V83C53.5 83.0555 53.4977 83.1105 53.4933 83.1648C59.172 84.1142 63.5 89.0517 63.5 95C63.5 101.627 58.1274 107 51.5 107C44.8726 107 39.5 101.627 39.5 95C39.5 89.0517 43.828 84.1142 49.5067 83.1648C49.5023 83.1105 49.5 83.0555 49.5 83V75H14V83C14 83.0555 13.9977 83.1105 13.9933 83.1648C19.672 84.1142 24 89.0517 24 95C24 101.627 18.6274 107 12 107C5.37258 107 0 101.627 0 95C0 89.0517 4.32797 84.1142 10.0067 83.1648C10.0023 83.1105 10 83.0555 10 83V75C10 72.7909 11.7909 71 14 71H49.5V64L49.5003 63.9655C32.5235 63.1823 19 49.1704 19 32C19 14.3269 33.3269 0 51 0C68.6731 0 83 14.3269 83 32ZM49.2369 49.4064V53H51.9272V49.4051C53.9723 49.2835 55.7549 48.8802 57.2749 48.1953C59.1341 47.3625 60.5503 46.2254 61.5236 44.784C62.5079 43.3426 63 41.693 63 39.8352C63 38.3617 62.6993 37.0965 62.0978 36.0395C61.5072 34.9824 60.7308 34.0962 59.7684 33.3809C58.806 32.6655 57.7616 32.0889 56.6352 31.6512C55.5087 31.2134 54.4097 30.8664 53.3379 30.6102L51.9272 30.252V19.9898C53.3126 20.1352 54.4992 20.5363 55.4869 21.193C56.7555 22.0258 57.4773 23.2003 57.6522 24.7164H62.5407C62.4969 22.9547 61.972 21.3958 60.9659 20.0398C59.9598 18.6732 58.5818 17.6001 56.832 16.8207C55.3831 16.1712 53.7482 15.7924 51.9272 15.6841V12H49.2369V15.7192C47.6056 15.8628 46.1073 16.2353 44.7421 16.8367C42.9486 17.6161 41.5269 18.7105 40.477 20.1199C39.4272 21.5293 38.9022 23.1789 38.9022 25.0688C38.9022 27.3536 39.6842 29.1901 41.248 30.5781C42.8228 31.9661 44.9554 33.0178 47.6457 33.7332L49.2369 34.1569V45.039C48.4263 44.955 47.6607 44.7899 46.9403 44.5438C45.8576 44.1594 44.9663 43.5775 44.2664 42.798C43.5774 42.0079 43.1837 41.0203 43.0853 39.8352H38C38.1094 41.8104 38.6835 43.5188 39.7224 44.9602C40.7614 46.3909 42.1995 47.496 44.0367 48.2754C45.5424 48.9142 47.2758 49.2912 49.2369 49.4064ZM51.9272 45.0297C52.8061 44.9319 53.6154 44.7379 54.355 44.4477C55.4814 43.9992 56.3672 43.38 57.0125 42.5898C57.6577 41.7891 57.9803 40.8548 57.9803 39.7871C57.9803 38.8155 57.696 38.0201 57.1273 37.4008C56.5696 36.7815 55.8095 36.269 54.8471 35.8633C53.9786 35.4929 53.0053 35.1626 51.9272 34.8723V45.0297ZM49.2369 29.559V20.0163C48.4581 20.1161 47.7528 20.3001 47.1207 20.5684C46.1146 20.9848 45.3327 21.5613 44.7749 22.298C44.2281 23.0241 43.9547 23.8516 43.9547 24.7805C43.9547 25.5599 44.1406 26.2326 44.5125 26.7984C44.8952 27.3643 45.3928 27.8395 46.0052 28.2238C46.6286 28.5975 47.2957 28.9125 48.0066 29.1688C48.4262 29.3137 48.8363 29.4438 49.2369 29.559Z" fill="url(#paint0_linear_248_634)"/>
<defs>
<linearGradient id="paint0_linear_248_634" x1="19.1559" y1="3.48392e-05" x2="110.934" y2="7.07123" gradientUnits="userSpaceOnUse">
<stop stop-color="#FE8603"/>
<stop offset="1" stop-color="#E32E7F"/>
</linearGradient>
</defs>
</svg>
