<svg width="32" height="19" viewBox="0 0 32 19" fill="none" xmlns="http://www.w3.org/2000/svg">
<path fill-rule="evenodd" clip-rule="evenodd" d="M15.999 18.002C16.799 18.002 17.555 17.686 18.119 17.116L31.415 3.45C32.195 2.66 32.195 1.384 31.415 0.594C30.635 -0.196 29.367 -0.196 28.587 0.594L15.999 13.546L3.413 0.594C2.633 -0.198 1.367 -0.198 0.585 0.594C-0.195 1.384 -0.195 2.66 0.585 3.45L13.877 17.116C14.443 17.686 15.193 18.002 15.997 18.002H15.999Z" fill="white"/>
<path fill-rule="evenodd" clip-rule="evenodd" d="M15.999 18.002C16.799 18.002 17.555 17.686 18.119 17.116L31.415 3.45C32.195 2.66 32.195 1.384 31.415 0.594C30.635 -0.196 29.367 -0.196 28.587 0.594L15.999 13.546L3.413 0.594C2.633 -0.198 1.367 -0.198 0.585 0.594C-0.195 1.384 -0.195 2.66 0.585 3.45L13.877 17.116C14.443 17.686 15.193 18.002 15.997 18.002H15.999Z" fill="url(#paint0_linear_228_626)"/>
<defs>
<linearGradient id="paint0_linear_228_626" x1="6.0097" y1="5.86144e-06" x2="34.3881" y2="4.07712" gradientUnits="userSpaceOnUse">
<stop stop-color="#FE8603"/>
<stop offset="1" stop-color="#E32E7F"/>
</linearGradient>
</defs>
</svg>
