<svg width="1356" height="778" viewBox="0 0 1356 778" fill="none" xmlns="http://www.w3.org/2000/svg">
<path fill-rule="evenodd" clip-rule="evenodd" d="M399.432 390.299C405.297 391.415 429.317 397.741 452.811 404.359C476.302 410.974 497.964 415.957 500.947 415.429C503.928 414.901 508.374 410.228 510.825 405.045C514.043 398.242 518.901 394.147 528.293 390.315C535.449 387.395 542.341 385.738 543.612 386.633C544.88 387.525 545.448 393.678 544.872 400.302C543.871 411.844 544.542 413.138 560.979 431.434C573.055 444.875 577.997 452.517 577.69 457.267C577.337 462.758 580.048 465.298 592.286 470.936C600.554 474.744 611.135 480.108 615.805 482.851L624.291 487.84L614.42 502.151L604.551 516.46L580.999 516.135C566.613 515.94 555.877 517.103 553.409 519.126C550.83 521.241 532.73 522.04 503.331 521.335C478.009 520.727 455.77 521.148 453.91 522.269C451.128 523.95 441.295 563.26 440.499 575.889C440.376 577.826 454.179 590.01 471.169 602.965L502.059 626.524L502.932 649.748C503.674 669.401 502.807 674.037 497.308 679.914C493.732 683.732 489.484 686.329 487.867 685.681C486.251 685.036 480.303 676.086 474.65 665.793L464.369 647.075L443.15 644.762C426.418 642.94 414.93 638.91 388.814 625.7L355.699 608.948L353.302 595.657C351.981 588.347 350.219 584.002 349.383 585.999C348.548 588 328.013 600.176 303.755 613.056C260.844 635.838 259.506 636.346 254.489 631.709C249.434 627.042 249.38 627.055 251.882 632.404C253.288 635.405 257.612 650.597 261.49 666.164C265.371 681.73 270.026 696.976 271.835 700.042C273.988 703.686 281.56 706.757 293.684 708.91C311.961 712.152 325.067 720.733 322.324 727.664C321.509 729.729 304.919 733.831 278.379 738.53L235.745 746.079L190.524 698.688C157.786 664.381 145.655 653.287 146.578 658.502C147.522 663.834 141.446 674.869 123.184 700.995C103.722 728.839 98.8117 737.959 99.9197 744.217C101.182 751.346 102.318 751.972 111.154 750.408C120.261 748.795 131.235 754.778 132.524 762.059C132.741 763.282 121.564 766.295 107.688 768.752L82.4586 773.219L65.2581 755.733C53.8861 744.173 48.3964 736.484 49.0566 733.045C49.6072 730.185 55.9788 712.372 63.213 693.461L76.368 659.08L74.1894 617.34C72.4886 584.768 73.1019 572.018 76.9836 559.3C79.7221 550.337 81.6279 541.128 81.2221 538.836C80.8162 536.544 101.412 512.905 126.99 486.308L173.495 437.946L252.896 423.887C323.524 411.381 334.461 408.792 351.887 400.449C374.515 389.616 384.567 387.47 399.432 390.299ZM388.31 630.621C402.783 637.926 415.613 645.959 416.821 648.475C418.029 650.989 422.169 662.133 426.019 673.233C432.309 691.363 433.677 693.302 439.458 692.278C446.208 691.083 456.767 697.488 457.816 703.413C458.26 705.92 451.592 707.855 433.699 710.405L408.968 713.93L387.213 688.231C365.858 663.001 365.385 662.124 361.394 640.348C359.16 628.146 358.382 617.979 359.664 617.753C360.948 617.525 373.837 623.316 388.31 630.621Z" fill="#100F29"/>
<path fill-rule="evenodd" clip-rule="evenodd" d="M1307.57 283.47C1284.43 293.991 1265.08 303.598 1264.57 304.822C1264.06 306.046 1267.55 318.644 1272.33 332.815C1278.77 351.917 1280.45 363.798 1278.82 378.741L1276.61 398.895L1262.88 402.382C1249.28 405.834 1248.97 405.745 1230.93 393.443C1218.7 385.109 1205.52 371.741 1190.86 352.809C1178.45 336.775 1144.84 301.623 1112.99 271.359C1082.18 242.078 1029.58 190.5 996.098 156.742L935.225 95.3605L841.503 125.759C735.015 160.3 753.847 148.227 691.154 222.138C665.3 252.62 659.571 257.662 638.646 268.364C598.544 288.873 599.645 288.089 612.413 286.968C618.446 286.436 633.653 284.029 646.207 281.612C658.76 279.199 669.358 278.042 669.763 279.041C670.163 280.042 658.704 286.575 644.297 293.56C602.296 313.924 602.905 313.287 625.756 312.981C636.825 312.834 653.919 312.181 663.738 311.533L681.595 310.353L690.16 323.333C697.413 334.325 700.903 336.908 712.979 340.209C724.211 343.278 730.707 347.568 743.596 360.417L759.961 376.726L768.35 372.284C772.963 369.842 778.387 363.97 780.404 359.239C783.225 352.624 785.444 351.223 790.027 353.177C797.774 356.48 799.228 352.318 798.469 329.052C797.612 302.73 775.619 245.882 763.575 238.85C755.953 234.404 756.421 234.336 767.024 238.371C777.922 242.518 780.783 246.025 792.741 269.896C805.199 294.765 807.505 297.479 823.818 306.546L841.439 316.336L844.028 304.628C847.173 290.402 847.556 289.38 857.283 269.255L865.04 253.21L859.341 277.17C856.207 290.348 852.93 306.369 852.061 312.772C850.678 322.939 848.066 326.466 831.424 340.648C812.664 356.639 812.315 357.177 808.663 375.768C806.624 386.154 805.945 396.477 807.151 398.708C808.359 400.941 824.179 415.441 842.308 430.93L875.272 459.094L889.822 449.866C898.401 444.428 906.702 441.63 910.036 443.051C915.482 445.373 941.511 433.379 939.872 429.302C939.434 428.207 933.003 423.681 925.589 419.243C912.152 411.202 912.038 411.206 893.078 420.321L874.051 429.467L865.404 408.187L856.757 386.907L889.882 379.918C910.548 375.559 925.924 370.205 930.763 365.681L938.516 358.431L935.463 366.26L932.413 374.09L972.247 393.379C994.156 403.988 1022.78 417.23 1035.85 422.803L1059.62 432.937L1069.2 406.234L1078.78 379.529L1077.77 396.695C1077.22 406.136 1074.45 419.592 1071.61 426.6C1066.73 438.645 1067.19 440.752 1080.07 465.321C1091.88 487.847 1097.03 494.004 1118.73 511.552C1148.16 535.346 1157.09 549.352 1158.74 574.288C1159.79 590.078 1159.11 592.944 1153.72 595.68C1150.29 597.417 1143.89 603.242 1139.5 608.624L1131.51 618.411L1150.44 626.483L1169.37 634.556L1178.19 616.324C1191.32 589.194 1196.2 528.08 1187.25 502.913C1181.09 485.601 1181.18 483.869 1189.03 465.451C1194.25 453.211 1197.44 439.729 1197.75 428.626C1198.01 418.992 1199.25 411.429 1200.51 411.824C1201.76 412.218 1212.28 416.796 1223.87 422.002L1244.95 431.465L1269.35 422.627L1293.74 413.79L1295.89 385.346C1297.52 363.785 1296.24 351.509 1290.58 334.614L1283.11 312.325L1301.41 307.85C1311.48 305.389 1320.2 303.274 1320.8 303.15C1322.87 302.718 1350.81 267.262 1350.23 265.807C1349.9 265.003 1330.71 272.951 1307.57 283.47Z" fill="#100F29"/>
</svg>
