<svg width="143" height="114" viewBox="0 0 143 114" fill="none" xmlns="http://www.w3.org/2000/svg">
<path fill-rule="evenodd" clip-rule="evenodd" d="M17.4761 87.3828C17.3537 87.0693 4.92864 55.1642 14.5643 50.1719V14.5645H17.4772V49.5182C17.5454 49.5179 17.6516 49.5182 17.6516 49.5182C19.8756 21.8003 43.0742 0 71.3645 0C99.6548 0 122.853 21.8003 125.077 49.5182C125.077 49.5182 125.184 49.5179 125.252 49.5182H125.252V14.5645H128.165V50.1721C137.8 55.1648 125.375 87.0693 125.253 87.3828H142.729C142.729 95.5261 142.729 99.5977 141.399 102.809C139.625 107.092 136.223 110.494 131.94 112.268C128.728 113.598 124.657 113.598 116.514 113.598H26.2155C18.0723 113.598 14.0006 113.598 10.7889 112.268C6.5065 110.494 3.10417 107.092 1.33036 102.809C0 99.5977 0 95.5261 0 87.3828H17.4761ZM59.5857 46.5998L59.5862 46.6003C60.2082 47.1471 60.8238 47.6884 61.4348 48.2135C64.4933 50.8425 68.4717 52.4314 72.8212 52.4314C77.1707 52.4314 81.1492 50.8425 84.2077 48.2135C84.8173 47.6895 85.4317 47.1494 86.0522 46.6038L86.0543 46.602L86.0546 46.6017L86.0563 46.6003L86.0568 46.5998C90.8385 42.3958 95.9895 37.8672 102.183 37.8672C110.098 37.8672 116.514 44.2832 116.514 52.1978V58.2571C116.514 69.5181 107.385 78.6469 96.1239 78.6469H49.5185C38.2575 78.6469 29.1287 69.5181 29.1287 58.257V52.1977C29.1287 44.2832 35.5447 37.8672 43.4592 37.8672C49.6529 37.8672 54.8039 42.3958 59.5857 46.5998ZM68.4566 23.1613C68.4924 23.0397 68.5666 22.933 68.668 22.8571C68.7695 22.7811 68.8929 22.7402 69.0197 22.7402H73.7116C73.8045 22.7403 73.896 22.7624 73.9787 22.8048C74.0613 22.8472 74.1327 22.9086 74.187 22.9839C74.2413 23.0593 74.2769 23.1465 74.2909 23.2383C74.3049 23.3301 74.2969 23.4239 74.2676 23.5121L72.1797 29.7781H76.6441C76.7539 29.7781 76.8615 29.8088 76.9547 29.8669C77.0479 29.925 77.123 30.0081 77.1712 30.1068C77.2195 30.2054 77.2391 30.3157 77.2279 30.4249C77.2166 30.5342 77.1748 30.638 77.1074 30.7247L68.8965 41.2816C68.8124 41.3903 68.6928 41.466 68.5586 41.4954C68.4243 41.5249 68.284 41.5063 68.1621 41.4429C68.0402 41.3795 67.9444 41.2753 67.8915 41.1485C67.8385 41.0217 67.8318 40.8803 67.8725 40.7491L69.985 33.8836H66.0872C65.996 33.8836 65.9061 33.8624 65.8245 33.8216C65.743 33.7809 65.6721 33.7216 65.6174 33.6486C65.5627 33.5756 65.5259 33.4909 65.5097 33.4012C65.4935 33.3115 65.4985 33.2192 65.5242 33.1317L68.4566 23.1613ZM55.344 58.2561C55.344 63.0822 51.4316 66.9946 46.6055 66.9946C41.7793 66.9946 37.8669 63.0822 37.8669 58.2561C37.8669 53.4299 41.7793 49.5176 46.6055 49.5176C51.4316 49.5176 55.344 53.4299 55.344 58.2561ZM99.0367 66.9946C103.863 66.9946 107.775 63.0822 107.775 58.2561C107.775 53.4299 103.863 49.5176 99.0367 49.5176C94.2106 49.5176 90.2982 53.4299 90.2982 58.2561C90.2982 63.0822 94.2106 66.9946 99.0367 66.9946Z" fill="#E7E7E7"/>
<path fill-rule="evenodd" clip-rule="evenodd" d="M17.4761 87.3828C17.3537 87.0693 4.92864 55.1642 14.5643 50.1719V14.5645H17.4772V49.5182C17.5454 49.5179 17.6516 49.5182 17.6516 49.5182C19.8756 21.8003 43.0742 0 71.3645 0C99.6548 0 122.853 21.8003 125.077 49.5182C125.077 49.5182 125.184 49.5179 125.252 49.5182H125.252V14.5645H128.165V50.1721C137.8 55.1648 125.375 87.0693 125.253 87.3828H142.729C142.729 95.5261 142.729 99.5977 141.399 102.809C139.625 107.092 136.223 110.494 131.94 112.268C128.728 113.598 124.657 113.598 116.514 113.598H26.2155C18.0723 113.598 14.0006 113.598 10.7889 112.268C6.5065 110.494 3.10417 107.092 1.33036 102.809C0 99.5977 0 95.5261 0 87.3828H17.4761ZM59.5857 46.5998L59.5862 46.6003C60.2082 47.1471 60.8238 47.6884 61.4348 48.2135C64.4933 50.8425 68.4717 52.4314 72.8212 52.4314C77.1707 52.4314 81.1492 50.8425 84.2077 48.2135C84.8173 47.6895 85.4317 47.1494 86.0522 46.6038L86.0543 46.602L86.0546 46.6017L86.0563 46.6003L86.0568 46.5998C90.8385 42.3958 95.9895 37.8672 102.183 37.8672C110.098 37.8672 116.514 44.2832 116.514 52.1978V58.2571C116.514 69.5181 107.385 78.6469 96.1239 78.6469H49.5185C38.2575 78.6469 29.1287 69.5181 29.1287 58.257V52.1977C29.1287 44.2832 35.5447 37.8672 43.4592 37.8672C49.6529 37.8672 54.8039 42.3958 59.5857 46.5998ZM68.4566 23.1613C68.4924 23.0397 68.5666 22.933 68.668 22.8571C68.7695 22.7811 68.8929 22.7402 69.0197 22.7402H73.7116C73.8045 22.7403 73.896 22.7624 73.9787 22.8048C74.0613 22.8472 74.1327 22.9086 74.187 22.9839C74.2413 23.0593 74.2769 23.1465 74.2909 23.2383C74.3049 23.3301 74.2969 23.4239 74.2676 23.5121L72.1797 29.7781H76.6441C76.7539 29.7781 76.8615 29.8088 76.9547 29.8669C77.0479 29.925 77.123 30.0081 77.1712 30.1068C77.2195 30.2054 77.2391 30.3157 77.2279 30.4249C77.2166 30.5342 77.1748 30.638 77.1074 30.7247L68.8965 41.2816C68.8124 41.3903 68.6928 41.466 68.5586 41.4954C68.4243 41.5249 68.284 41.5063 68.1621 41.4429C68.0402 41.3795 67.9444 41.2753 67.8915 41.1485C67.8385 41.0217 67.8318 40.8803 67.8725 40.7491L69.985 33.8836H66.0872C65.996 33.8836 65.9061 33.8624 65.8245 33.8216C65.743 33.7809 65.6721 33.7216 65.6174 33.6486C65.5627 33.5756 65.5259 33.4909 65.5097 33.4012C65.4935 33.3115 65.4985 33.2192 65.5242 33.1317L68.4566 23.1613ZM55.344 58.2561C55.344 63.0822 51.4316 66.9946 46.6055 66.9946C41.7793 66.9946 37.8669 63.0822 37.8669 58.2561C37.8669 53.4299 41.7793 49.5176 46.6055 49.5176C51.4316 49.5176 55.344 53.4299 55.344 58.2561ZM99.0367 66.9946C103.863 66.9946 107.775 63.0822 107.775 58.2561C107.775 53.4299 103.863 49.5176 99.0367 49.5176C94.2106 49.5176 90.2982 53.4299 90.2982 58.2561C90.2982 63.0822 94.2106 66.9946 99.0367 66.9946Z" fill="url(#paint0_linear_96_449)"/>
<defs>
<linearGradient id="paint0_linear_96_449" x1="26.805" y1="3.69876e-05" x2="154.675" y2="12.9851" gradientUnits="userSpaceOnUse">
<stop stop-color="#FE8603"/>
<stop offset="1" stop-color="#E32E7F"/>
</linearGradient>
</defs>
</svg>
