<svg width="118" height="114" viewBox="0 0 118 114" fill="none" xmlns="http://www.w3.org/2000/svg">
<path fill-rule="evenodd" clip-rule="evenodd" d="M58.7501 9.57612C49.7026 9.57612 41.1858 11.8116 33.7393 15.7518L9.81766 2.61516C7.74822 1.47871 5.23776 3.06746 5.37898 5.42418L7.88946 47.3201C6.57644 51.8563 5.87351 56.6454 5.87351 61.5959C5.87351 71.1857 8.51116 80.1694 13.1117 87.8832H4C4 102.243 15.6406 113.883 30 113.883H88C102.359 113.883 114 102.243 114 87.8832H104.389C108.989 80.1694 111.627 71.1857 111.627 61.5959C111.627 56.7158 110.944 51.9925 109.666 47.5137L112.188 5.42418C112.33 3.06746 109.819 1.47871 107.75 2.61516L83.7951 15.77C76.3405 11.8185 67.8115 9.57612 58.7501 9.57612ZM32.062 45.4698C32.5342 44.3656 33.6195 43.6493 34.8204 43.6493H83.2117C84.4127 43.6493 85.498 44.3656 85.9701 45.4698L90.233 55.4395C91.0794 57.4189 89.6273 59.619 87.4746 59.619H30.5575C28.4049 59.619 26.9528 57.4189 27.7991 55.4395L32.062 45.4698ZM46.843 74.524C46.0338 74.524 45.3043 74.0365 44.9949 73.2888L43.1258 68.7716C42.5809 67.4548 43.5487 66.0069 44.9738 66.0069H73.0584C74.4834 66.0069 75.4513 67.4548 74.9064 68.7716L73.0372 73.2887C72.7278 74.0365 71.9984 74.524 71.1892 74.524H46.843Z" fill="#E7E7E7"/>
<path fill-rule="evenodd" clip-rule="evenodd" d="M58.7501 9.57612C49.7026 9.57612 41.1858 11.8116 33.7393 15.7518L9.81766 2.61516C7.74822 1.47871 5.23776 3.06746 5.37898 5.42418L7.88946 47.3201C6.57644 51.8563 5.87351 56.6454 5.87351 61.5959C5.87351 71.1857 8.51116 80.1694 13.1117 87.8832H4C4 102.243 15.6406 113.883 30 113.883H88C102.359 113.883 114 102.243 114 87.8832H104.389C108.989 80.1694 111.627 71.1857 111.627 61.5959C111.627 56.7158 110.944 51.9925 109.666 47.5137L112.188 5.42418C112.33 3.06746 109.819 1.47871 107.75 2.61516L83.7951 15.77C76.3405 11.8185 67.8115 9.57612 58.7501 9.57612ZM32.062 45.4698C32.5342 44.3656 33.6195 43.6493 34.8204 43.6493H83.2117C84.4127 43.6493 85.498 44.3656 85.9701 45.4698L90.233 55.4395C91.0794 57.4189 89.6273 59.619 87.4746 59.619H30.5575C28.4049 59.619 26.9528 57.4189 27.7991 55.4395L32.062 45.4698ZM46.843 74.524C46.0338 74.524 45.3043 74.0365 44.9949 73.2888L43.1258 68.7716C42.5809 67.4548 43.5487 66.0069 44.9738 66.0069H73.0584C74.4834 66.0069 75.4513 67.4548 74.9064 68.7716L73.0372 73.2887C72.7278 74.0365 71.9984 74.524 71.1892 74.524H46.843Z" fill="url(#paint0_linear_114_474)"/>
<defs>
<linearGradient id="paint0_linear_114_474" x1="24.4041" y1="3.31148" x2="124.027" y2="11.379" gradientUnits="userSpaceOnUse">
<stop stop-color="#FE8603"/>
<stop offset="1" stop-color="#E32E7F"/>
</linearGradient>
</defs>
</svg>
