<svg width="108" height="113" viewBox="0 0 108 113" fill="none" xmlns="http://www.w3.org/2000/svg">
<path fill-rule="evenodd" clip-rule="evenodd" d="M107.954 56.5C107.954 72.6593 106.373 85.7589 104.423 85.7589C103.727 85.7589 103.078 84.091 102.532 81.2113C100.009 86.6325 96.6815 91.5682 92.7126 95.8482H101.901C101.901 105.321 94.2217 113 84.749 113H23.2044C13.7317 113 6.05258 105.321 6.05258 95.8482H15.2409C11.2719 91.5682 7.94479 86.6325 5.42188 81.2113C4.87507 84.091 4.22618 85.7589 3.53027 85.7589C1.58002 85.7589 -0.000976562 72.6593 -0.000976562 56.5C-0.000976562 40.3407 1.58002 27.2411 3.53027 27.2411C4.22618 27.2411 4.87507 28.909 5.42188 31.7887C14.1803 12.9685 32.6317 0 53.9767 0C75.3218 0 93.7731 12.9685 102.532 31.7887C103.078 28.909 103.727 27.2411 104.423 27.2411C106.373 27.2411 107.954 40.3407 107.954 56.5ZM13.1151 43.1592C13.1151 42.3738 13.5708 41.6597 14.2832 41.329L25.5084 36.1173C26.4799 35.6662 27.6345 36.0528 28.1386 36.9979L30.9266 42.2254C31.152 42.6481 31.5205 42.9768 31.9661 43.1527L32.5538 43.3847H76.4086L76.9962 43.1527C77.4418 42.9768 77.8103 42.6481 78.0358 42.2254L80.8238 36.9979C81.3278 36.0528 82.4825 35.6662 83.454 36.1173L94.6791 41.329C95.3915 41.6597 95.8472 42.3738 95.8472 43.1592V68.1058C95.8472 70.1266 94.3472 72.8384 92.3429 73.096C63.3471 76.8227 45.6273 76.7553 16.6295 73.0891C14.6208 72.8352 13.1151 70.1215 13.1151 68.0968V43.1592ZM36.8017 57.2451C36.8017 62.1143 32.8544 66.0616 27.9852 66.0616C23.116 66.0616 19.1687 62.1143 19.1687 57.2451C19.1687 52.3759 23.116 48.4286 27.9852 48.4286C32.8544 48.4286 36.8017 52.3759 36.8017 57.2451ZM80.4495 66.0616C85.3187 66.0616 89.266 62.1143 89.266 57.2451C89.266 52.3759 85.3187 48.4286 80.4495 48.4286C75.5803 48.4286 71.633 52.3759 71.633 57.2451C71.633 62.1143 75.5803 66.0616 80.4495 66.0616ZM51.28 20.8571C51.1785 20.933 51.1043 21.0397 51.0686 21.1613L48.1361 31.1317C48.1104 31.2192 48.1054 31.3115 48.1216 31.4012C48.1378 31.4909 48.1747 31.5757 48.2293 31.6486C48.284 31.7216 48.3549 31.7809 48.4365 31.8216C48.518 31.8624 48.608 31.8836 48.6991 31.8836H52.597L50.4844 38.7491C50.4438 38.8803 50.4505 39.0217 50.5034 39.1485C50.5564 39.2753 50.6521 39.3795 50.7741 39.4429C50.896 39.5063 51.0363 39.5249 51.1705 39.4954C51.3047 39.466 51.4243 39.3903 51.5084 39.2816L59.7193 28.7247C59.7868 28.638 59.8285 28.5342 59.8398 28.4249C59.8511 28.3157 59.8315 28.2054 59.7832 28.1068C59.7349 28.0081 59.6599 27.925 59.5667 27.8669C59.4735 27.8088 59.3658 27.7781 59.256 27.7781H54.7916L56.8795 21.5121C56.9089 21.4239 56.9169 21.3301 56.9029 21.2383C56.8889 21.1465 56.8533 21.0593 56.799 20.9839C56.7447 20.9086 56.6733 20.8472 56.5906 20.8048C56.508 20.7624 56.4164 20.7403 56.3235 20.7402H51.6316C51.5049 20.7402 51.3815 20.7811 51.28 20.8571Z" fill="#E7E7E7"/>
<path fill-rule="evenodd" clip-rule="evenodd" d="M107.954 56.5C107.954 72.6593 106.373 85.7589 104.423 85.7589C103.727 85.7589 103.078 84.091 102.532 81.2113C100.009 86.6325 96.6815 91.5682 92.7126 95.8482H101.901C101.901 105.321 94.2217 113 84.749 113H23.2044C13.7317 113 6.05258 105.321 6.05258 95.8482H15.2409C11.2719 91.5682 7.94479 86.6325 5.42188 81.2113C4.87507 84.091 4.22618 85.7589 3.53027 85.7589C1.58002 85.7589 -0.000976562 72.6593 -0.000976562 56.5C-0.000976562 40.3407 1.58002 27.2411 3.53027 27.2411C4.22618 27.2411 4.87507 28.909 5.42188 31.7887C14.1803 12.9685 32.6317 0 53.9767 0C75.3218 0 93.7731 12.9685 102.532 31.7887C103.078 28.909 103.727 27.2411 104.423 27.2411C106.373 27.2411 107.954 40.3407 107.954 56.5ZM13.1151 43.1592C13.1151 42.3738 13.5708 41.6597 14.2832 41.329L25.5084 36.1173C26.4799 35.6662 27.6345 36.0528 28.1386 36.9979L30.9266 42.2254C31.152 42.6481 31.5205 42.9768 31.9661 43.1527L32.5538 43.3847H76.4086L76.9962 43.1527C77.4418 42.9768 77.8103 42.6481 78.0358 42.2254L80.8238 36.9979C81.3278 36.0528 82.4825 35.6662 83.454 36.1173L94.6791 41.329C95.3915 41.6597 95.8472 42.3738 95.8472 43.1592V68.1058C95.8472 70.1266 94.3472 72.8384 92.3429 73.096C63.3471 76.8227 45.6273 76.7553 16.6295 73.0891C14.6208 72.8352 13.1151 70.1215 13.1151 68.0968V43.1592ZM36.8017 57.2451C36.8017 62.1143 32.8544 66.0616 27.9852 66.0616C23.116 66.0616 19.1687 62.1143 19.1687 57.2451C19.1687 52.3759 23.116 48.4286 27.9852 48.4286C32.8544 48.4286 36.8017 52.3759 36.8017 57.2451ZM80.4495 66.0616C85.3187 66.0616 89.266 62.1143 89.266 57.2451C89.266 52.3759 85.3187 48.4286 80.4495 48.4286C75.5803 48.4286 71.633 52.3759 71.633 57.2451C71.633 62.1143 75.5803 66.0616 80.4495 66.0616ZM51.28 20.8571C51.1785 20.933 51.1043 21.0397 51.0686 21.1613L48.1361 31.1317C48.1104 31.2192 48.1054 31.3115 48.1216 31.4012C48.1378 31.4909 48.1747 31.5757 48.2293 31.6486C48.284 31.7216 48.3549 31.7809 48.4365 31.8216C48.518 31.8624 48.608 31.8836 48.6991 31.8836H52.597L50.4844 38.7491C50.4438 38.8803 50.4505 39.0217 50.5034 39.1485C50.5564 39.2753 50.6521 39.3795 50.7741 39.4429C50.896 39.5063 51.0363 39.5249 51.1705 39.4954C51.3047 39.466 51.4243 39.3903 51.5084 39.2816L59.7193 28.7247C59.7868 28.638 59.8285 28.5342 59.8398 28.4249C59.8511 28.3157 59.8315 28.2054 59.7832 28.1068C59.7349 28.0081 59.6599 27.925 59.5667 27.8669C59.4735 27.8088 59.3658 27.7781 59.256 27.7781H54.7916L56.8795 21.5121C56.9089 21.4239 56.9169 21.3301 56.9029 21.2383C56.8889 21.1465 56.8533 21.0593 56.799 20.9839C56.7447 20.9086 56.6733 20.8472 56.5906 20.8048C56.508 20.7624 56.4164 20.7403 56.3235 20.7402H51.6316C51.5049 20.7402 51.3815 20.7811 51.28 20.8571Z" fill="url(#paint0_linear_114_485)"/>
<defs>
<linearGradient id="paint0_linear_114_485" x1="20.2743" y1="3.90179e-05" x2="117.409" y2="7.50028" gradientUnits="userSpaceOnUse">
<stop stop-color="#FE8603"/>
<stop offset="1" stop-color="#E32E7F"/>
</linearGradient>
</defs>
</svg>
