<svg width="190" height="115" viewBox="0 0 190 115" fill="none" xmlns="http://www.w3.org/2000/svg">
<path fill-rule="evenodd" clip-rule="evenodd" d="M13.7574 8.8385C14.551 5.92529 13.3835 2.7192 10.6853 1.04899C7.39807 -0.985787 3.08377 0.0294924 1.04899 3.31668C-0.985787 6.60386 0.0294924 10.9182 3.31668 12.9529C6.01097 14.6207 9.39528 14.2395 11.6489 12.2376L35.8816 27.2378L33.7672 30.6537C32.8951 32.0625 33.3302 33.9115 34.739 34.7836L38.0863 36.8555L29.1486 51.2507C28.5469 52.2198 28.5469 53.4464 29.1486 54.4156L50.2073 88.3331H39.1661C39.1661 102.693 50.8067 114.333 65.1661 114.333H123.166C137.526 114.333 149.166 102.693 149.166 88.3331H139.125L160.184 54.4155C160.785 53.4464 160.785 52.2198 160.184 51.2507L151.342 37.0104L154.653 34.9607C156.062 34.0887 156.497 32.2397 155.625 30.8309L153.511 27.415L177.744 12.4148C179.997 14.4166 183.382 14.7979 186.076 13.1301C189.363 11.0953 190.378 6.78103 188.343 3.49385C186.309 0.206662 181.994 -0.808617 178.707 1.22616C176.009 2.89637 174.841 6.10246 175.635 9.01568L151.406 24.0138L149.309 20.6275C148.437 19.2187 146.588 18.7836 145.18 19.6557L141.848 21.7182L133.796 8.75068C133.249 7.86922 132.285 7.33311 131.248 7.33311L58.0847 7.33312C57.0472 7.33312 56.0833 7.86922 55.536 8.75068L47.5809 21.5633L44.2129 19.4785C42.8041 18.6064 40.9551 19.0416 40.0831 20.4504L37.987 23.8367L13.7574 8.8385ZM71.1661 32.7516C60.1204 32.7516 51.1661 41.7059 51.1661 52.7516C51.1661 63.7973 60.1204 72.7516 71.1661 72.7516H118.166C129.212 72.7516 138.166 63.7973 138.166 52.7516C138.166 41.7059 129.212 32.7516 118.166 32.7516H71.1661ZM78.5101 52.0722C78.5101 56.8983 74.5977 60.8107 69.7716 60.8107C64.9454 60.8107 61.0331 56.8983 61.0331 52.0722C61.0331 47.246 64.9454 43.3336 69.7716 43.3336C74.5977 43.3336 78.5101 47.246 78.5101 52.0722ZM122.203 60.8107C127.029 60.8107 130.942 56.8983 130.942 52.0722C130.942 47.246 127.029 43.3336 122.203 43.3336C117.377 43.3336 113.465 47.246 113.465 52.0722C113.465 56.8983 117.377 60.8107 122.203 60.8107Z" fill="#E7E7E7"/>
<path fill-rule="evenodd" clip-rule="evenodd" d="M13.7574 8.8385C14.551 5.92529 13.3835 2.7192 10.6853 1.04899C7.39807 -0.985787 3.08377 0.0294924 1.04899 3.31668C-0.985787 6.60386 0.0294924 10.9182 3.31668 12.9529C6.01097 14.6207 9.39528 14.2395 11.6489 12.2376L35.8816 27.2378L33.7672 30.6537C32.8951 32.0625 33.3302 33.9115 34.739 34.7836L38.0863 36.8555L29.1486 51.2507C28.5469 52.2198 28.5469 53.4464 29.1486 54.4156L50.2073 88.3331H39.1661C39.1661 102.693 50.8067 114.333 65.1661 114.333H123.166C137.526 114.333 149.166 102.693 149.166 88.3331H139.125L160.184 54.4155C160.785 53.4464 160.785 52.2198 160.184 51.2507L151.342 37.0104L154.653 34.9607C156.062 34.0887 156.497 32.2397 155.625 30.8309L153.511 27.415L177.744 12.4148C179.997 14.4166 183.382 14.7979 186.076 13.1301C189.363 11.0953 190.378 6.78103 188.343 3.49385C186.309 0.206662 181.994 -0.808617 178.707 1.22616C176.009 2.89637 174.841 6.10246 175.635 9.01568L151.406 24.0138L149.309 20.6275C148.437 19.2187 146.588 18.7836 145.18 19.6557L141.848 21.7182L133.796 8.75068C133.249 7.86922 132.285 7.33311 131.248 7.33311L58.0847 7.33312C57.0472 7.33312 56.0833 7.86922 55.536 8.75068L47.5809 21.5633L44.2129 19.4785C42.8041 18.6064 40.9551 19.0416 40.0831 20.4504L37.987 23.8367L13.7574 8.8385ZM71.1661 32.7516C60.1204 32.7516 51.1661 41.7059 51.1661 52.7516C51.1661 63.7973 60.1204 72.7516 71.1661 72.7516H118.166C129.212 72.7516 138.166 63.7973 138.166 52.7516C138.166 41.7059 129.212 32.7516 118.166 32.7516H71.1661ZM78.5101 52.0722C78.5101 56.8983 74.5977 60.8107 69.7716 60.8107C64.9454 60.8107 61.0331 56.8983 61.0331 52.0722C61.0331 47.246 64.9454 43.3336 69.7716 43.3336C74.5977 43.3336 78.5101 47.246 78.5101 52.0722ZM122.203 60.8107C127.029 60.8107 130.942 56.8983 130.942 52.0722C130.942 47.246 127.029 43.3336 122.203 43.3336C117.377 43.3336 113.465 47.246 113.465 52.0722C113.465 56.8983 117.377 60.8107 122.203 60.8107Z" fill="url(#paint0_linear_114_511)"/>
<defs>
<linearGradient id="paint0_linear_114_511" x1="35.1307" y1="1.09768" x2="204.639" y2="24.1759" gradientUnits="userSpaceOnUse">
<stop stop-color="#FE8603"/>
<stop offset="1" stop-color="#E32E7F"/>
</linearGradient>
</defs>
</svg>
