<svg width="110" height="113" viewBox="0 0 110 113" fill="none" xmlns="http://www.w3.org/2000/svg">
<path fill-rule="evenodd" clip-rule="evenodd" d="M5 0C3.89543 0 3 0.895432 3 2V36C1.34315 36 0 37.3431 0 39V57C0 58.4256 0.994388 59.619 2.3274 59.9243C3.45874 70.0962 7.46884 79.3991 13.5245 87H0C0 101.359 11.6406 113 26 113H84C98.3594 113 110 101.359 110 87H96.4755C102.531 79.3991 106.541 70.0962 107.673 59.9243C109.006 59.619 110 58.4256 110 57V39C110 37.3431 108.657 36 107 36V2C107 0.89543 106.105 0 105 0C103.895 0 103 0.895432 103 2V31.4982C94.5376 13.4777 76.2259 1 55 1C33.7741 1 15.4624 13.4777 7 31.4982V2C7 0.89543 6.10457 0 5 0ZM82.1166 30C91.9933 30 100 38.0067 100 47.8834C100 52.5652 98.1797 57.0698 94.6614 60.1586C85.9074 67.8438 67.943 81.6639 52.6316 80.9752C38.6702 80.3472 22.9184 67.4763 15.046 60.1607C11.7057 57.0568 10 52.6545 10 48.0947C10 38.1013 18.1013 30 28.0947 30H82.1166ZM22.4075 37C19.9733 37 18 38.9733 18 41.4075V53.5925C18 56.0267 19.9733 58 22.4075 58C24.8417 58 26.815 56.0267 26.815 53.5925V41.4075C26.815 38.9733 24.8417 37 22.4075 37ZM31 41.405C31 38.9722 32.9722 37 35.405 37C37.8378 37 39.81 38.9722 39.81 41.405V61.595C39.81 64.0278 37.8378 66 35.405 66C32.9722 66 31 64.0278 31 61.595V41.405ZM48.405 37C45.9722 37 44 38.9722 44 41.405V67.595C44 70.0278 45.9722 72 48.405 72C50.8378 72 52.81 70.0278 52.81 67.595V41.405C52.81 38.9722 50.8378 37 48.405 37ZM57 41.405C57 38.9722 58.9722 37 61.405 37C63.8378 37 65.81 38.9722 65.81 41.405V67.595C65.81 70.0278 63.8378 72 61.405 72C58.9722 72 57 70.0278 57 67.595V41.405ZM74.405 37C71.9722 37 70 38.9722 70 41.405V61.595C70 64.0278 71.9722 66 74.405 66C76.8378 66 78.81 64.0278 78.81 61.595V41.405C78.81 38.9722 76.8378 37 74.405 37ZM83 41.4075C83 38.9733 84.9733 37 87.4075 37C89.8417 37 91.815 38.9733 91.815 41.4075V53.5925C91.815 56.0267 89.8417 58 87.4075 58C84.9733 58 83 56.0267 83 53.5925V41.4075ZM52.3024 6.23206C52.201 6.30798 52.1268 6.41473 52.091 6.53634L49.1586 16.5067C49.1329 16.5942 49.1279 16.6865 49.1441 16.7762C49.1603 16.8659 49.1971 16.9507 49.2518 17.0236C49.3065 17.0966 49.3774 17.1559 49.4589 17.1966C49.5405 17.2374 49.6304 17.2586 49.7216 17.2586H53.6194L51.5069 24.1241C51.4662 24.2553 51.4729 24.3967 51.5259 24.5235C51.5788 24.6503 51.6746 24.7545 51.7965 24.8179C51.9184 24.8813 52.0587 24.8999 52.193 24.8704C52.3272 24.841 52.4468 24.7653 52.5309 24.6566L60.7418 14.0997C60.8092 14.013 60.851 13.9092 60.8623 13.7999C60.8735 13.6907 60.8539 13.5804 60.8056 13.4818C60.7574 13.3831 60.6823 13.3 60.5891 13.2419C60.4959 13.1838 60.3883 13.1531 60.2785 13.1531H55.8141L57.902 6.88706C57.9313 6.79894 57.9393 6.7051 57.9253 6.61328C57.9113 6.52146 57.8757 6.43429 57.8214 6.35892C57.7671 6.28356 57.6957 6.22217 57.6131 6.1798C57.5304 6.13743 57.4389 6.1153 57.346 6.11523H52.6541C52.5273 6.11516 52.4039 6.15615 52.3024 6.23206Z" fill="#E7E7E7"/>
<path fill-rule="evenodd" clip-rule="evenodd" d="M5 0C3.89543 0 3 0.895432 3 2V36C1.34315 36 0 37.3431 0 39V57C0 58.4256 0.994388 59.619 2.3274 59.9243C3.45874 70.0962 7.46884 79.3991 13.5245 87H0C0 101.359 11.6406 113 26 113H84C98.3594 113 110 101.359 110 87H96.4755C102.531 79.3991 106.541 70.0962 107.673 59.9243C109.006 59.619 110 58.4256 110 57V39C110 37.3431 108.657 36 107 36V2C107 0.89543 106.105 0 105 0C103.895 0 103 0.895432 103 2V31.4982C94.5376 13.4777 76.2259 1 55 1C33.7741 1 15.4624 13.4777 7 31.4982V2C7 0.89543 6.10457 0 5 0ZM82.1166 30C91.9933 30 100 38.0067 100 47.8834C100 52.5652 98.1797 57.0698 94.6614 60.1586C85.9074 67.8438 67.943 81.6639 52.6316 80.9752C38.6702 80.3472 22.9184 67.4763 15.046 60.1607C11.7057 57.0568 10 52.6545 10 48.0947C10 38.1013 18.1013 30 28.0947 30H82.1166ZM22.4075 37C19.9733 37 18 38.9733 18 41.4075V53.5925C18 56.0267 19.9733 58 22.4075 58C24.8417 58 26.815 56.0267 26.815 53.5925V41.4075C26.815 38.9733 24.8417 37 22.4075 37ZM31 41.405C31 38.9722 32.9722 37 35.405 37C37.8378 37 39.81 38.9722 39.81 41.405V61.595C39.81 64.0278 37.8378 66 35.405 66C32.9722 66 31 64.0278 31 61.595V41.405ZM48.405 37C45.9722 37 44 38.9722 44 41.405V67.595C44 70.0278 45.9722 72 48.405 72C50.8378 72 52.81 70.0278 52.81 67.595V41.405C52.81 38.9722 50.8378 37 48.405 37ZM57 41.405C57 38.9722 58.9722 37 61.405 37C63.8378 37 65.81 38.9722 65.81 41.405V67.595C65.81 70.0278 63.8378 72 61.405 72C58.9722 72 57 70.0278 57 67.595V41.405ZM74.405 37C71.9722 37 70 38.9722 70 41.405V61.595C70 64.0278 71.9722 66 74.405 66C76.8378 66 78.81 64.0278 78.81 61.595V41.405C78.81 38.9722 76.8378 37 74.405 37ZM83 41.4075C83 38.9733 84.9733 37 87.4075 37C89.8417 37 91.815 38.9733 91.815 41.4075V53.5925C91.815 56.0267 89.8417 58 87.4075 58C84.9733 58 83 56.0267 83 53.5925V41.4075ZM52.3024 6.23206C52.201 6.30798 52.1268 6.41473 52.091 6.53634L49.1586 16.5067C49.1329 16.5942 49.1279 16.6865 49.1441 16.7762C49.1603 16.8659 49.1971 16.9507 49.2518 17.0236C49.3065 17.0966 49.3774 17.1559 49.4589 17.1966C49.5405 17.2374 49.6304 17.2586 49.7216 17.2586H53.6194L51.5069 24.1241C51.4662 24.2553 51.4729 24.3967 51.5259 24.5235C51.5788 24.6503 51.6746 24.7545 51.7965 24.8179C51.9184 24.8813 52.0587 24.8999 52.193 24.8704C52.3272 24.841 52.4468 24.7653 52.5309 24.6566L60.7418 14.0997C60.8092 14.013 60.851 13.9092 60.8623 13.7999C60.8735 13.6907 60.8539 13.5804 60.8056 13.4818C60.7574 13.3831 60.6823 13.3 60.5891 13.2419C60.4959 13.1838 60.3883 13.1531 60.2785 13.1531H55.8141L57.902 6.88706C57.9313 6.79894 57.9393 6.7051 57.9253 6.61328C57.9113 6.52146 57.8757 6.43429 57.8214 6.35892C57.7671 6.28356 57.6957 6.22217 57.6131 6.1798C57.5304 6.13743 57.4389 6.1153 57.346 6.11523H52.6541C52.5273 6.11516 52.4039 6.15615 52.3024 6.23206Z" fill="url(#paint0_linear_114_489)"/>
<defs>
<linearGradient id="paint0_linear_114_489" x1="20.6583" y1="1.00001" x2="119.599" y2="8.85393" gradientUnits="userSpaceOnUse">
<stop stop-color="#FE8603"/>
<stop offset="1" stop-color="#E32E7F"/>
</linearGradient>
</defs>
</svg>
