<svg width="114" height="113" viewBox="0 0 114 113" fill="none" xmlns="http://www.w3.org/2000/svg">
<path fill-rule="evenodd" clip-rule="evenodd" d="M57 0C58.1046 0 59 0.895431 59 2V12H60C62.9902 12 65.5425 13.8749 66.5454 16.5133C93.351 20.191 114 43.1841 114 71V88C114 92.4183 110.418 96 106 96H104.848C104.766 105.403 97.1183 112.999 87.6964 112.999H26.1518C16.73 112.999 9.08247 105.403 9.00066 96H8C3.58172 96 0 92.4183 0 88V71C0 43.1841 20.649 20.191 47.4546 16.5133C48.4575 13.8749 51.0098 12 54 12H55V2C55 0.89543 55.8954 0 57 0ZM21 46C19.3431 46 18 47.3431 18 49V72C18 73.6569 19.3431 75 21 75H93C94.6569 75 96 73.6569 96 72V49C96 47.3431 94.6569 46 93 46H21ZM39.477 60.7385C39.477 65.5647 35.5647 69.477 30.7385 69.477C25.9124 69.477 22 65.5647 22 60.7385C22 55.9124 25.9124 52 30.7385 52C35.5647 52 39.477 55.9124 39.477 60.7385ZM83.1702 69.477C87.9963 69.477 91.9087 65.5647 91.9087 60.7385C91.9087 55.9124 87.9963 52 83.1702 52C78.344 52 74.4316 55.9124 74.4316 60.7385C74.4316 65.5647 78.344 69.477 83.1702 69.477Z" fill="#E7E7E7"/>
<path fill-rule="evenodd" clip-rule="evenodd" d="M57 0C58.1046 0 59 0.895431 59 2V12H60C62.9902 12 65.5425 13.8749 66.5454 16.5133C93.351 20.191 114 43.1841 114 71V88C114 92.4183 110.418 96 106 96H104.848C104.766 105.403 97.1183 112.999 87.6964 112.999H26.1518C16.73 112.999 9.08247 105.403 9.00066 96H8C3.58172 96 0 92.4183 0 88V71C0 43.1841 20.649 20.191 47.4546 16.5133C48.4575 13.8749 51.0098 12 54 12H55V2C55 0.89543 55.8954 0 57 0ZM21 46C19.3431 46 18 47.3431 18 49V72C18 73.6569 19.3431 75 21 75H93C94.6569 75 96 73.6569 96 72V49C96 47.3431 94.6569 46 93 46H21ZM39.477 60.7385C39.477 65.5647 35.5647 69.477 30.7385 69.477C25.9124 69.477 22 65.5647 22 60.7385C22 55.9124 25.9124 52 30.7385 52C35.5647 52 39.477 55.9124 39.477 60.7385ZM83.1702 69.477C87.9963 69.477 91.9087 65.5647 91.9087 60.7385C91.9087 55.9124 87.9963 52 83.1702 52C78.344 52 74.4316 55.9124 74.4316 60.7385C74.4316 65.5647 78.344 69.477 83.1702 69.477Z" fill="url(#paint0_linear_114_531)"/>
<defs>
<linearGradient id="paint0_linear_114_531" x1="21.146" y1="1.08487" x2="124.359" y2="9.6431" gradientUnits="userSpaceOnUse">
<stop stop-color="#FE8603"/>
<stop offset="1" stop-color="#E32E7F"/>
</linearGradient>
</defs>
</svg>
