<svg width="132" height="114" viewBox="0 0 132 114" fill="none" xmlns="http://www.w3.org/2000/svg">
<path fill-rule="evenodd" clip-rule="evenodd" d="M65.1709 0C36.2892 0 12.876 23.4133 12.876 52.295V53.6189C12.876 53.8288 12.8772 54.0385 12.8797 54.2479H12.876C9.03612 54.2479 5.84837 57.0409 5.23324 60.7059H1.29163C0.578283 60.7059 0 61.2842 0 61.9976C0 62.7109 0.578283 63.2892 1.29163 63.2892H5.23307C5.84778 66.9547 9.0356 69.7479 12.8758 69.7479L12.876 54.2479V76.3164H12.875V91.0019H25.7996C26.1111 103.571 36.3977 113.664 49.0417 113.664H82.6241C95.2681 113.664 105.555 103.571 105.866 91.0019H118.795V76.3164H118.79V54.2479L118.79 69.7479C122.63 69.7479 125.818 66.9547 126.433 63.2892H130.419C131.132 63.2892 131.711 62.7109 131.711 61.9976C131.711 61.2842 131.132 60.7059 130.419 60.7059H126.432C125.817 57.0409 122.63 54.2479 118.79 54.2479H118.786C118.789 54.0385 118.79 53.8288 118.79 53.6188V52.295C118.79 23.4132 95.3765 0 66.4948 0H65.1709ZM28.3754 29.3073C34.1951 21.1981 42.6544 22.9322 52.0881 24.8661C56.5126 25.7731 61.1514 26.7241 65.8327 26.7241C70.514 26.7241 75.1528 25.7731 79.5773 24.8661C89.011 22.9322 97.4703 21.1981 103.29 29.3073C107.598 35.3104 106.169 48.5008 104.733 54.9193C104.005 58.1741 101.041 60.3065 97.7052 60.3065C88.8765 60.3065 81.4696 57.456 73.398 53.8789C71.48 53.0289 69.3573 52.5567 67.1243 52.5567C65.8005 52.5567 64.5155 52.7227 63.2889 53.0349C60.0156 53.8682 56.8486 54.935 53.7072 55.9932C47.2508 58.168 40.9022 60.3065 33.9602 60.3065C30.6249 60.3065 27.6605 58.1741 26.9323 54.9193C25.4962 48.5008 24.0672 35.3104 28.3754 29.3073ZM49.0415 41.3327C49.0415 45.6128 45.5718 49.0825 41.2917 49.0825C37.0116 49.0825 33.5419 45.6128 33.5419 41.3327C33.5419 37.0526 37.0116 33.5829 41.2917 33.5829C45.5718 33.5829 49.0415 37.0526 49.0415 41.3327ZM90.3739 49.0825C94.654 49.0825 98.1237 45.6128 98.1237 41.3327C98.1237 37.0526 94.654 33.5829 90.3739 33.5829C86.0938 33.5829 82.6241 37.0526 82.6241 41.3327C82.6241 45.6128 86.0938 49.0825 90.3739 49.0825ZM62.9465 5.4211C62.9822 5.2995 63.0564 5.19274 63.1579 5.11683C63.2594 5.04092 63.3828 4.99993 63.5095 5H68.2015C68.2943 5.00007 68.3859 5.0222 68.4685 5.06457C68.5512 5.10693 68.6226 5.16832 68.6769 5.24369C68.7312 5.31905 68.7668 5.40623 68.7808 5.49805C68.7948 5.58987 68.7868 5.6837 68.7575 5.77182L66.6695 12.0379H71.1339C71.2438 12.0378 71.3514 12.0686 71.4446 12.1267C71.5378 12.1848 71.6128 12.2679 71.6611 12.3666C71.7094 12.4652 71.729 12.5754 71.7177 12.6847C71.7064 12.7939 71.6647 12.8978 71.5973 12.9845L63.3864 23.5414C63.3023 23.65 63.1827 23.7257 63.0484 23.7552C62.9142 23.7847 62.7739 23.7661 62.652 23.7027C62.5301 23.6393 62.4343 23.5351 62.3813 23.4083C62.3284 23.2815 62.3217 23.1401 62.3624 23.0088L64.4749 16.1434H60.5771C60.4859 16.1434 60.396 16.1222 60.3144 16.0814C60.2328 16.0406 60.1619 15.9814 60.1073 15.9084C60.0526 15.8354 60.0157 15.7507 59.9995 15.661C59.9834 15.5712 59.9883 15.479 60.014 15.3915L62.9465 5.4211Z" fill="#E7E7E7"/>
<path fill-rule="evenodd" clip-rule="evenodd" d="M65.1709 0C36.2892 0 12.876 23.4133 12.876 52.295V53.6189C12.876 53.8288 12.8772 54.0385 12.8797 54.2479H12.876C9.03612 54.2479 5.84837 57.0409 5.23324 60.7059H1.29163C0.578283 60.7059 0 61.2842 0 61.9976C0 62.7109 0.578283 63.2892 1.29163 63.2892H5.23307C5.84778 66.9547 9.0356 69.7479 12.8758 69.7479L12.876 54.2479V76.3164H12.875V91.0019H25.7996C26.1111 103.571 36.3977 113.664 49.0417 113.664H82.6241C95.2681 113.664 105.555 103.571 105.866 91.0019H118.795V76.3164H118.79V54.2479L118.79 69.7479C122.63 69.7479 125.818 66.9547 126.433 63.2892H130.419C131.132 63.2892 131.711 62.7109 131.711 61.9976C131.711 61.2842 131.132 60.7059 130.419 60.7059H126.432C125.817 57.0409 122.63 54.2479 118.79 54.2479H118.786C118.789 54.0385 118.79 53.8288 118.79 53.6188V52.295C118.79 23.4132 95.3765 0 66.4948 0H65.1709ZM28.3754 29.3073C34.1951 21.1981 42.6544 22.9322 52.0881 24.8661C56.5126 25.7731 61.1514 26.7241 65.8327 26.7241C70.514 26.7241 75.1528 25.7731 79.5773 24.8661C89.011 22.9322 97.4703 21.1981 103.29 29.3073C107.598 35.3104 106.169 48.5008 104.733 54.9193C104.005 58.1741 101.041 60.3065 97.7052 60.3065C88.8765 60.3065 81.4696 57.456 73.398 53.8789C71.48 53.0289 69.3573 52.5567 67.1243 52.5567C65.8005 52.5567 64.5155 52.7227 63.2889 53.0349C60.0156 53.8682 56.8486 54.935 53.7072 55.9932C47.2508 58.168 40.9022 60.3065 33.9602 60.3065C30.6249 60.3065 27.6605 58.1741 26.9323 54.9193C25.4962 48.5008 24.0672 35.3104 28.3754 29.3073ZM49.0415 41.3327C49.0415 45.6128 45.5718 49.0825 41.2917 49.0825C37.0116 49.0825 33.5419 45.6128 33.5419 41.3327C33.5419 37.0526 37.0116 33.5829 41.2917 33.5829C45.5718 33.5829 49.0415 37.0526 49.0415 41.3327ZM90.3739 49.0825C94.654 49.0825 98.1237 45.6128 98.1237 41.3327C98.1237 37.0526 94.654 33.5829 90.3739 33.5829C86.0938 33.5829 82.6241 37.0526 82.6241 41.3327C82.6241 45.6128 86.0938 49.0825 90.3739 49.0825ZM62.9465 5.4211C62.9822 5.2995 63.0564 5.19274 63.1579 5.11683C63.2594 5.04092 63.3828 4.99993 63.5095 5H68.2015C68.2943 5.00007 68.3859 5.0222 68.4685 5.06457C68.5512 5.10693 68.6226 5.16832 68.6769 5.24369C68.7312 5.31905 68.7668 5.40623 68.7808 5.49805C68.7948 5.58987 68.7868 5.6837 68.7575 5.77182L66.6695 12.0379H71.1339C71.2438 12.0378 71.3514 12.0686 71.4446 12.1267C71.5378 12.1848 71.6128 12.2679 71.6611 12.3666C71.7094 12.4652 71.729 12.5754 71.7177 12.6847C71.7064 12.7939 71.6647 12.8978 71.5973 12.9845L63.3864 23.5414C63.3023 23.65 63.1827 23.7257 63.0484 23.7552C62.9142 23.7847 62.7739 23.7661 62.652 23.7027C62.5301 23.6393 62.4343 23.5351 62.3813 23.4083C62.3284 23.2815 62.3217 23.1401 62.3624 23.0088L64.4749 16.1434H60.5771C60.4859 16.1434 60.396 16.1222 60.3144 16.0814C60.2328 16.0406 60.1619 15.9814 60.1073 15.9084C60.0526 15.8354 60.0157 15.7507 59.9995 15.661C59.9834 15.5712 59.9883 15.479 60.014 15.3915L62.9465 5.4211Z" fill="url(#paint0_linear_96_463)"/>
<defs>
<linearGradient id="paint0_linear_96_463" x1="24.7357" y1="3.7009e-05" x2="142.914" y2="11.0681" gradientUnits="userSpaceOnUse">
<stop stop-color="#FE8603"/>
<stop offset="1" stop-color="#E32E7F"/>
</linearGradient>
</defs>
</svg>
