<svg width="118" height="116" viewBox="0 0 118 116" fill="none" xmlns="http://www.w3.org/2000/svg">
<path fill-rule="evenodd" clip-rule="evenodd" d="M77.0912 23.2555H40.4723L21.2543 0.705023C20.127 -0.617794 17.9651 0.0278179 17.7478 1.7522L11.99 47.4382L0 66.7555L31.8452 98.1031H11.5759C11.5759 107.576 19.2551 115.255 28.7277 115.255H90.2723C99.745 115.255 107.424 107.576 107.424 98.1031H86.1523L117.5 66.7555L105.645 48.0023L99.8157 1.7522C99.5983 0.0278179 97.4365 -0.617794 96.3092 0.705023L77.0912 23.2555ZM33.6354 48.076C34.1075 46.9717 35.1928 46.2555 36.3938 46.2555H81.6062C82.8072 46.2555 83.8925 46.9717 84.3646 48.076L88.2129 57.076C89.0592 59.0553 87.6072 61.2555 85.4545 61.2555H32.5455C30.3928 61.2555 28.9407 59.0553 29.7871 57.076L33.6354 48.076ZM50.1512 73.2555C49.7466 73.2555 49.3819 73.0117 49.2272 72.6378L47.572 68.6378C47.2996 67.9794 47.7835 67.2555 48.496 67.2555H69.504C70.2165 67.2555 70.7004 67.9794 70.428 68.6378L68.7728 72.6378C68.6181 73.0117 68.2534 73.2555 67.8488 73.2555H50.1512Z" fill="#E7E7E7"/>
<path fill-rule="evenodd" clip-rule="evenodd" d="M77.0912 23.2555H40.4723L21.2543 0.705023C20.127 -0.617794 17.9651 0.0278179 17.7478 1.7522L11.99 47.4382L0 66.7555L31.8452 98.1031H11.5759C11.5759 107.576 19.2551 115.255 28.7277 115.255H90.2723C99.745 115.255 107.424 107.576 107.424 98.1031H86.1523L117.5 66.7555L105.645 48.0023L99.8157 1.7522C99.5983 0.0278179 97.4365 -0.617794 96.3092 0.705023L77.0912 23.2555ZM33.6354 48.076C34.1075 46.9717 35.1928 46.2555 36.3938 46.2555H81.6062C82.8072 46.2555 83.8925 46.9717 84.3646 48.076L88.2129 57.076C89.0592 59.0553 87.6072 61.2555 85.4545 61.2555H32.5455C30.3928 61.2555 28.9407 59.0553 29.7871 57.076L33.6354 48.076ZM50.1512 73.2555C49.7466 73.2555 49.3819 73.0117 49.2272 72.6378L47.572 68.6378C47.2996 67.9794 47.7835 67.2555 48.496 67.2555H69.504C70.2165 67.2555 70.7004 67.9794 70.428 68.6378L68.7728 72.6378C68.6181 73.0117 68.2534 73.2555 67.8488 73.2555H50.1512Z" fill="url(#paint0_linear_96_469)"/>
<defs>
<linearGradient id="paint0_linear_96_469" x1="22.0669" y1="3.75269e-05" x2="127.702" y2="8.70415" gradientUnits="userSpaceOnUse">
<stop stop-color="#FE8603"/>
<stop offset="1" stop-color="#E32E7F"/>
</linearGradient>
</defs>
</svg>
