<svg width="154" height="156" viewBox="0 0 154 156" fill="none" xmlns="http://www.w3.org/2000/svg">
<path d="M75.6054 0.112005C75.8938 -0.0373354 76.2368 -0.037335 76.5251 0.112006L130.351 27.9859C131.071 28.3588 131.071 29.3889 130.351 29.7619L76.5251 57.6357C76.2368 57.7851 75.8938 57.7851 75.6054 57.6357L26.8041 32.3636V35.3021C28.2229 35.5401 29.3041 36.7741 29.3041 38.2606C29.3041 39.5427 28.4997 40.637 27.3681 41.0664L29.4546 73.5243L26.2652 82.0807L23.1534 73.5243L25.3154 41.0939C24.1443 40.6853 23.3041 39.571 23.3041 38.2606C23.3041 36.7741 24.3852 35.5401 25.8041 35.3021V31.8457L21.78 29.7619C21.0599 29.3889 21.0599 28.3588 21.78 27.9859L75.6054 0.112005Z" fill="white"/>
<path d="M75.6054 0.112005C75.8938 -0.0373354 76.2368 -0.037335 76.5251 0.112006L130.351 27.9859C131.071 28.3588 131.071 29.3889 130.351 29.7619L76.5251 57.6357C76.2368 57.7851 75.8938 57.7851 75.6054 57.6357L26.8041 32.3636V35.3021C28.2229 35.5401 29.3041 36.7741 29.3041 38.2606C29.3041 39.5427 28.4997 40.637 27.3681 41.0664L29.4546 73.5243L26.2652 82.0807L23.1534 73.5243L25.3154 41.0939C24.1443 40.6853 23.3041 39.571 23.3041 38.2606C23.3041 36.7741 24.3852 35.5401 25.8041 35.3021V31.8457L21.78 29.7619C21.0599 29.3889 21.0599 28.3588 21.78 27.9859L75.6054 0.112005Z" fill="url(#paint0_linear_84_459)"/>
<path d="M38.5467 42.5545L75.6054 61.7457C75.8938 61.895 76.2368 61.895 76.5251 61.7457L114.379 42.1428C117.237 47.7996 118.857 54.141 118.857 60.7861C118.857 83.7445 99.5238 103.078 76.5655 103.078C53.6072 103.078 34.2738 83.7445 34.2738 60.7861C34.2738 54.3018 35.8161 48.1066 38.5467 42.5545Z" fill="white"/>
<path d="M38.5467 42.5545L75.6054 61.7457C75.8938 61.895 76.2368 61.895 76.5251 61.7457L114.379 42.1428C117.237 47.7996 118.857 54.141 118.857 60.7861C118.857 83.7445 99.5238 103.078 76.5655 103.078C53.6072 103.078 34.2738 83.7445 34.2738 60.7861C34.2738 54.3018 35.8161 48.1066 38.5467 42.5545Z" fill="url(#paint1_linear_84_459)"/>
<path d="M0 155.486H153.131C146.908 143.823 125.176 111.244 76.5655 111.244C27.9554 111.244 6.22273 143.823 0 155.486Z" fill="white"/>
<path d="M0 155.486H153.131C146.908 143.823 125.176 111.244 76.5655 111.244C27.9554 111.244 6.22273 143.823 0 155.486Z" fill="url(#paint2_linear_84_459)"/>
<defs>
<linearGradient id="paint0_linear_84_459" x1="76.5655" y1="23.9957" x2="125.66" y2="25.4326" gradientUnits="userSpaceOnUse">
<stop stop-color="#FE8603"/>
<stop offset="1" stop-color="#E32E7F"/>
</linearGradient>
<linearGradient id="paint1_linear_84_459" x1="76.5655" y1="23.9957" x2="125.66" y2="25.4326" gradientUnits="userSpaceOnUse">
<stop stop-color="#FE8603"/>
<stop offset="1" stop-color="#E32E7F"/>
</linearGradient>
<linearGradient id="paint2_linear_84_459" x1="76.5655" y1="23.9957" x2="125.66" y2="25.4326" gradientUnits="userSpaceOnUse">
<stop stop-color="#FE8603"/>
<stop offset="1" stop-color="#E32E7F"/>
</linearGradient>
</defs>
</svg>
