<svg width="174" height="137" viewBox="0 0 174 137" fill="none" xmlns="http://www.w3.org/2000/svg">
<path d="M34.7079 42.2917C34.7079 19.3333 54.0412 0 76.9995 0C99.9579 0 119.291 19.3333 119.291 42.2917C119.291 65.25 99.9579 84.5833 76.9995 84.5833C54.0412 84.5833 34.7079 65.25 34.7079 42.2917Z" fill="white"/>
<path d="M34.7079 42.2917C34.7079 19.3333 54.0412 0 76.9995 0C99.9579 0 119.291 19.3333 119.291 42.2917C119.291 65.25 99.9579 84.5833 76.9995 84.5833C54.0412 84.5833 34.7079 65.25 34.7079 42.2917Z" fill="url(#paint0_linear_82_456)"/>
<path d="M76.9995 92.75C28.3781 92.75 6.64665 125.344 0.429688 137H153.569C147.352 125.344 125.621 92.75 76.9995 92.75Z" fill="white"/>
<path d="M76.9995 92.75C28.3781 92.75 6.64665 125.344 0.429688 137H153.569C147.352 125.344 125.621 92.75 76.9995 92.75Z" fill="url(#paint1_linear_82_456)"/>
<path d="M130.129 48.7509C127.524 48.7301 124.94 48.3707 122.441 47.6879C122.535 46.566 122.583 45.4331 122.583 44.2913C122.583 37.2697 120.774 30.5872 117.607 24.6932C118.099 24.4866 118.627 24.3806 119.161 24.3824H141.034C141.665 24.3817 142.288 24.5313 142.851 24.8189C143.414 25.1066 143.903 25.5243 144.276 26.0381C144.65 26.552 144.898 27.1475 145.001 27.7764C145.104 28.4052 145.059 29.0498 144.869 29.6577L141.76 39.5231C146.761 36.3101 152.721 34.9732 158.599 35.7459C159.351 35.8171 160.045 36.1864 160.529 36.773C161.013 37.3596 161.247 38.1158 161.181 38.8763C161.114 39.6368 160.752 40.3397 160.173 40.8312C159.595 41.3227 158.847 41.5629 158.094 41.4993C150.235 40.814 145.816 43.4437 143.859 45.1171C139.664 47.4908 134.938 48.7417 130.129 48.7509Z" fill="white"/>
<path d="M130.129 48.7509C127.524 48.7301 124.94 48.3707 122.441 47.6879C122.535 46.566 122.583 45.4331 122.583 44.2913C122.583 37.2697 120.774 30.5872 117.607 24.6932C118.099 24.4866 118.627 24.3806 119.161 24.3824H141.034C141.665 24.3817 142.288 24.5313 142.851 24.8189C143.414 25.1066 143.903 25.5243 144.276 26.0381C144.65 26.552 144.898 27.1475 145.001 27.7764C145.104 28.4052 145.059 29.0498 144.869 29.6577L141.76 39.5231C146.761 36.3101 152.721 34.9732 158.599 35.7459C159.351 35.8171 160.045 36.1864 160.529 36.773C161.013 37.3596 161.247 38.1158 161.181 38.8763C161.114 39.6368 160.752 40.3397 160.173 40.8312C159.595 41.3227 158.847 41.5629 158.094 41.4993C150.235 40.814 145.816 43.4437 143.859 45.1171C139.664 47.4908 134.938 48.7417 130.129 48.7509Z" fill="url(#paint2_linear_82_456)"/>
<path d="M134.252 90.3515C134.804 90.2886 135.312 90.1638 135.776 89.9772C136.483 89.6889 137.039 89.2907 137.444 88.7826C137.849 88.2677 138.052 87.667 138.052 86.9804C138.052 86.3557 137.873 85.8442 137.516 85.446C137.166 85.0478 136.689 84.7182 136.085 84.4573C135.54 84.2192 134.929 84.0068 134.252 83.8201V90.3515Z" fill="white"/>
<path d="M134.252 90.3515C134.804 90.2886 135.312 90.1638 135.776 89.9772C136.483 89.6889 137.039 89.2907 137.444 88.7826C137.849 88.2677 138.052 87.667 138.052 86.9804C138.052 86.3557 137.873 85.8442 137.516 85.446C137.166 85.0478 136.689 84.7182 136.085 84.4573C135.54 84.2192 134.929 84.0068 134.252 83.8201V90.3515Z" fill="url(#paint3_linear_82_456)"/>
<path d="M132.563 80.4036V74.2675C132.074 74.3316 131.631 74.45 131.234 74.6225C130.603 74.8902 130.112 75.261 129.762 75.7347C129.418 76.2015 129.247 76.7336 129.247 77.3309C129.247 77.8321 129.364 78.2646 129.597 78.6285C129.837 78.9924 130.15 79.2979 130.534 79.5451C130.925 79.7853 131.344 79.9879 131.791 80.1527C132.054 80.2459 132.311 80.3295 132.563 80.4036Z" fill="white"/>
<path d="M132.563 80.4036V74.2675C132.074 74.3316 131.631 74.45 131.234 74.6225C130.603 74.8902 130.112 75.261 129.762 75.7347C129.418 76.2015 129.247 76.7336 129.247 77.3309C129.247 77.8321 129.364 78.2646 129.597 78.6285C129.837 78.9924 130.15 79.2979 130.534 79.5451C130.925 79.7853 131.344 79.9879 131.791 80.1527C132.054 80.2459 132.311 80.3295 132.563 80.4036Z" fill="url(#paint4_linear_82_456)"/>
<path fill-rule="evenodd" clip-rule="evenodd" d="M144.177 117.697C134.207 106.498 117.972 94.1214 93.3504 90.5471C94.3262 88.4307 94.8998 86.1524 95.0459 83.8305C108.651 78.5975 119.115 66.4278 121.869 51.8899C124.62 52.5922 127.456 52.9645 130.319 52.9904C136.611 52.9592 142.761 51.1063 148.041 47.6513C164.422 53.1817 165.858 73.4701 165.669 82.2676C165.605 85.1918 166.221 88.0904 167.468 90.7304L172.613 101.584C173.424 103.301 173.792 105.198 173.682 107.097C173.571 108.996 172.986 110.836 171.98 112.445C170.975 114.054 169.582 115.38 167.932 116.298C166.282 117.217 164.428 117.698 162.544 117.697H144.177ZM132.563 93.1658V95.4765H134.252V93.165C135.536 93.0868 136.655 92.8274 137.609 92.387C138.776 91.8515 139.665 91.1203 140.276 90.1935C140.894 89.2666 141.203 88.2059 141.203 87.0113C141.203 86.0639 141.014 85.2503 140.637 84.5706C140.266 83.8909 139.779 83.3211 139.174 82.8611C138.57 82.4011 137.915 82.0304 137.207 81.7489C136.5 81.4674 135.81 81.2443 135.137 81.0795L134.252 80.8492V74.2504C135.122 74.3439 135.866 74.6018 136.487 75.0241C137.283 75.5596 137.736 76.3148 137.846 77.2897H140.915C140.887 76.1569 140.558 75.1545 139.926 74.2826C139.295 73.4038 138.429 72.7138 137.331 72.2127C136.421 71.7951 135.395 71.5514 134.252 71.4818V69.1129H132.563V71.5044C131.539 71.5967 130.598 71.8363 129.741 72.223C128.615 72.7241 127.723 73.4279 127.064 74.3341C126.405 75.2404 126.075 76.3011 126.075 77.5163C126.075 78.9855 126.566 80.1664 127.548 81.0589C128.536 81.9514 129.875 82.6277 131.564 83.0877L132.563 83.3601V90.3575C132.054 90.3035 131.573 90.1973 131.121 90.039C130.441 89.7919 129.882 89.4177 129.443 88.9165C129.01 88.4085 128.763 87.7734 128.701 87.0113H125.509C125.577 88.2814 125.938 89.3799 126.59 90.3068C127.242 91.2268 128.145 91.9373 129.298 92.4385C130.244 92.8493 131.332 93.0917 132.563 93.1658Z" fill="white"/>
<path fill-rule="evenodd" clip-rule="evenodd" d="M144.177 117.697C134.207 106.498 117.972 94.1214 93.3504 90.5471C94.3262 88.4307 94.8998 86.1524 95.0459 83.8305C108.651 78.5975 119.115 66.4278 121.869 51.8899C124.62 52.5922 127.456 52.9645 130.319 52.9904C136.611 52.9592 142.761 51.1063 148.041 47.6513C164.422 53.1817 165.858 73.4701 165.669 82.2676C165.605 85.1918 166.221 88.0904 167.468 90.7304L172.613 101.584C173.424 103.301 173.792 105.198 173.682 107.097C173.571 108.996 172.986 110.836 171.98 112.445C170.975 114.054 169.582 115.38 167.932 116.298C166.282 117.217 164.428 117.698 162.544 117.697H144.177ZM132.563 93.1658V95.4765H134.252V93.165C135.536 93.0868 136.655 92.8274 137.609 92.387C138.776 91.8515 139.665 91.1203 140.276 90.1935C140.894 89.2666 141.203 88.2059 141.203 87.0113C141.203 86.0639 141.014 85.2503 140.637 84.5706C140.266 83.8909 139.779 83.3211 139.174 82.8611C138.57 82.4011 137.915 82.0304 137.207 81.7489C136.5 81.4674 135.81 81.2443 135.137 81.0795L134.252 80.8492V74.2504C135.122 74.3439 135.866 74.6018 136.487 75.0241C137.283 75.5596 137.736 76.3148 137.846 77.2897H140.915C140.887 76.1569 140.558 75.1545 139.926 74.2826C139.295 73.4038 138.429 72.7138 137.331 72.2127C136.421 71.7951 135.395 71.5514 134.252 71.4818V69.1129H132.563V71.5044C131.539 71.5967 130.598 71.8363 129.741 72.223C128.615 72.7241 127.723 73.4279 127.064 74.3341C126.405 75.2404 126.075 76.3011 126.075 77.5163C126.075 78.9855 126.566 80.1664 127.548 81.0589C128.536 81.9514 129.875 82.6277 131.564 83.0877L132.563 83.3601V90.3575C132.054 90.3035 131.573 90.1973 131.121 90.039C130.441 89.7919 129.882 89.4177 129.443 88.9165C129.01 88.4085 128.763 87.7734 128.701 87.0113H125.509C125.577 88.2814 125.938 89.3799 126.59 90.3068C127.242 91.2268 128.145 91.9373 129.298 92.4385C130.244 92.8493 131.332 93.0917 132.563 93.1658Z" fill="url(#paint5_linear_82_456)"/>
<defs>
<linearGradient id="paint0_linear_82_456" x1="87.0652" y1="21.1428" x2="142.586" y2="23.2296" gradientUnits="userSpaceOnUse">
<stop stop-color="#FE8603"/>
<stop offset="1" stop-color="#E32E7F"/>
</linearGradient>
<linearGradient id="paint1_linear_82_456" x1="87.0652" y1="21.1428" x2="142.586" y2="23.2296" gradientUnits="userSpaceOnUse">
<stop stop-color="#FE8603"/>
<stop offset="1" stop-color="#E32E7F"/>
</linearGradient>
<linearGradient id="paint2_linear_82_456" x1="87.0652" y1="21.1428" x2="142.586" y2="23.2296" gradientUnits="userSpaceOnUse">
<stop stop-color="#FE8603"/>
<stop offset="1" stop-color="#E32E7F"/>
</linearGradient>
<linearGradient id="paint3_linear_82_456" x1="87.0652" y1="21.1428" x2="142.586" y2="23.2296" gradientUnits="userSpaceOnUse">
<stop stop-color="#FE8603"/>
<stop offset="1" stop-color="#E32E7F"/>
</linearGradient>
<linearGradient id="paint4_linear_82_456" x1="87.0652" y1="21.1428" x2="142.586" y2="23.2296" gradientUnits="userSpaceOnUse">
<stop stop-color="#FE8603"/>
<stop offset="1" stop-color="#E32E7F"/>
</linearGradient>
<linearGradient id="paint5_linear_82_456" x1="87.0652" y1="21.1428" x2="142.586" y2="23.2296" gradientUnits="userSpaceOnUse">
<stop stop-color="#FE8603"/>
<stop offset="1" stop-color="#E32E7F"/>
</linearGradient>
</defs>
</svg>
