<svg width="154" height="137" viewBox="0 0 154 137" fill="none" xmlns="http://www.w3.org/2000/svg">
<path d="M34.7079 42.2917C34.7079 19.3333 54.0412 0 76.9995 0C99.9579 0 119.291 19.3333 119.291 42.2917C119.291 65.25 99.9579 84.5833 76.9995 84.5833C54.0412 84.5833 34.7079 65.25 34.7079 42.2917Z" fill="white"/>
<path d="M34.7079 42.2917C34.7079 19.3333 54.0412 0 76.9995 0C99.9579 0 119.291 19.3333 119.291 42.2917C119.291 65.25 99.9579 84.5833 76.9995 84.5833C54.0412 84.5833 34.7079 65.25 34.7079 42.2917Z" fill="url(#paint0_linear_82_458)"/>
<path d="M65.0208 93.442C24.7477 98.2124 6.11087 126.348 0.429688 137H58.2053L68.9 99.1859C67.1191 97.6874 65.7586 95.7053 65.0208 93.442Z" fill="white"/>
<path d="M65.0208 93.442C24.7477 98.2124 6.11087 126.348 0.429688 137H58.2053L68.9 99.1859C67.1191 97.6874 65.7586 95.7053 65.0208 93.442Z" fill="url(#paint1_linear_82_458)"/>
<path d="M89.012 93.446C88.2647 95.736 86.8798 97.7379 85.067 99.242L95.7459 137H153.569C147.89 126.351 129.262 98.2281 89.012 93.446Z" fill="white"/>
<path d="M89.012 93.446C88.2647 95.736 86.8798 97.7379 85.067 99.242L95.7459 137H153.569C147.89 126.351 129.262 98.2281 89.012 93.446Z" fill="url(#paint2_linear_82_458)"/>
<path d="M69.7536 93.852C69.6819 93.3136 70.1227 92.8674 70.6656 92.8546L76.9934 92.7051L83.3336 92.8546C83.8766 92.8674 84.3174 93.3137 84.2457 93.852C83.9972 95.7178 83.045 97.3611 81.6646 98.5064L92.6902 137.49H61.261L72.2957 98.4739C70.9364 97.3301 69.9997 95.7002 69.7536 93.852Z" fill="white"/>
<path d="M69.7536 93.852C69.6819 93.3136 70.1227 92.8674 70.6656 92.8546L76.9934 92.7051L83.3336 92.8546C83.8766 92.8674 84.3174 93.3137 84.2457 93.852C83.9972 95.7178 83.045 97.3611 81.6646 98.5064L92.6902 137.49H61.261L72.2957 98.4739C70.9364 97.3301 69.9997 95.7002 69.7536 93.852Z" fill="url(#paint3_linear_82_458)"/>
<defs>
<linearGradient id="paint0_linear_82_458" x1="76.9995" y1="21.2185" x2="126.085" y2="22.8432" gradientUnits="userSpaceOnUse">
<stop stop-color="#FE8603"/>
<stop offset="1" stop-color="#E32E7F"/>
</linearGradient>
<linearGradient id="paint1_linear_82_458" x1="76.9995" y1="21.2185" x2="126.085" y2="22.8432" gradientUnits="userSpaceOnUse">
<stop stop-color="#FE8603"/>
<stop offset="1" stop-color="#E32E7F"/>
</linearGradient>
<linearGradient id="paint2_linear_82_458" x1="76.9995" y1="21.2185" x2="126.085" y2="22.8432" gradientUnits="userSpaceOnUse">
<stop stop-color="#FE8603"/>
<stop offset="1" stop-color="#E32E7F"/>
</linearGradient>
<linearGradient id="paint3_linear_82_458" x1="76.9995" y1="21.2185" x2="126.085" y2="22.8432" gradientUnits="userSpaceOnUse">
<stop stop-color="#FE8603"/>
<stop offset="1" stop-color="#E32E7F"/>
</linearGradient>
</defs>
</svg>
