<svg width="154" height="184" viewBox="0 0 154 184" fill="none" xmlns="http://www.w3.org/2000/svg">
<path d="M99.1724 29.7428L99.3247 29.3636C100.346 26.8993 101.383 25.0288 102.437 23.7522C103.504 22.481 104.659 21.5693 105.9 21.0174C107.142 20.4654 108.532 20.0654 110.068 19.8175C111.07 19.6326 112.016 19.3558 112.906 18.987C113.796 18.6182 114.59 18.1028 115.289 17.4408C115.988 16.7788 116.535 15.9555 116.93 14.9708C117.406 13.7865 117.538 12.6496 117.327 11.5602C117.116 10.4707 116.638 9.50596 115.893 8.66599C115.168 7.81806 114.239 7.16687 113.108 6.71243C112.084 6.30076 111.02 6.12071 109.918 6.17228C108.815 6.22384 107.776 6.57908 106.8 7.23799C105.83 7.88359 105.015 8.89293 104.355 10.266L98.2873 7.82806C99.3428 5.47032 100.761 3.69098 102.542 2.49007C104.328 1.27585 106.31 0.611824 108.488 0.498002C110.68 0.389528 112.894 0.784384 115.129 1.68257C117.578 2.6663 119.536 3.98614 121.003 5.64208C122.476 7.28472 123.389 9.12755 123.743 11.1706C124.115 13.2056 123.865 15.3077 122.994 17.4766C122.395 18.9669 121.622 20.2173 120.675 21.2278C119.734 22.225 118.644 23.0155 117.404 23.5995C116.179 24.1888 114.822 24.6021 113.336 24.8395C111.922 25.0903 110.71 25.4532 109.7 25.9283C108.703 26.4088 107.836 27.1038 107.1 28.0134C106.364 28.923 105.675 30.1376 105.033 31.6572L104.881 32.0364L99.1724 29.7428Z" fill="white"/>
<path d="M99.1724 29.7428L99.3247 29.3636C100.346 26.8993 101.383 25.0288 102.437 23.7522C103.504 22.481 104.659 21.5693 105.9 21.0174C107.142 20.4654 108.532 20.0654 110.068 19.8175C111.07 19.6326 112.016 19.3558 112.906 18.987C113.796 18.6182 114.59 18.1028 115.289 17.4408C115.988 16.7788 116.535 15.9555 116.93 14.9708C117.406 13.7865 117.538 12.6496 117.327 11.5602C117.116 10.4707 116.638 9.50596 115.893 8.66599C115.168 7.81806 114.239 7.16687 113.108 6.71243C112.084 6.30076 111.02 6.12071 109.918 6.17228C108.815 6.22384 107.776 6.57908 106.8 7.23799C105.83 7.88359 105.015 8.89293 104.355 10.266L98.2873 7.82806C99.3428 5.47032 100.761 3.69098 102.542 2.49007C104.328 1.27585 106.31 0.611824 108.488 0.498002C110.68 0.389528 112.894 0.784384 115.129 1.68257C117.578 2.6663 119.536 3.98614 121.003 5.64208C122.476 7.28472 123.389 9.12755 123.743 11.1706C124.115 13.2056 123.865 15.3077 122.994 17.4766C122.395 18.9669 121.622 20.2173 120.675 21.2278C119.734 22.225 118.644 23.0155 117.404 23.5995C116.179 24.1888 114.822 24.6021 113.336 24.8395C111.922 25.0903 110.71 25.4532 109.7 25.9283C108.703 26.4088 107.836 27.1038 107.1 28.0134C106.364 28.923 105.675 30.1376 105.033 31.6572L104.881 32.0364L99.1724 29.7428Z" fill="url(#paint0_linear_82_452)"/>
<path d="M97.3104 43.0893C96.2193 42.6509 95.4362 41.8881 94.9612 40.8009C94.4916 39.7004 94.4786 38.5979 94.9224 37.4935C95.3608 36.4023 96.1276 35.6286 97.2227 35.1722C98.3233 34.7026 99.4191 34.687 100.51 35.1254C101.588 35.5584 102.362 36.3252 102.831 37.4257C103.32 38.5183 103.345 39.6101 102.906 40.7013C102.612 41.4331 102.156 42.0302 101.537 42.4926C100.938 42.9471 100.266 43.2337 99.5229 43.3523C98.7798 43.471 98.0423 43.3834 97.3104 43.0893Z" fill="white"/>
<path d="M97.3104 43.0893C96.2193 42.6509 95.4362 41.8881 94.9612 40.8009C94.4916 39.7004 94.4786 38.5979 94.9224 37.4935C95.3608 36.4023 96.1276 35.6286 97.2227 35.1722C98.3233 34.7026 99.4191 34.687 100.51 35.1254C101.588 35.5584 102.362 36.3252 102.831 37.4257C103.32 38.5183 103.345 39.6101 102.906 40.7013C102.612 41.4331 102.156 42.0302 101.537 42.4926C100.938 42.9471 100.266 43.2337 99.5229 43.3523C98.7798 43.471 98.0423 43.3834 97.3104 43.0893Z" fill="url(#paint1_linear_82_452)"/>
<path d="M124.254 55.5527L124.062 55.756L127.121 58.6436L127.313 58.4404C128.101 57.6338 128.843 57.0332 129.539 56.6386C130.236 56.244 130.961 56.0185 131.715 55.9621C132.477 55.9124 133.339 55.9846 134.302 56.1789C135.307 56.3996 136.274 56.4758 137.201 56.4075C138.136 56.3459 139.027 56.1156 139.876 55.7165C140.731 55.3104 141.536 54.708 142.29 53.9094C143.387 52.7472 144.072 51.4719 144.344 50.0837C144.63 48.6951 144.51 47.2939 143.983 45.8802C143.464 44.4593 142.548 43.1296 141.236 41.8911C140.038 40.7603 138.728 39.9552 137.306 39.476C135.892 39.0034 134.464 38.9301 133.024 39.256C131.59 39.5748 130.243 40.3523 128.981 41.5887L132.232 44.658C132.996 43.9493 133.767 43.5109 134.546 43.3428C135.332 43.1676 136.082 43.2015 136.796 43.4445C137.511 43.6875 138.143 44.0681 138.692 44.5864C139.298 45.1585 139.726 45.8052 139.975 46.5263C140.239 47.247 140.302 47.9805 140.164 48.7267C140.026 49.4729 139.657 50.1633 139.058 50.7979C138.56 51.3255 138.006 51.7126 137.395 51.9591C136.785 52.2056 136.151 52.3348 135.492 52.3469C134.834 52.3589 134.162 52.2985 133.479 52.1656C132.439 51.9389 131.455 51.8458 130.526 51.8864C129.598 51.9271 128.635 52.2184 127.638 52.7604C126.648 53.3092 125.52 54.2399 124.254 55.5527Z" fill="white"/>
<path d="M124.254 55.5527L124.062 55.756L127.121 58.6436L127.313 58.4404C128.101 57.6338 128.843 57.0332 129.539 56.6386C130.236 56.244 130.961 56.0185 131.715 55.9621C132.477 55.9124 133.339 55.9846 134.302 56.1789C135.307 56.3996 136.274 56.4758 137.201 56.4075C138.136 56.3459 139.027 56.1156 139.876 55.7165C140.731 55.3104 141.536 54.708 142.29 53.9094C143.387 52.7472 144.072 51.4719 144.344 50.0837C144.63 48.6951 144.51 47.2939 143.983 45.8802C143.464 44.4593 142.548 43.1296 141.236 41.8911C140.038 40.7603 138.728 39.9552 137.306 39.476C135.892 39.0034 134.464 38.9301 133.024 39.256C131.59 39.5748 130.243 40.3523 128.981 41.5887L132.232 44.658C132.996 43.9493 133.767 43.5109 134.546 43.3428C135.332 43.1676 136.082 43.2015 136.796 43.4445C137.511 43.6875 138.143 44.0681 138.692 44.5864C139.298 45.1585 139.726 45.8052 139.975 46.5263C140.239 47.247 140.302 47.9805 140.164 48.7267C140.026 49.4729 139.657 50.1633 139.058 50.7979C138.56 51.3255 138.006 51.7126 137.395 51.9591C136.785 52.2056 136.151 52.3348 135.492 52.3469C134.834 52.3589 134.162 52.2985 133.479 52.1656C132.439 51.9389 131.455 51.8458 130.526 51.8864C129.598 51.9271 128.635 52.2184 127.638 52.7604C126.648 53.3092 125.52 54.2399 124.254 55.5527Z" fill="url(#paint2_linear_82_452)"/>
<path d="M118.616 61.7395C118.646 62.5502 118.954 63.2315 119.538 63.7835C119.93 64.1537 120.378 64.394 120.88 64.5043C121.383 64.6147 121.882 64.6003 122.377 64.4612C122.887 64.3217 123.326 64.0558 123.697 63.6637C124.249 63.079 124.506 62.3779 124.468 61.5605C124.445 60.7427 124.144 60.0611 123.567 59.5159C122.982 58.964 122.281 58.6998 121.463 58.7233C120.652 58.7398 119.97 59.0403 119.418 59.625C118.86 60.2169 118.592 60.9217 118.616 61.7395Z" fill="white"/>
<path d="M118.616 61.7395C118.646 62.5502 118.954 63.2315 119.538 63.7835C119.93 64.1537 120.378 64.394 120.88 64.5043C121.383 64.6147 121.882 64.6003 122.377 64.4612C122.887 64.3217 123.326 64.0558 123.697 63.6637C124.249 63.079 124.506 62.3779 124.468 61.5605C124.445 60.7427 124.144 60.0611 123.567 59.5159C122.982 58.964 122.281 58.6998 121.463 58.7233C120.652 58.7398 119.97 59.0403 119.418 59.625C118.86 60.2169 118.592 60.9217 118.616 61.7395Z" fill="url(#paint3_linear_82_452)"/>
<path d="M34.7079 89.2921C34.7079 66.3337 54.0412 47.0004 76.9995 47.0004C99.9579 47.0004 119.291 66.3337 119.291 89.2921C119.291 112.25 99.9579 131.584 76.9995 131.584C54.0412 131.584 34.7079 112.25 34.7079 89.2921Z" fill="white"/>
<path d="M34.7079 89.2921C34.7079 66.3337 54.0412 47.0004 76.9995 47.0004C99.9579 47.0004 119.291 66.3337 119.291 89.2921C119.291 112.25 99.9579 131.584 76.9995 131.584C54.0412 131.584 34.7079 112.25 34.7079 89.2921Z" fill="url(#paint4_linear_82_452)"/>
<path d="M76.9995 139.75C28.3781 139.75 6.64665 172.344 0.429688 184H153.569C147.352 172.344 125.621 139.75 76.9995 139.75Z" fill="white"/>
<path d="M76.9995 139.75C28.3781 139.75 6.64665 172.344 0.429688 184H153.569C147.352 172.344 125.621 139.75 76.9995 139.75Z" fill="url(#paint5_linear_82_452)"/>
<path d="M45.9369 45.0752L46.034 45.2386L48.4938 43.7778L48.3968 43.6144C48.0166 42.9482 47.7626 42.3506 47.6346 41.8216C47.5066 41.2926 47.4946 40.7762 47.5987 40.2723C47.7085 39.765 47.9169 39.2147 48.2238 38.6214C48.5559 38.0053 48.7863 37.3876 48.9149 36.7683C49.0493 36.1456 49.0653 35.5195 48.9629 34.89C48.8571 34.2547 48.6135 33.616 48.2322 32.9738C47.6771 32.0392 46.9711 31.3532 46.1142 30.9159C45.2596 30.4694 44.3209 30.2862 43.298 30.3662C42.2718 30.4405 41.2312 30.7909 40.1761 31.4174C39.2128 31.9895 38.4417 32.6957 37.8626 33.536C37.2892 34.3728 36.9746 35.2927 36.9186 36.2954C36.8591 37.2925 37.1158 38.319 37.6886 39.3749L40.3033 37.8221C39.9825 37.1905 39.8399 36.6043 39.8755 36.0635C39.9077 35.5169 40.07 35.0327 40.3624 34.6109C40.6548 34.1891 41.0218 33.847 41.4633 33.5848C41.9507 33.2954 42.4535 33.1364 42.9717 33.1079C43.4922 33.0702 43.9836 33.1662 44.4458 33.3959C44.9079 33.6256 45.2905 33.9956 45.5936 34.5059C45.8456 34.9302 45.9951 35.3649 46.0423 35.81C46.0895 36.2551 46.0555 36.6941 45.9403 37.1271C45.8251 37.56 45.6602 37.9876 45.4455 38.4098C45.103 39.0476 44.8583 39.6738 44.7114 40.2884C44.5645 40.9031 44.5751 41.587 44.7433 42.3404C44.9172 43.0903 45.315 44.0019 45.9369 45.0752Z" fill="white"/>
<path d="M45.9369 45.0752L46.034 45.2386L48.4938 43.7778L48.3968 43.6144C48.0166 42.9482 47.7626 42.3506 47.6346 41.8216C47.5066 41.2926 47.4946 40.7762 47.5987 40.2723C47.7085 39.765 47.9169 39.2147 48.2238 38.6214C48.5559 38.0053 48.7863 37.3876 48.9149 36.7683C49.0493 36.1456 49.0653 35.5195 48.9629 34.89C48.8571 34.2547 48.6135 33.616 48.2322 32.9738C47.6771 32.0392 46.9711 31.3532 46.1142 30.9159C45.2596 30.4694 44.3209 30.2862 43.298 30.3662C42.2718 30.4405 41.2312 30.7909 40.1761 31.4174C39.2128 31.9895 38.4417 32.6957 37.8626 33.536C37.2892 34.3728 36.9746 35.2927 36.9186 36.2954C36.8591 37.2925 37.1158 38.319 37.6886 39.3749L40.3033 37.8221C39.9825 37.1905 39.8399 36.6043 39.8755 36.0635C39.9077 35.5169 40.07 35.0327 40.3624 34.6109C40.6548 34.1891 41.0218 33.847 41.4633 33.5848C41.9507 33.2954 42.4535 33.1364 42.9717 33.1079C43.4922 33.0702 43.9836 33.1662 44.4458 33.3959C44.9079 33.6256 45.2905 33.9956 45.5936 34.5059C45.8456 34.9302 45.9951 35.3649 46.0423 35.81C46.0895 36.2551 46.0555 36.6941 45.9403 37.1271C45.8251 37.56 45.6602 37.9876 45.4455 38.4098C45.103 39.0476 44.8583 39.6738 44.7114 40.2884C44.5645 40.9031 44.5751 41.587 44.7433 42.3404C44.9172 43.0903 45.315 44.0019 45.9369 45.0752Z" fill="url(#paint6_linear_82_452)"/>
<path d="M48.9293 49.918C49.4651 50.0496 49.968 49.9759 50.4382 49.6966C50.7536 49.5093 50.9943 49.2617 51.1604 48.9536C51.3265 48.6456 51.4103 48.3166 51.4119 47.9666C51.4158 47.6075 51.3241 47.2703 51.1368 46.9549C50.8576 46.4847 50.4472 46.1855 49.9057 46.0573C49.3665 45.9199 48.8647 45.9891 48.4002 46.2649C47.9301 46.5441 47.6263 46.9533 47.4889 47.4925C47.3481 48.026 47.4173 48.5278 47.6965 48.998C47.9791 49.4739 48.3901 49.7806 48.9293 49.918Z" fill="white"/>
<path d="M48.9293 49.918C49.4651 50.0496 49.968 49.9759 50.4382 49.6966C50.7536 49.5093 50.9943 49.2617 51.1604 48.9536C51.3265 48.6456 51.4103 48.3166 51.4119 47.9666C51.4158 47.6075 51.3241 47.2703 51.1368 46.9549C50.8576 46.4847 50.4472 46.1855 49.9057 46.0573C49.3665 45.9199 48.8647 45.9891 48.4002 46.2649C47.9301 46.5441 47.6263 46.9533 47.4889 47.4925C47.3481 48.026 47.4173 48.5278 47.6965 48.998C47.9791 49.4739 48.3901 49.7806 48.9293 49.918Z" fill="url(#paint7_linear_82_452)"/>
<defs>
<linearGradient id="paint0_linear_82_452" x1="76.9995" y1="28.8025" x2="126.109" y2="30.0204" gradientUnits="userSpaceOnUse">
<stop stop-color="#FE8603"/>
<stop offset="1" stop-color="#E32E7F"/>
</linearGradient>
<linearGradient id="paint1_linear_82_452" x1="76.9995" y1="28.8025" x2="126.109" y2="30.0204" gradientUnits="userSpaceOnUse">
<stop stop-color="#FE8603"/>
<stop offset="1" stop-color="#E32E7F"/>
</linearGradient>
<linearGradient id="paint2_linear_82_452" x1="76.9995" y1="28.8025" x2="126.109" y2="30.0204" gradientUnits="userSpaceOnUse">
<stop stop-color="#FE8603"/>
<stop offset="1" stop-color="#E32E7F"/>
</linearGradient>
<linearGradient id="paint3_linear_82_452" x1="76.9995" y1="28.8025" x2="126.109" y2="30.0204" gradientUnits="userSpaceOnUse">
<stop stop-color="#FE8603"/>
<stop offset="1" stop-color="#E32E7F"/>
</linearGradient>
<linearGradient id="paint4_linear_82_452" x1="76.9995" y1="28.8025" x2="126.109" y2="30.0204" gradientUnits="userSpaceOnUse">
<stop stop-color="#FE8603"/>
<stop offset="1" stop-color="#E32E7F"/>
</linearGradient>
<linearGradient id="paint5_linear_82_452" x1="76.9995" y1="28.8025" x2="126.109" y2="30.0204" gradientUnits="userSpaceOnUse">
<stop stop-color="#FE8603"/>
<stop offset="1" stop-color="#E32E7F"/>
</linearGradient>
<linearGradient id="paint6_linear_82_452" x1="76.9995" y1="28.8025" x2="126.109" y2="30.0204" gradientUnits="userSpaceOnUse">
<stop stop-color="#FE8603"/>
<stop offset="1" stop-color="#E32E7F"/>
</linearGradient>
<linearGradient id="paint7_linear_82_452" x1="76.9995" y1="28.8025" x2="126.109" y2="30.0204" gradientUnits="userSpaceOnUse">
<stop stop-color="#FE8603"/>
<stop offset="1" stop-color="#E32E7F"/>
</linearGradient>
</defs>
</svg>
