<svg width="279" height="66" viewBox="0 0 279 66" fill="none" xmlns="http://www.w3.org/2000/svg">
<path fill-rule="evenodd" clip-rule="evenodd" d="M174.394 0.29547C172.574 0.947707 171.121 1.91393 169.561 3.51013C165.784 7.37339 165.149 12.3604 167.824 17.1515C169.845 20.7728 175.059 24.436 178.233 24.4649L178.274 24.4652V66H201.049C202.812 66 204.404 65.7081 205.824 65.1242C207.293 64.5403 208.542 63.6888 209.571 62.5698C210.648 61.4507 211.481 60.064 212.069 58.4097C212.656 56.7554 212.95 54.9065 212.95 52.8629V49.7976C212.95 48.1433 212.632 46.562 211.995 45.0537C211.358 43.4967 210.305 42.183 208.836 41.1126C209.914 39.9935 210.771 38.6799 211.407 37.1716C212.044 35.6632 212.363 34.1062 212.363 32.5006V28.4865C212.363 27.0496 212.175 25.7057 211.801 24.4547C214.993 24.2391 219.983 20.6754 221.95 17.1515C224.625 12.3604 223.99 7.37339 220.213 3.51013C218.653 1.91393 217.2 0.947707 215.38 0.29547C214.379 -0.0632269 212.941 -0.103183 212.622 0.218736C212.277 0.567444 212.964 1.05419 214.561 1.59087C217.361 2.53189 218.776 4.17149 219.299 7.08101C219.568 8.57914 219.238 11.0069 218.538 12.6728C217.999 13.956 216.754 15.2159 215.431 15.816C214.363 16.3007 211.345 16.2982 211.345 16.2982C211.345 16.2982 211.289 16.2981 211.192 16.3043H200.828C200.682 16.3002 200.535 16.2982 200.388 16.2982H178.434L178.429 16.2982C178.429 16.2982 175.411 16.3007 174.342 15.816C173.02 15.2159 171.774 13.956 171.236 12.6728C170.536 11.0069 170.206 8.57914 170.475 7.08101C170.998 4.17149 172.413 2.53189 175.212 1.59087C176.809 1.05419 177.497 0.567444 177.151 0.218736C176.832 -0.103183 175.395 -0.0632269 174.394 0.29547ZM186.943 36.9526H198.845C199.481 36.9526 200.094 36.8066 200.681 36.5147C201.269 36.2228 201.783 35.8335 202.224 35.347C202.714 34.8604 203.081 34.3009 203.326 33.6683C203.571 32.9872 203.693 32.2816 203.693 31.5518V30.822C203.693 30.0435 203.571 29.338 203.326 28.7054C203.081 28.0729 202.714 27.5134 202.224 27.0268C201.783 26.4916 201.269 26.078 200.681 25.7861C200.094 25.4942 199.481 25.3482 198.845 25.3482H186.943V36.9526ZM204.355 50.8194C204.355 50.0896 204.208 49.4084 203.914 48.7759C203.669 48.0947 203.326 47.5108 202.885 47.0243C202.445 46.5377 201.906 46.1484 201.269 45.8565C200.681 45.5646 200.069 45.4186 199.432 45.4186H186.943V56.8041H199.432C200.069 56.8041 200.681 56.6581 201.269 56.3661C201.906 56.0742 202.445 55.685 202.885 55.1984C203.326 54.7118 203.669 54.1523 203.914 53.5198C204.208 52.8386 204.355 52.1088 204.355 51.3303V50.8194ZM233.611 57.6799C234.835 57.6799 235.815 57.5339 236.55 57.242C237.333 56.95 237.946 56.5608 238.386 56.0742C238.876 55.5877 239.219 55.0038 239.415 54.3226C239.611 53.6414 239.709 52.9116 239.709 52.1331V28.8514H248.304V66H239.709V65.0512C238.925 65.3918 238.068 65.6351 237.137 65.781C236.256 65.927 235.301 66 234.272 66H230.525C228.321 66 226.387 65.6351 224.722 64.9052C223.105 64.1754 221.758 63.2266 220.681 62.0589C219.603 60.8425 218.771 59.4801 218.183 57.9718C217.644 56.4148 217.375 54.8578 217.375 53.3008V28.8514H225.897V51.5492C225.897 52.4251 225.97 53.2279 226.117 53.9577C226.264 54.6875 226.558 55.3444 226.999 55.9283C227.44 56.4635 228.052 56.9014 228.836 57.242C229.619 57.5339 230.672 57.6799 231.995 57.6799H233.611ZM263.144 16.2982H254.475V66H263.144V16.2982ZM270.331 16.2982H279V66H270.331V16.2982ZM33.136 36.905C33.7727 35.3967 34.0911 33.8397 34.0911 32.2341V28.22C34.0911 26.4197 33.7972 24.7654 33.2095 23.257C32.7963 22.1965 32.262 21.2443 31.6066 20.4003C31.8691 19.764 32.0067 19.0834 32.0118 18.3944C32.0171 17.6797 31.8797 16.97 31.6076 16.3059C31.3354 15.6417 30.9337 15.0362 30.4255 14.5238C29.9173 14.0114 29.3125 13.6022 28.6456 13.3195C27.9787 13.0368 27.2628 12.8863 26.5388 12.8764C25.8148 12.8665 25.0968 12.9974 24.4259 13.2618C23.7549 13.5261 23.1442 13.9187 22.6284 14.4171C22.1483 14.8812 21.7592 15.4285 21.4803 16.0316H10.5218C10.3403 15.6016 10.1034 15.1955 9.81641 14.8239C9.37882 14.2574 8.83319 13.782 8.21067 13.425C7.58814 13.0679 6.90092 12.8362 6.18824 12.7429C5.47557 12.6497 4.7514 12.6969 4.05706 12.8817C3.36272 13.0665 2.71183 13.3854 2.14154 13.8201C1.57126 14.2549 1.09275 14.7969 0.733346 15.4153C0.373927 16.0338 0.140651 16.7165 0.0468267 17.4245C0.0080128 17.7174 -0.0066176 18.0122 0.00273295 18.306V65.7337H22.7773C24.5405 65.7337 26.1322 65.4418 27.5526 64.8579C29.0219 64.274 30.2708 63.4226 31.2994 62.3035C32.3769 61.1844 33.2095 59.7977 33.7972 58.1434C34.385 56.4891 34.6788 54.6402 34.6788 52.5966V49.5313C34.6788 47.877 34.3604 46.2956 33.7237 44.7873C33.087 43.2303 32.034 41.9166 30.5647 40.8462C31.6422 39.7271 32.4993 38.4134 33.136 36.905ZM20.5733 36.6861H8.67175V25.0816H20.5733C21.21 25.0816 21.8222 25.2276 22.4099 25.5196C22.9977 25.8115 23.5119 26.2251 23.9527 26.7603C24.4425 27.2468 24.8098 27.8064 25.0547 28.4389C25.2996 29.0714 25.4221 29.777 25.4221 30.5554V31.2853C25.4221 32.0151 25.2996 32.7206 25.0547 33.4018C24.8098 34.0343 24.4425 34.5939 23.9527 35.0805C23.5119 35.567 22.9977 35.9563 22.4099 36.2482C21.8222 36.5401 21.21 36.6861 20.5733 36.6861ZM25.6425 48.5095C25.9363 49.142 26.0833 49.8232 26.0833 50.553V51.0639C26.0833 51.8424 25.9363 52.5723 25.6425 53.2534C25.3976 53.886 25.0547 54.4455 24.6139 54.9321C24.1731 55.4186 23.6344 55.8079 22.9977 56.0998C22.4099 56.3918 21.7977 56.5377 21.161 56.5377H8.67175V45.1522H21.161C21.7977 45.1522 22.4099 45.2982 22.9977 45.5901C23.6344 45.8821 24.1731 46.2713 24.6139 46.7579C25.0547 47.2444 25.3976 47.8283 25.6425 48.5095ZM38.3688 41.795C38.3688 39.9947 38.7116 38.3161 39.3973 36.7591C40.083 35.1534 40.9891 33.7424 42.1155 32.526C43.242 31.3096 44.5399 30.3608 46.0093 29.6796C47.4786 28.9498 48.9479 28.5849 50.4173 28.5849H58.7924C60.7025 28.5849 62.3923 28.9985 63.8616 29.8256C65.3799 30.6041 66.6288 31.6259 67.6084 32.8909C68.6369 34.1073 69.4205 35.494 69.9593 37.051C70.547 38.5593 70.8409 40.0434 70.8409 41.503V50.918H47.0378V52.8885C47.0378 54.6401 47.5276 55.8809 48.5071 56.6107C49.4867 57.3405 50.7846 57.7055 52.4008 57.7055H69.5185V65.8797H50.4907C48.8255 65.8797 47.2582 65.5634 45.7889 64.9309C44.3195 64.2497 43.0216 63.3496 41.8952 62.2305C40.8177 61.1114 39.9605 59.7733 39.3238 58.2164C38.6871 56.6594 38.3688 54.9564 38.3688 53.1075V41.795ZM47.1113 43.9845H62.3188V43.6196C62.3188 41.722 61.829 40.165 60.8495 38.9486C59.8699 37.6835 58.5475 37.051 56.8823 37.051H52.3274C51.5437 37.051 50.8336 37.2456 50.1969 37.6349C49.5602 37.9755 49.0214 38.4377 48.5806 39.0216C48.1398 39.6055 47.7724 40.311 47.4786 41.1381C47.2337 41.9166 47.1113 42.7438 47.1113 43.6196V43.9845ZM76.414 35.8833C75.8752 37.2943 75.5324 38.7783 75.3854 40.3353H83.9075C84.2014 39.1675 84.7646 38.3161 85.5973 37.7808C86.4299 37.197 87.8258 36.905 89.7849 36.905H91.6215C92.9439 36.905 93.9969 37.0753 94.7805 37.4159C95.5642 37.7079 96.1519 38.1214 96.5438 38.6567C96.9356 39.1919 97.2049 39.8487 97.3519 40.6272C97.4988 41.3571 97.5723 42.1599 97.5723 43.0357V43.7655H85.0095C83.4423 43.7655 82.0219 44.0575 80.7485 44.6413C79.5241 45.1766 78.4955 45.9307 77.6629 46.9038C76.8303 47.8283 76.1936 48.9474 75.7528 50.2611C75.312 51.5748 75.0916 52.9858 75.0916 54.4942C75.0916 56.0512 75.2875 57.5108 75.6793 58.8732C76.1201 60.2356 76.7568 61.4277 77.5895 62.4494C78.471 63.4226 79.5485 64.2254 80.822 64.8579C82.0954 65.4418 83.5402 65.7337 85.1565 65.7337H106.021V41.2841C106.021 39.7271 105.752 38.1944 105.213 36.6861C104.674 35.1291 103.866 33.7667 102.788 32.599C101.711 31.3826 100.339 30.4095 98.6743 29.6796C97.058 28.9498 95.1479 28.5849 92.9439 28.5849H88.5359C86.4299 28.5849 84.5687 28.9255 82.9525 29.6067C81.3362 30.2392 79.9893 31.0907 78.9118 32.1611C77.8343 33.2315 77.0017 34.4722 76.414 35.8833ZM83.6871 57.3406C83.1973 56.708 82.9525 55.7592 82.9525 54.4942C82.9525 53.2778 83.1973 52.3533 83.6871 51.7208C84.2259 51.0883 84.8137 50.772 85.4504 50.772H97.5723V58.2164H85.4504C84.8137 58.2164 84.2259 57.9244 83.6871 57.3406ZM121.109 36.1752C121.795 35.0561 122.701 34.083 123.827 33.2558C125.003 32.38 126.276 31.6502 127.648 31.0663C129.068 30.4825 130.562 30.0446 132.129 29.7526C133.696 29.4607 135.264 29.3147 136.831 29.3147H137.786V38.3647H136.831C135.068 38.3647 133.255 38.7296 131.394 39.4595C129.533 40.1407 127.819 41.0651 126.252 42.2329C124.733 43.352 123.484 44.617 122.505 46.028C121.574 47.4391 121.109 48.8501 121.109 50.2611V65.7337H111.999V47.0133V28.2929H121.109V36.1752ZM169.847 65.494H164.059L162.021 62.8081C161.743 63.2403 161.434 63.6417 161.095 64.0121C160.786 64.3517 160.431 64.6604 160.03 64.9383C159.659 65.2161 159.227 65.4322 158.733 65.5866C158.239 65.7409 157.653 65.8181 156.974 65.8181H150.583C149.811 65.8181 149.101 65.6637 148.453 65.355C147.836 65.0772 147.311 64.6759 146.878 64.151C146.446 63.6262 146.107 62.9933 145.86 62.2524C145.613 61.5115 145.489 60.6934 145.489 59.7981V53.3614C145.489 52.6822 145.659 52.0647 145.999 51.5091C146.338 50.9225 146.74 50.4131 147.203 49.9809C147.697 49.5178 148.191 49.1319 148.684 48.8232C149.209 48.4836 149.642 48.1749 149.981 47.8971C149.703 47.5266 149.379 47.1253 149.009 46.6931C148.638 46.23 148.299 45.736 147.99 45.2112C147.681 44.6555 147.403 44.069 147.156 43.4515C146.94 42.8032 146.817 42.1086 146.786 41.3677V39.0986C146.786 37.6476 146.94 36.4436 147.249 35.4866C147.558 34.4987 147.99 33.7115 148.546 33.1249C149.101 32.5075 149.78 32.0599 150.583 31.782C151.417 31.5042 152.374 31.3652 153.454 31.3652H156.974C159.227 31.3652 160.863 31.9981 161.882 33.2639C162.932 34.5296 163.457 36.4745 163.457 39.0986V41.7381C163.333 43.3435 162.731 44.7327 161.651 45.9058C160.601 47.0481 159.15 48.1749 157.298 49.2863L161.79 55.1674L164.614 50.6755L168.087 52.7594L164.383 58.8257L169.847 65.494ZM154.102 36.1349C152.621 36.1349 151.88 37.0919 151.88 39.006V41.3677C151.88 41.7073 151.988 42.0932 152.204 42.5254C152.42 42.9576 152.667 43.3898 152.945 43.822C153.223 44.2542 153.5 44.6401 153.778 44.9797C154.056 45.3193 154.272 45.5354 154.427 45.628C154.89 45.3501 155.353 45.0569 155.816 44.7481C156.31 44.4086 156.742 44.069 157.112 43.7294C157.483 43.3898 157.776 43.0656 157.992 42.7569C158.208 42.4173 158.332 42.0777 158.363 41.7381V39.006C158.363 37.9872 158.193 37.2617 157.853 36.8295C157.514 36.3665 156.943 36.1349 156.14 36.1349H154.102ZM151 60.5853C151.401 60.9558 151.941 61.141 152.621 61.141H155.955C156.356 61.141 156.711 61.0793 157.02 60.9558C157.329 60.8323 157.606 60.678 157.853 60.4927C158.1 60.2766 158.316 60.0605 158.502 59.8444C158.718 59.5975 158.888 59.3505 159.011 59.1035L153.269 51.3701C153.084 51.5245 152.821 51.7252 152.482 51.9721C152.173 52.1882 151.849 52.4352 151.509 52.7131C151.201 52.96 150.938 53.2224 150.722 53.5003C150.506 53.7473 150.398 53.9788 150.398 54.1949V58.6404C150.398 59.5357 150.599 60.184 151 60.5853Z" fill="white"/>
<path fill-rule="evenodd" clip-rule="evenodd" d="M174.394 0.29547C172.574 0.947707 171.121 1.91393 169.561 3.51013C165.784 7.37339 165.149 12.3604 167.824 17.1515C169.845 20.7728 175.059 24.436 178.233 24.4649L178.274 24.4652V66H201.049C202.812 66 204.404 65.7081 205.824 65.1242C207.293 64.5403 208.542 63.6888 209.571 62.5698C210.648 61.4507 211.481 60.064 212.069 58.4097C212.656 56.7554 212.95 54.9065 212.95 52.8629V49.7976C212.95 48.1433 212.632 46.562 211.995 45.0537C211.358 43.4967 210.305 42.183 208.836 41.1126C209.914 39.9935 210.771 38.6799 211.407 37.1716C212.044 35.6632 212.363 34.1062 212.363 32.5006V28.4865C212.363 27.0496 212.175 25.7057 211.801 24.4547C214.993 24.2391 219.983 20.6754 221.95 17.1515C224.625 12.3604 223.99 7.37339 220.213 3.51013C218.653 1.91393 217.2 0.947707 215.38 0.29547C214.379 -0.0632269 212.941 -0.103183 212.622 0.218736C212.277 0.567444 212.964 1.05419 214.561 1.59087C217.361 2.53189 218.776 4.17149 219.299 7.08101C219.568 8.57914 219.238 11.0069 218.538 12.6728C217.999 13.956 216.754 15.2159 215.431 15.816C214.363 16.3007 211.345 16.2982 211.345 16.2982C211.345 16.2982 211.289 16.2981 211.192 16.3043H200.828C200.682 16.3002 200.535 16.2982 200.388 16.2982H178.434L178.429 16.2982C178.429 16.2982 175.411 16.3007 174.342 15.816C173.02 15.2159 171.774 13.956 171.236 12.6728C170.536 11.0069 170.206 8.57914 170.475 7.08101C170.998 4.17149 172.413 2.53189 175.212 1.59087C176.809 1.05419 177.497 0.567444 177.151 0.218736C176.832 -0.103183 175.395 -0.0632269 174.394 0.29547ZM186.943 36.9526H198.845C199.481 36.9526 200.094 36.8066 200.681 36.5147C201.269 36.2228 201.783 35.8335 202.224 35.347C202.714 34.8604 203.081 34.3009 203.326 33.6683C203.571 32.9872 203.693 32.2816 203.693 31.5518V30.822C203.693 30.0435 203.571 29.338 203.326 28.7054C203.081 28.0729 202.714 27.5134 202.224 27.0268C201.783 26.4916 201.269 26.078 200.681 25.7861C200.094 25.4942 199.481 25.3482 198.845 25.3482H186.943V36.9526ZM204.355 50.8194C204.355 50.0896 204.208 49.4084 203.914 48.7759C203.669 48.0947 203.326 47.5108 202.885 47.0243C202.445 46.5377 201.906 46.1484 201.269 45.8565C200.681 45.5646 200.069 45.4186 199.432 45.4186H186.943V56.8041H199.432C200.069 56.8041 200.681 56.6581 201.269 56.3661C201.906 56.0742 202.445 55.685 202.885 55.1984C203.326 54.7118 203.669 54.1523 203.914 53.5198C204.208 52.8386 204.355 52.1088 204.355 51.3303V50.8194ZM233.611 57.6799C234.835 57.6799 235.815 57.5339 236.55 57.242C237.333 56.95 237.946 56.5608 238.386 56.0742C238.876 55.5877 239.219 55.0038 239.415 54.3226C239.611 53.6414 239.709 52.9116 239.709 52.1331V28.8514H248.304V66H239.709V65.0512C238.925 65.3918 238.068 65.6351 237.137 65.781C236.256 65.927 235.301 66 234.272 66H230.525C228.321 66 226.387 65.6351 224.722 64.9052C223.105 64.1754 221.758 63.2266 220.681 62.0589C219.603 60.8425 218.771 59.4801 218.183 57.9718C217.644 56.4148 217.375 54.8578 217.375 53.3008V28.8514H225.897V51.5492C225.897 52.4251 225.97 53.2279 226.117 53.9577C226.264 54.6875 226.558 55.3444 226.999 55.9283C227.44 56.4635 228.052 56.9014 228.836 57.242C229.619 57.5339 230.672 57.6799 231.995 57.6799H233.611ZM263.144 16.2982H254.475V66H263.144V16.2982ZM270.331 16.2982H279V66H270.331V16.2982ZM33.136 36.905C33.7727 35.3967 34.0911 33.8397 34.0911 32.2341V28.22C34.0911 26.4197 33.7972 24.7654 33.2095 23.257C32.7963 22.1965 32.262 21.2443 31.6066 20.4003C31.8691 19.764 32.0067 19.0834 32.0118 18.3944C32.0171 17.6797 31.8797 16.97 31.6076 16.3059C31.3354 15.6417 30.9337 15.0362 30.4255 14.5238C29.9173 14.0114 29.3125 13.6022 28.6456 13.3195C27.9787 13.0368 27.2628 12.8863 26.5388 12.8764C25.8148 12.8665 25.0968 12.9974 24.4259 13.2618C23.7549 13.5261 23.1442 13.9187 22.6284 14.4171C22.1483 14.8812 21.7592 15.4285 21.4803 16.0316H10.5218C10.3403 15.6016 10.1034 15.1955 9.81641 14.8239C9.37882 14.2574 8.83319 13.782 8.21067 13.425C7.58814 13.0679 6.90092 12.8362 6.18824 12.7429C5.47557 12.6497 4.7514 12.6969 4.05706 12.8817C3.36272 13.0665 2.71183 13.3854 2.14154 13.8201C1.57126 14.2549 1.09275 14.7969 0.733346 15.4153C0.373927 16.0338 0.140651 16.7165 0.0468267 17.4245C0.0080128 17.7174 -0.0066176 18.0122 0.00273295 18.306V65.7337H22.7773C24.5405 65.7337 26.1322 65.4418 27.5526 64.8579C29.0219 64.274 30.2708 63.4226 31.2994 62.3035C32.3769 61.1844 33.2095 59.7977 33.7972 58.1434C34.385 56.4891 34.6788 54.6402 34.6788 52.5966V49.5313C34.6788 47.877 34.3604 46.2956 33.7237 44.7873C33.087 43.2303 32.034 41.9166 30.5647 40.8462C31.6422 39.7271 32.4993 38.4134 33.136 36.905ZM20.5733 36.6861H8.67175V25.0816H20.5733C21.21 25.0816 21.8222 25.2276 22.4099 25.5196C22.9977 25.8115 23.5119 26.2251 23.9527 26.7603C24.4425 27.2468 24.8098 27.8064 25.0547 28.4389C25.2996 29.0714 25.4221 29.777 25.4221 30.5554V31.2853C25.4221 32.0151 25.2996 32.7206 25.0547 33.4018C24.8098 34.0343 24.4425 34.5939 23.9527 35.0805C23.5119 35.567 22.9977 35.9563 22.4099 36.2482C21.8222 36.5401 21.21 36.6861 20.5733 36.6861ZM25.6425 48.5095C25.9363 49.142 26.0833 49.8232 26.0833 50.553V51.0639C26.0833 51.8424 25.9363 52.5723 25.6425 53.2534C25.3976 53.886 25.0547 54.4455 24.6139 54.9321C24.1731 55.4186 23.6344 55.8079 22.9977 56.0998C22.4099 56.3918 21.7977 56.5377 21.161 56.5377H8.67175V45.1522H21.161C21.7977 45.1522 22.4099 45.2982 22.9977 45.5901C23.6344 45.8821 24.1731 46.2713 24.6139 46.7579C25.0547 47.2444 25.3976 47.8283 25.6425 48.5095ZM38.3688 41.795C38.3688 39.9947 38.7116 38.3161 39.3973 36.7591C40.083 35.1534 40.9891 33.7424 42.1155 32.526C43.242 31.3096 44.5399 30.3608 46.0093 29.6796C47.4786 28.9498 48.9479 28.5849 50.4173 28.5849H58.7924C60.7025 28.5849 62.3923 28.9985 63.8616 29.8256C65.3799 30.6041 66.6288 31.6259 67.6084 32.8909C68.6369 34.1073 69.4205 35.494 69.9593 37.051C70.547 38.5593 70.8409 40.0434 70.8409 41.503V50.918H47.0378V52.8885C47.0378 54.6401 47.5276 55.8809 48.5071 56.6107C49.4867 57.3405 50.7846 57.7055 52.4008 57.7055H69.5185V65.8797H50.4907C48.8255 65.8797 47.2582 65.5634 45.7889 64.9309C44.3195 64.2497 43.0216 63.3496 41.8952 62.2305C40.8177 61.1114 39.9605 59.7733 39.3238 58.2164C38.6871 56.6594 38.3688 54.9564 38.3688 53.1075V41.795ZM47.1113 43.9845H62.3188V43.6196C62.3188 41.722 61.829 40.165 60.8495 38.9486C59.8699 37.6835 58.5475 37.051 56.8823 37.051H52.3274C51.5437 37.051 50.8336 37.2456 50.1969 37.6349C49.5602 37.9755 49.0214 38.4377 48.5806 39.0216C48.1398 39.6055 47.7724 40.311 47.4786 41.1381C47.2337 41.9166 47.1113 42.7438 47.1113 43.6196V43.9845ZM76.414 35.8833C75.8752 37.2943 75.5324 38.7783 75.3854 40.3353H83.9075C84.2014 39.1675 84.7646 38.3161 85.5973 37.7808C86.4299 37.197 87.8258 36.905 89.7849 36.905H91.6215C92.9439 36.905 93.9969 37.0753 94.7805 37.4159C95.5642 37.7079 96.1519 38.1214 96.5438 38.6567C96.9356 39.1919 97.2049 39.8487 97.3519 40.6272C97.4988 41.3571 97.5723 42.1599 97.5723 43.0357V43.7655H85.0095C83.4423 43.7655 82.0219 44.0575 80.7485 44.6413C79.5241 45.1766 78.4955 45.9307 77.6629 46.9038C76.8303 47.8283 76.1936 48.9474 75.7528 50.2611C75.312 51.5748 75.0916 52.9858 75.0916 54.4942C75.0916 56.0512 75.2875 57.5108 75.6793 58.8732C76.1201 60.2356 76.7568 61.4277 77.5895 62.4494C78.471 63.4226 79.5485 64.2254 80.822 64.8579C82.0954 65.4418 83.5402 65.7337 85.1565 65.7337H106.021V41.2841C106.021 39.7271 105.752 38.1944 105.213 36.6861C104.674 35.1291 103.866 33.7667 102.788 32.599C101.711 31.3826 100.339 30.4095 98.6743 29.6796C97.058 28.9498 95.1479 28.5849 92.9439 28.5849H88.5359C86.4299 28.5849 84.5687 28.9255 82.9525 29.6067C81.3362 30.2392 79.9893 31.0907 78.9118 32.1611C77.8343 33.2315 77.0017 34.4722 76.414 35.8833ZM83.6871 57.3406C83.1973 56.708 82.9525 55.7592 82.9525 54.4942C82.9525 53.2778 83.1973 52.3533 83.6871 51.7208C84.2259 51.0883 84.8137 50.772 85.4504 50.772H97.5723V58.2164H85.4504C84.8137 58.2164 84.2259 57.9244 83.6871 57.3406ZM121.109 36.1752C121.795 35.0561 122.701 34.083 123.827 33.2558C125.003 32.38 126.276 31.6502 127.648 31.0663C129.068 30.4825 130.562 30.0446 132.129 29.7526C133.696 29.4607 135.264 29.3147 136.831 29.3147H137.786V38.3647H136.831C135.068 38.3647 133.255 38.7296 131.394 39.4595C129.533 40.1407 127.819 41.0651 126.252 42.2329C124.733 43.352 123.484 44.617 122.505 46.028C121.574 47.4391 121.109 48.8501 121.109 50.2611V65.7337H111.999V47.0133V28.2929H121.109V36.1752ZM169.847 65.494H164.059L162.021 62.8081C161.743 63.2403 161.434 63.6417 161.095 64.0121C160.786 64.3517 160.431 64.6604 160.03 64.9383C159.659 65.2161 159.227 65.4322 158.733 65.5866C158.239 65.7409 157.653 65.8181 156.974 65.8181H150.583C149.811 65.8181 149.101 65.6637 148.453 65.355C147.836 65.0772 147.311 64.6759 146.878 64.151C146.446 63.6262 146.107 62.9933 145.86 62.2524C145.613 61.5115 145.489 60.6934 145.489 59.7981V53.3614C145.489 52.6822 145.659 52.0647 145.999 51.5091C146.338 50.9225 146.74 50.4131 147.203 49.9809C147.697 49.5178 148.191 49.1319 148.684 48.8232C149.209 48.4836 149.642 48.1749 149.981 47.8971C149.703 47.5266 149.379 47.1253 149.009 46.6931C148.638 46.23 148.299 45.736 147.99 45.2112C147.681 44.6555 147.403 44.069 147.156 43.4515C146.94 42.8032 146.817 42.1086 146.786 41.3677V39.0986C146.786 37.6476 146.94 36.4436 147.249 35.4866C147.558 34.4987 147.99 33.7115 148.546 33.1249C149.101 32.5075 149.78 32.0599 150.583 31.782C151.417 31.5042 152.374 31.3652 153.454 31.3652H156.974C159.227 31.3652 160.863 31.9981 161.882 33.2639C162.932 34.5296 163.457 36.4745 163.457 39.0986V41.7381C163.333 43.3435 162.731 44.7327 161.651 45.9058C160.601 47.0481 159.15 48.1749 157.298 49.2863L161.79 55.1674L164.614 50.6755L168.087 52.7594L164.383 58.8257L169.847 65.494ZM154.102 36.1349C152.621 36.1349 151.88 37.0919 151.88 39.006V41.3677C151.88 41.7073 151.988 42.0932 152.204 42.5254C152.42 42.9576 152.667 43.3898 152.945 43.822C153.223 44.2542 153.5 44.6401 153.778 44.9797C154.056 45.3193 154.272 45.5354 154.427 45.628C154.89 45.3501 155.353 45.0569 155.816 44.7481C156.31 44.4086 156.742 44.069 157.112 43.7294C157.483 43.3898 157.776 43.0656 157.992 42.7569C158.208 42.4173 158.332 42.0777 158.363 41.7381V39.006C158.363 37.9872 158.193 37.2617 157.853 36.8295C157.514 36.3665 156.943 36.1349 156.14 36.1349H154.102ZM151 60.5853C151.401 60.9558 151.941 61.141 152.621 61.141H155.955C156.356 61.141 156.711 61.0793 157.02 60.9558C157.329 60.8323 157.606 60.678 157.853 60.4927C158.1 60.2766 158.316 60.0605 158.502 59.8444C158.718 59.5975 158.888 59.3505 159.011 59.1035L153.269 51.3701C153.084 51.5245 152.821 51.7252 152.482 51.9721C152.173 52.1882 151.849 52.4352 151.509 52.7131C151.201 52.96 150.938 53.2224 150.722 53.5003C150.506 53.7473 150.398 53.9788 150.398 54.1949V58.6404C150.398 59.5357 150.599 60.184 151 60.5853Z" fill="url(#paint0_linear_76_457)"/>
<defs>
<linearGradient id="paint0_linear_76_457" x1="30.0001" y1="25.6815" x2="278.448" y2="105.951" gradientUnits="userSpaceOnUse">
<stop stop-color="#FE8603"/>
<stop offset="1" stop-color="#E32E7F"/>
</linearGradient>
</defs>
</svg>
