<svg width="132" height="32" viewBox="0 0 132 32" fill="none" xmlns="http://www.w3.org/2000/svg">
<path fill-rule="evenodd" clip-rule="evenodd" d="M77.6415 31.8444H80.4138L77.7967 28.6507L79.571 25.7453L77.9076 24.7473L76.5548 26.8986L74.4035 24.082C75.2906 23.5497 75.9855 23.01 76.4882 22.463C77.0057 21.9011 77.294 21.2358 77.3532 20.4669V19.2028C77.3532 17.946 77.1018 17.0145 76.5991 16.4083C76.1112 15.8021 75.3276 15.499 74.2482 15.499H72.5627C72.0452 15.499 71.5869 15.5656 71.1876 15.6986C70.8032 15.8317 70.4779 16.0461 70.2118 16.3418C69.9457 16.6227 69.7387 16.9997 69.5908 17.4729C69.443 17.9312 69.369 18.5079 69.369 19.2028V20.2895C69.3838 20.6444 69.443 20.977 69.5465 21.2875C69.6647 21.5832 69.7978 21.8642 69.9457 22.1303C70.0935 22.3817 70.2562 22.6182 70.4336 22.84C70.611 23.047 70.7663 23.2392 70.8993 23.4166C70.7367 23.5497 70.5297 23.6976 70.2783 23.8602C70.0418 24.0081 69.8052 24.1929 69.5686 24.4147C69.3469 24.6217 69.1546 24.8656 68.992 25.1465C68.8294 25.4127 68.748 25.7084 68.748 26.0337V29.1164C68.748 29.5452 68.8072 29.937 68.9255 30.2919C69.0438 30.6467 69.2064 30.9498 69.4134 31.2012C69.6204 31.4525 69.8717 31.6447 70.1674 31.7778C70.4779 31.9257 70.818 31.9996 71.1876 31.9996H74.2482C74.5735 31.9996 74.8544 31.9626 75.091 31.8887C75.3276 31.8148 75.5346 31.7113 75.712 31.5782C75.9042 31.4451 76.0742 31.2973 76.2221 31.1347C76.3847 30.9572 76.5326 30.765 76.6657 30.558L77.6415 31.8444ZM71.8086 19.1584C71.8086 18.2417 72.1635 17.7834 72.8732 17.7834H73.849C74.2335 17.7834 74.507 17.8943 74.6696 18.1161C74.8323 18.323 74.9136 18.6705 74.9136 19.1584V20.4669C74.8988 20.6296 74.8397 20.7922 74.7362 20.9549C74.6327 21.1027 74.4922 21.258 74.3148 21.4206C74.1373 21.5832 73.9304 21.7459 73.6938 21.9085C73.472 22.0564 73.2502 22.1968 73.0284 22.3299C72.9545 22.2856 72.851 22.1821 72.7179 22.0194C72.5849 21.8568 72.4518 21.672 72.3187 21.465C72.1857 21.258 72.0674 21.051 71.9639 20.844C71.8604 20.637 71.8086 20.4522 71.8086 20.2895V19.1584ZM72.1635 29.7596C71.8382 29.7596 71.5795 29.6709 71.3872 29.4935C71.195 29.3012 71.0989 28.9908 71.0989 28.562V26.4329C71.0989 26.3294 71.1507 26.2185 71.2542 26.1002C71.3577 25.9671 71.4834 25.8415 71.6312 25.7232C71.7939 25.5901 71.9491 25.4718 72.097 25.3683C72.2596 25.25 72.3853 25.1539 72.474 25.08L75.2241 28.7838C75.1649 28.902 75.0836 29.0203 74.9801 29.1386C74.8914 29.2421 74.7879 29.3456 74.6696 29.4491C74.5513 29.5378 74.4183 29.6117 74.2704 29.6709C74.1226 29.73 73.9525 29.7596 73.7603 29.7596H72.1635Z" fill="white"/>
<path fill-rule="evenodd" clip-rule="evenodd" d="M79.6058 1.68418C80.3495 0.918311 81.0419 0.454717 81.9095 0.141769C82.3867 -0.0303365 83.0719 -0.0495078 83.224 0.104951C83.3887 0.272263 83.0609 0.505803 82.2998 0.763307C80.9652 1.21481 80.2908 2.00148 80.0416 3.39749C79.9133 4.11631 80.0707 5.28118 80.4042 6.08048C80.661 6.69614 81.2546 7.30068 81.885 7.58858C82.3942 7.82114 83.833 7.81994 83.833 7.81994L83.8351 7.81995H94.2996C94.3701 7.81995 94.44 7.82094 94.5095 7.82291H99.4495C99.4958 7.81992 99.5224 7.81994 99.5224 7.81994C99.5224 7.81994 100.961 7.82114 101.47 7.58858C102.101 7.30068 102.694 6.69614 102.951 6.08048C103.285 5.28118 103.442 4.11631 103.314 3.39749C103.065 2.00148 102.39 1.21481 101.056 0.763307C100.294 0.505803 99.9667 0.272263 100.131 0.104951C100.283 -0.0495078 100.969 -0.0303365 101.446 0.141769C102.313 0.454717 103.006 0.918311 103.75 1.68418C105.55 3.53779 105.852 5.9306 104.577 8.2294C103.64 9.92018 101.261 11.63 99.7399 11.7335C99.9184 12.3337 100.008 12.9786 100.008 13.668V15.594C100.008 16.3644 99.8559 17.1114 99.5524 17.8352C99.2489 18.5589 98.8403 19.1892 98.3267 19.7261C99.0271 20.2397 99.529 20.8701 99.8325 21.6171C100.136 22.3408 100.288 23.0996 100.288 23.8933V25.3641C100.288 26.3446 100.148 27.2317 99.8675 28.0254C99.5874 28.8192 99.1905 29.4845 98.6769 30.0215C98.1867 30.5584 97.5913 30.967 96.891 31.2471C96.214 31.5273 95.4552 31.6673 94.6148 31.6673H83.7592V11.7385L83.7396 11.7384C82.2267 11.7245 79.7414 9.9669 78.7779 8.2294C77.503 5.9306 77.8056 3.53779 79.6058 1.68418ZM93.5643 17.7301H87.8913V12.1622H93.5643C93.8677 12.1622 94.1596 12.2322 94.4397 12.3723C94.7199 12.5124 94.965 12.7108 95.1751 12.9676C95.4085 13.2011 95.5836 13.4696 95.7004 13.773C95.8171 14.0765 95.8755 14.415 95.8755 14.7886V15.1388C95.8755 15.4889 95.8171 15.8275 95.7004 16.1543C95.5836 16.4578 95.4085 16.7262 95.1751 16.9597C94.965 17.1932 94.7199 17.3799 94.4397 17.52C94.1596 17.6601 93.8677 17.7301 93.5643 17.7301ZM95.9805 23.4031C96.1206 23.7065 96.1906 24.0334 96.1906 24.3836V24.6287C96.1906 25.0022 96.1206 25.3524 95.9805 25.6792C95.8638 25.9827 95.7004 26.2512 95.4902 26.4847C95.2801 26.7181 95.0233 26.9049 94.7198 27.0449C94.4397 27.185 94.1479 27.2551 93.8444 27.2551H87.8913V21.7922H93.8444C94.1479 21.7922 94.4397 21.8623 94.7198 22.0023C95.0233 22.1424 95.2801 22.3292 95.4902 22.5626C95.7004 22.7961 95.8638 23.0762 95.9805 23.4031Z" fill="url(#paint0_linear_173_648)"/>
<path fill-rule="evenodd" clip-rule="evenodd" d="M79.6058 1.68418C80.3495 0.918311 81.0419 0.454717 81.9095 0.141769C82.3867 -0.0303365 83.0719 -0.0495078 83.224 0.104951C83.3887 0.272263 83.0609 0.505803 82.2998 0.763307C80.9652 1.21481 80.2908 2.00148 80.0416 3.39749C79.9133 4.11631 80.0707 5.28118 80.4042 6.08048C80.661 6.69614 81.2546 7.30068 81.885 7.58858C82.3942 7.82114 83.833 7.81994 83.833 7.81994L83.8351 7.81995H94.2996C94.3701 7.81995 94.44 7.82094 94.5095 7.82291H99.4495C99.4958 7.81992 99.5224 7.81994 99.5224 7.81994C99.5224 7.81994 100.961 7.82114 101.47 7.58858C102.101 7.30068 102.694 6.69614 102.951 6.08048C103.285 5.28118 103.442 4.11631 103.314 3.39749C103.065 2.00148 102.39 1.21481 101.056 0.763307C100.294 0.505803 99.9667 0.272263 100.131 0.104951C100.283 -0.0495078 100.969 -0.0303365 101.446 0.141769C102.313 0.454717 103.006 0.918311 103.75 1.68418C105.55 3.53779 105.852 5.9306 104.577 8.2294C103.64 9.92018 101.261 11.63 99.7399 11.7335C99.9184 12.3337 100.008 12.9786 100.008 13.668V15.594C100.008 16.3644 99.8559 17.1114 99.5524 17.8352C99.2489 18.5589 98.8403 19.1892 98.3267 19.7261C99.0271 20.2397 99.529 20.8701 99.8325 21.6171C100.136 22.3408 100.288 23.0996 100.288 23.8933V25.3641C100.288 26.3446 100.148 27.2317 99.8675 28.0254C99.5874 28.8192 99.1905 29.4845 98.6769 30.0215C98.1867 30.5584 97.5913 30.967 96.891 31.2471C96.214 31.5273 95.4552 31.6673 94.6148 31.6673H83.7592V11.7385L83.7396 11.7384C82.2267 11.7245 79.7414 9.9669 78.7779 8.2294C77.503 5.9306 77.8056 3.53779 79.6058 1.68418ZM93.5643 17.7301H87.8913V12.1622H93.5643C93.8677 12.1622 94.1596 12.2322 94.4397 12.3723C94.7199 12.5124 94.965 12.7108 95.1751 12.9676C95.4085 13.2011 95.5836 13.4696 95.7004 13.773C95.8171 14.0765 95.8755 14.415 95.8755 14.7886V15.1388C95.8755 15.4889 95.8171 15.8275 95.7004 16.1543C95.5836 16.4578 95.4085 16.7262 95.1751 16.9597C94.965 17.1932 94.7199 17.3799 94.4397 17.52C94.1596 17.6601 93.8677 17.7301 93.5643 17.7301ZM95.9805 23.4031C96.1206 23.7065 96.1906 24.0334 96.1906 24.3836V24.6287C96.1906 25.0022 96.1206 25.3524 95.9805 25.6792C95.8638 25.9827 95.7004 26.2512 95.4902 26.4847C95.2801 26.7181 95.0233 26.9049 94.7198 27.0449C94.4397 27.185 94.1479 27.2551 93.8444 27.2551H87.8913V21.7922H93.8444C94.1479 21.7922 94.4397 21.8623 94.7198 22.0023C95.0233 22.1424 95.2801 22.3292 95.4902 22.5626C95.7004 22.7961 95.8638 23.0762 95.9805 23.4031Z" fill="url(#paint1_linear_173_648)"/>
<path d="M111.537 27.4652C111.186 27.6052 110.719 27.6753 110.136 27.6753H109.365C108.735 27.6753 108.233 27.6052 107.86 27.4652C107.486 27.3017 107.194 27.0916 106.984 26.8348C106.774 26.5547 106.634 26.2395 106.564 25.8893C106.494 25.5392 106.459 25.154 106.459 24.7337V13.8431H102.397V25.5742C102.397 26.3212 102.525 27.0683 102.782 27.8153C103.062 28.539 103.459 29.1927 103.973 29.7764C104.486 30.3367 105.128 30.7919 105.899 31.1421C106.692 31.4923 107.614 31.6673 108.665 31.6673H110.451C110.941 31.6673 111.396 31.6323 111.817 31.5623C112.26 31.4923 112.669 31.3755 113.042 31.2121V31.6673H117.139V13.8431H113.042V25.0139C113.042 25.3874 112.996 25.7376 112.902 26.0644C112.809 26.3913 112.645 26.6714 112.412 26.9049C112.202 27.1383 111.91 27.3251 111.537 27.4652Z" fill="url(#paint2_linear_173_648)"/>
<path d="M111.537 27.4652C111.186 27.6052 110.719 27.6753 110.136 27.6753H109.365C108.735 27.6753 108.233 27.6052 107.86 27.4652C107.486 27.3017 107.194 27.0916 106.984 26.8348C106.774 26.5547 106.634 26.2395 106.564 25.8893C106.494 25.5392 106.459 25.154 106.459 24.7337V13.8431H102.397V25.5742C102.397 26.3212 102.525 27.0683 102.782 27.8153C103.062 28.539 103.459 29.1927 103.973 29.7764C104.486 30.3367 105.128 30.7919 105.899 31.1421C106.692 31.4923 107.614 31.6673 108.665 31.6673H110.451C110.941 31.6673 111.396 31.6323 111.817 31.5623C112.26 31.4923 112.669 31.3755 113.042 31.2121V31.6673H117.139V13.8431H113.042V25.0139C113.042 25.3874 112.996 25.7376 112.902 26.0644C112.809 26.3913 112.645 26.6714 112.412 26.9049C112.202 27.1383 111.91 27.3251 111.537 27.4652Z" fill="url(#paint3_linear_173_648)"/>
<path d="M124.213 7.81995H120.081V31.6673H124.213V7.81995Z" fill="url(#paint4_linear_173_648)"/>
<path d="M124.213 7.81995H120.081V31.6673H124.213V7.81995Z" fill="url(#paint5_linear_173_648)"/>
<path d="M131.771 7.81995H127.639V31.6673H131.771V7.81995Z" fill="url(#paint6_linear_173_648)"/>
<path d="M131.771 7.81995H127.639V31.6673H131.771V7.81995Z" fill="url(#paint7_linear_173_648)"/>
<path fill-rule="evenodd" clip-rule="evenodd" d="M16.1343 17.8352C16.4378 17.1115 16.5896 16.3644 16.5896 15.594V13.668C16.5896 12.8042 16.4495 12.0105 16.1694 11.2868C15.9724 10.7779 15.7177 10.321 15.4054 9.91608C15.5305 9.6108 15.596 9.28422 15.5985 8.95365C15.601 8.61071 15.5355 8.2702 15.4058 7.95156C15.2761 7.63291 15.0846 7.34236 14.8424 7.09651C14.6001 6.85066 14.3118 6.65432 13.994 6.51869C13.6761 6.38306 13.3349 6.31081 12.9897 6.30606C12.6446 6.30131 12.3024 6.36415 11.9826 6.49099C11.6628 6.61784 11.3717 6.8062 11.1258 7.04533C10.897 7.26798 10.7115 7.53058 10.5786 7.81998H5.35514C5.26862 7.61363 5.15572 7.41881 5.01891 7.24051C4.81033 6.96869 4.55025 6.7406 4.25351 6.56928C3.95678 6.39796 3.62922 6.28677 3.28952 6.24205C2.94982 6.19733 2.60463 6.21995 2.27367 6.30863C1.94271 6.39731 1.63246 6.55031 1.36063 6.75889C1.0888 6.96748 0.860709 7.22756 0.689397 7.52429C0.518077 7.82102 0.406894 8.14858 0.362172 8.48829C0.343671 8.6288 0.336689 8.77026 0.341146 8.91126V31.6674H11.1968C12.0372 31.6674 12.796 31.5273 13.473 31.2472C14.1733 30.967 14.7686 30.5585 15.2589 30.0215C15.7725 29.4846 16.1694 28.8192 16.4495 28.0255C16.7297 27.2317 16.8697 26.3446 16.8697 25.3641V23.8933C16.8697 23.0996 16.718 22.3409 16.4145 21.6172C16.111 20.8701 15.6091 20.2398 14.9087 19.7262C15.4223 19.1892 15.8309 18.5589 16.1343 17.8352ZM10.1462 17.7301H4.47329V12.1622H10.1462C10.4497 12.1622 10.7415 12.2323 11.0217 12.3723C11.3018 12.5124 11.547 12.7109 11.7571 12.9677C11.9905 13.2011 12.1656 13.4696 12.2824 13.7731C12.3991 14.0766 12.4574 14.4151 12.4574 14.7886V15.1388C12.4574 15.489 12.3991 15.8275 12.2824 16.1543C12.1656 16.4578 11.9905 16.7263 11.7571 16.9597C11.547 17.1932 11.3018 17.38 11.0217 17.52C10.7415 17.6601 10.4497 17.7301 10.1462 17.7301ZM12.5625 23.4031C12.7026 23.7066 12.7726 24.0334 12.7726 24.3836V24.6287C12.7726 25.0023 12.7026 25.3524 12.5625 25.6793C12.4458 25.9828 12.2824 26.2512 12.0722 26.4847C11.8621 26.7181 11.6053 26.9049 11.3018 27.045C11.0217 27.185 10.7299 27.2551 10.4264 27.2551H4.47329V21.7922H10.4264C10.7299 21.7922 11.0217 21.8623 11.3018 22.0024C11.6053 22.1424 11.8621 22.3292 12.0722 22.5626C12.2824 22.7961 12.4458 23.0762 12.5625 23.4031Z" fill="url(#paint8_linear_173_648)"/>
<path fill-rule="evenodd" clip-rule="evenodd" d="M16.1343 17.8352C16.4378 17.1115 16.5896 16.3644 16.5896 15.594V13.668C16.5896 12.8042 16.4495 12.0105 16.1694 11.2868C15.9724 10.7779 15.7177 10.321 15.4054 9.91608C15.5305 9.6108 15.596 9.28422 15.5985 8.95365C15.601 8.61071 15.5355 8.2702 15.4058 7.95156C15.2761 7.63291 15.0846 7.34236 14.8424 7.09651C14.6001 6.85066 14.3118 6.65432 13.994 6.51869C13.6761 6.38306 13.3349 6.31081 12.9897 6.30606C12.6446 6.30131 12.3024 6.36415 11.9826 6.49099C11.6628 6.61784 11.3717 6.8062 11.1258 7.04533C10.897 7.26798 10.7115 7.53058 10.5786 7.81998H5.35514C5.26862 7.61363 5.15572 7.41881 5.01891 7.24051C4.81033 6.96869 4.55025 6.7406 4.25351 6.56928C3.95678 6.39796 3.62922 6.28677 3.28952 6.24205C2.94982 6.19733 2.60463 6.21995 2.27367 6.30863C1.94271 6.39731 1.63246 6.55031 1.36063 6.75889C1.0888 6.96748 0.860709 7.22756 0.689397 7.52429C0.518077 7.82102 0.406894 8.14858 0.362172 8.48829C0.343671 8.6288 0.336689 8.77026 0.341146 8.91126V31.6674H11.1968C12.0372 31.6674 12.796 31.5273 13.473 31.2472C14.1733 30.967 14.7686 30.5585 15.2589 30.0215C15.7725 29.4846 16.1694 28.8192 16.4495 28.0255C16.7297 27.2317 16.8697 26.3446 16.8697 25.3641V23.8933C16.8697 23.0996 16.718 22.3409 16.4145 21.6172C16.111 20.8701 15.6091 20.2398 14.9087 19.7262C15.4223 19.1892 15.8309 18.5589 16.1343 17.8352ZM10.1462 17.7301H4.47329V12.1622H10.1462C10.4497 12.1622 10.7415 12.2323 11.0217 12.3723C11.3018 12.5124 11.547 12.7109 11.7571 12.9677C11.9905 13.2011 12.1656 13.4696 12.2824 13.7731C12.3991 14.0766 12.4574 14.4151 12.4574 14.7886V15.1388C12.4574 15.489 12.3991 15.8275 12.2824 16.1543C12.1656 16.4578 11.9905 16.7263 11.7571 16.9597C11.547 17.1932 11.3018 17.38 11.0217 17.52C10.7415 17.6601 10.4497 17.7301 10.1462 17.7301ZM12.5625 23.4031C12.7026 23.7066 12.7726 24.0334 12.7726 24.3836V24.6287C12.7726 25.0023 12.7026 25.3524 12.5625 25.6793C12.4458 25.9828 12.2824 26.2512 12.0722 26.4847C11.8621 26.7181 11.6053 26.9049 11.3018 27.045C11.0217 27.185 10.7299 27.2551 10.4264 27.2551H4.47329V21.7922H10.4264C10.7299 21.7922 11.0217 21.8623 11.3018 22.0024C11.6053 22.1424 11.8621 22.3292 12.0722 22.5626C12.2824 22.7961 12.4458 23.0762 12.5625 23.4031Z" fill="url(#paint9_linear_173_648)"/>
<path fill-rule="evenodd" clip-rule="evenodd" d="M19.1188 17.7652C18.792 18.5122 18.6286 19.3176 18.6286 20.1814V25.6092C18.6286 26.4964 18.7803 27.3134 19.0838 28.0605C19.3873 28.8076 19.7959 29.4496 20.3095 29.9865C20.8464 30.5234 21.4651 30.9553 22.1654 31.2822C22.8658 31.5857 23.6128 31.7374 24.4066 31.7374H33.4763V27.8154H25.3171C24.5467 27.8154 23.928 27.6403 23.4611 27.2901C22.9942 26.9399 22.7607 26.3446 22.7607 25.5042V24.5587H34.1066V20.0413C34.1066 19.341 33.9666 18.6289 33.6864 17.9052C33.4296 17.1582 33.0561 16.4928 32.5658 15.9092C32.0989 15.3022 31.5036 14.812 30.7799 14.4384C30.0795 14.0416 29.2741 13.8431 28.3636 13.8431H24.3716C23.6712 13.8431 22.9708 14.0182 22.2705 14.3684C21.5701 14.6952 20.9514 15.1505 20.4145 15.7341C19.8776 16.3177 19.4457 16.9948 19.1188 17.7652ZM30.0445 21.232H22.7957V21.0569C22.7957 20.6366 22.8541 20.2398 22.9708 19.8662C23.1109 19.4694 23.286 19.1309 23.4961 18.8507C23.7062 18.5706 23.963 18.3488 24.2665 18.1854C24.57 17.9986 24.9085 17.9052 25.282 17.9052H27.4532C28.2469 17.9052 28.8772 18.2087 29.3441 18.8157C29.8111 19.3993 30.0445 20.1464 30.0445 21.0569V21.232Z" fill="url(#paint10_linear_173_648)"/>
<path fill-rule="evenodd" clip-rule="evenodd" d="M19.1188 17.7652C18.792 18.5122 18.6286 19.3176 18.6286 20.1814V25.6092C18.6286 26.4964 18.7803 27.3134 19.0838 28.0605C19.3873 28.8076 19.7959 29.4496 20.3095 29.9865C20.8464 30.5234 21.4651 30.9553 22.1654 31.2822C22.8658 31.5857 23.6128 31.7374 24.4066 31.7374H33.4763V27.8154H25.3171C24.5467 27.8154 23.928 27.6403 23.4611 27.2901C22.9942 26.9399 22.7607 26.3446 22.7607 25.5042V24.5587H34.1066V20.0413C34.1066 19.341 33.9666 18.6289 33.6864 17.9052C33.4296 17.1582 33.0561 16.4928 32.5658 15.9092C32.0989 15.3022 31.5036 14.812 30.7799 14.4384C30.0795 14.0416 29.2741 13.8431 28.3636 13.8431H24.3716C23.6712 13.8431 22.9708 14.0182 22.2705 14.3684C21.5701 14.6952 20.9514 15.1505 20.4145 15.7341C19.8776 16.3177 19.4457 16.9948 19.1188 17.7652ZM30.0445 21.232H22.7957V21.0569C22.7957 20.6366 22.8541 20.2398 22.9708 19.8662C23.1109 19.4694 23.286 19.1309 23.4961 18.8507C23.7062 18.5706 23.963 18.3488 24.2665 18.1854C24.57 17.9986 24.9085 17.9052 25.282 17.9052H27.4532C28.2469 17.9052 28.8772 18.2087 29.3441 18.8157C29.8111 19.3993 30.0445 20.1464 30.0445 21.0569V21.232Z" fill="url(#paint11_linear_173_648)"/>
<path fill-rule="evenodd" clip-rule="evenodd" d="M36.7631 17.3449C36.5063 18.022 36.3429 18.734 36.2728 19.481H40.3349C40.475 18.9208 40.7435 18.5122 41.1403 18.2554C41.5372 17.9753 42.2026 17.8352 43.1364 17.8352H44.0118C44.6422 17.8352 45.1441 17.9169 45.5176 18.0803C45.8911 18.2204 46.1713 18.4188 46.3581 18.6756C46.5448 18.9324 46.6732 19.2476 46.7433 19.6211C46.8133 19.9713 46.8483 20.3565 46.8483 20.7767V21.1269H40.8602C40.1131 21.1269 39.4361 21.267 38.8291 21.5471C38.2455 21.8039 37.7553 22.1658 37.3584 22.6327C36.9615 23.0762 36.658 23.6132 36.4479 24.2435C36.2378 24.8738 36.1327 25.5509 36.1327 26.2746C36.1327 27.0216 36.2261 27.722 36.4129 28.3757C36.623 29.0293 36.9265 29.6013 37.3234 30.0916C37.7436 30.5585 38.2572 30.9437 38.8642 31.2472C39.4712 31.5273 40.1598 31.6674 40.9302 31.6674H50.8754V19.9363C50.8754 19.1892 50.747 18.4538 50.4902 17.7301C50.2334 16.9831 49.8482 16.3294 49.3346 15.7691C48.821 15.1855 48.1673 14.7186 47.3736 14.3684C46.6032 14.0182 45.6927 13.8431 44.6422 13.8431H42.5411C41.5372 13.8431 40.6501 14.0065 39.8797 14.3334C39.1093 14.6369 38.4673 15.0454 37.9537 15.559C37.4401 16.0726 37.0432 16.6679 36.7631 17.3449ZM40.2299 27.6403C39.9964 27.3368 39.8797 26.8816 39.8797 26.2746C39.8797 25.6909 39.9964 25.2474 40.2299 24.9439C40.4867 24.6404 40.7668 24.4886 41.0703 24.4886H46.8483V28.0605H41.0703C40.7668 28.0605 40.4867 27.9204 40.2299 27.6403Z" fill="url(#paint12_linear_173_648)"/>
<path fill-rule="evenodd" clip-rule="evenodd" d="M36.7631 17.3449C36.5063 18.022 36.3429 18.734 36.2728 19.481H40.3349C40.475 18.9208 40.7435 18.5122 41.1403 18.2554C41.5372 17.9753 42.2026 17.8352 43.1364 17.8352H44.0118C44.6422 17.8352 45.1441 17.9169 45.5176 18.0803C45.8911 18.2204 46.1713 18.4188 46.3581 18.6756C46.5448 18.9324 46.6732 19.2476 46.7433 19.6211C46.8133 19.9713 46.8483 20.3565 46.8483 20.7767V21.1269H40.8602C40.1131 21.1269 39.4361 21.267 38.8291 21.5471C38.2455 21.8039 37.7553 22.1658 37.3584 22.6327C36.9615 23.0762 36.658 23.6132 36.4479 24.2435C36.2378 24.8738 36.1327 25.5509 36.1327 26.2746C36.1327 27.0216 36.2261 27.722 36.4129 28.3757C36.623 29.0293 36.9265 29.6013 37.3234 30.0916C37.7436 30.5585 38.2572 30.9437 38.8642 31.2472C39.4712 31.5273 40.1598 31.6674 40.9302 31.6674H50.8754V19.9363C50.8754 19.1892 50.747 18.4538 50.4902 17.7301C50.2334 16.9831 49.8482 16.3294 49.3346 15.7691C48.821 15.1855 48.1673 14.7186 47.3736 14.3684C46.6032 14.0182 45.6927 13.8431 44.6422 13.8431H42.5411C41.5372 13.8431 40.6501 14.0065 39.8797 14.3334C39.1093 14.6369 38.4673 15.0454 37.9537 15.559C37.4401 16.0726 37.0432 16.6679 36.7631 17.3449ZM40.2299 27.6403C39.9964 27.3368 39.8797 26.8816 39.8797 26.2746C39.8797 25.6909 39.9964 25.2474 40.2299 24.9439C40.4867 24.6404 40.7668 24.4886 41.0703 24.4886H46.8483V28.0605H41.0703C40.7668 28.0605 40.4867 27.9204 40.2299 27.6403Z" fill="url(#paint13_linear_173_648)"/>
<path d="M59.3629 16.0843C58.826 16.4812 58.3941 16.9481 58.0673 17.485V13.703H53.725V31.6674H58.0673V24.2435C58.0673 23.5665 58.2891 22.8895 58.7326 22.2125C59.1995 21.5354 59.7948 20.9285 60.5185 20.3915C61.2656 19.8312 62.0827 19.3877 62.9698 19.0608C63.8569 18.7106 64.7207 18.5356 65.5612 18.5356H66.0164V14.1933H65.5612C64.8141 14.1933 64.067 14.2633 63.32 14.4034C62.5729 14.5435 61.8609 14.7536 61.1839 15.0337C60.5302 15.3139 59.9232 15.6641 59.3629 16.0843Z" fill="url(#paint14_linear_173_648)"/>
<path d="M59.3629 16.0843C58.826 16.4812 58.3941 16.9481 58.0673 17.485V13.703H53.725V31.6674H58.0673V24.2435C58.0673 23.5665 58.2891 22.8895 58.7326 22.2125C59.1995 21.5354 59.7948 20.9285 60.5185 20.3915C61.2656 19.8312 62.0827 19.3877 62.9698 19.0608C63.8569 18.7106 64.7207 18.5356 65.5612 18.5356H66.0164V14.1933H65.5612C64.8141 14.1933 64.067 14.2633 63.32 14.4034C62.5729 14.5435 61.8609 14.7536 61.1839 15.0337C60.5302 15.3139 59.9232 15.6641 59.3629 16.0843Z" fill="url(#paint15_linear_173_648)"/>
<defs>
<linearGradient id="paint0_linear_173_648" x1="2.85663e-06" y1="-6.08575e-07" x2="92.5193" y2="102.074" gradientUnits="userSpaceOnUse">
<stop stop-color="#9A89FF"/>
<stop offset="1" stop-color="#2735AF"/>
</linearGradient>
<linearGradient id="paint1_linear_173_648" x1="2.85663e-06" y1="-6.08575e-07" x2="92.5193" y2="102.074" gradientUnits="userSpaceOnUse">
<stop stop-color="#02B9FD"/>
<stop offset="1" stop-color="#5A33E2"/>
</linearGradient>
<linearGradient id="paint2_linear_173_648" x1="2.85663e-06" y1="-6.08575e-07" x2="92.5193" y2="102.074" gradientUnits="userSpaceOnUse">
<stop stop-color="#9A89FF"/>
<stop offset="1" stop-color="#2735AF"/>
</linearGradient>
<linearGradient id="paint3_linear_173_648" x1="2.85663e-06" y1="-6.08575e-07" x2="92.5193" y2="102.074" gradientUnits="userSpaceOnUse">
<stop stop-color="#02B9FD"/>
<stop offset="1" stop-color="#5A33E2"/>
</linearGradient>
<linearGradient id="paint4_linear_173_648" x1="2.85663e-06" y1="-6.08575e-07" x2="92.5193" y2="102.074" gradientUnits="userSpaceOnUse">
<stop stop-color="#9A89FF"/>
<stop offset="1" stop-color="#2735AF"/>
</linearGradient>
<linearGradient id="paint5_linear_173_648" x1="2.85663e-06" y1="-6.08575e-07" x2="92.5193" y2="102.074" gradientUnits="userSpaceOnUse">
<stop stop-color="#02B9FD"/>
<stop offset="1" stop-color="#5A33E2"/>
</linearGradient>
<linearGradient id="paint6_linear_173_648" x1="2.85663e-06" y1="-6.08575e-07" x2="92.5193" y2="102.074" gradientUnits="userSpaceOnUse">
<stop stop-color="#9A89FF"/>
<stop offset="1" stop-color="#2735AF"/>
</linearGradient>
<linearGradient id="paint7_linear_173_648" x1="2.85663e-06" y1="-6.08575e-07" x2="92.5193" y2="102.074" gradientUnits="userSpaceOnUse">
<stop stop-color="#02B9FD"/>
<stop offset="1" stop-color="#5A33E2"/>
</linearGradient>
<linearGradient id="paint8_linear_173_648" x1="2.85663e-06" y1="-6.08575e-07" x2="92.5193" y2="102.074" gradientUnits="userSpaceOnUse">
<stop stop-color="#9A89FF"/>
<stop offset="1" stop-color="#2735AF"/>
</linearGradient>
<linearGradient id="paint9_linear_173_648" x1="2.85663e-06" y1="-6.08575e-07" x2="92.5193" y2="102.074" gradientUnits="userSpaceOnUse">
<stop stop-color="#02B9FD"/>
<stop offset="1" stop-color="#5A33E2"/>
</linearGradient>
<linearGradient id="paint10_linear_173_648" x1="2.85663e-06" y1="-6.08575e-07" x2="92.5193" y2="102.074" gradientUnits="userSpaceOnUse">
<stop stop-color="#9A89FF"/>
<stop offset="1" stop-color="#2735AF"/>
</linearGradient>
<linearGradient id="paint11_linear_173_648" x1="2.85663e-06" y1="-6.08575e-07" x2="92.5193" y2="102.074" gradientUnits="userSpaceOnUse">
<stop stop-color="#02B9FD"/>
<stop offset="1" stop-color="#5A33E2"/>
</linearGradient>
<linearGradient id="paint12_linear_173_648" x1="2.85663e-06" y1="-6.08575e-07" x2="92.5193" y2="102.074" gradientUnits="userSpaceOnUse">
<stop stop-color="#9A89FF"/>
<stop offset="1" stop-color="#2735AF"/>
</linearGradient>
<linearGradient id="paint13_linear_173_648" x1="2.85663e-06" y1="-6.08575e-07" x2="92.5193" y2="102.074" gradientUnits="userSpaceOnUse">
<stop stop-color="#02B9FD"/>
<stop offset="1" stop-color="#5A33E2"/>
</linearGradient>
<linearGradient id="paint14_linear_173_648" x1="2.85663e-06" y1="-6.08575e-07" x2="92.5193" y2="102.074" gradientUnits="userSpaceOnUse">
<stop stop-color="#9A89FF"/>
<stop offset="1" stop-color="#2735AF"/>
</linearGradient>
<linearGradient id="paint15_linear_173_648" x1="2.85663e-06" y1="-6.08575e-07" x2="92.5193" y2="102.074" gradientUnits="userSpaceOnUse">
<stop stop-color="#02B9FD"/>
<stop offset="1" stop-color="#5A33E2"/>
</linearGradient>
</defs>
</svg>
