<svg width="84" height="78" viewBox="0 0 84 78" fill="none" xmlns="http://www.w3.org/2000/svg">
<path d="M75.5384 1.38658L67.095 9.83525C60.3228 3.68981 51.4267 0.000809736 41.782 0.000809736C25.3304 0.000809736 10.8964 10.5055 5.846 26.1494C4.89929 29.0759 6.50703 32.2217 9.43403 33.1618C12.3884 34.1193 15.5029 32.4982 16.4499 29.5773C20.0031 18.5416 30.1875 11.1427 41.782 11.1427C48.3905 11.1427 54.4907 13.6113 59.226 17.7234L51.3745 25.4182C48.589 28.3429 50.6259 33.322 54.7344 33.4264H80.3085C82.1191 33.3742 83.564 31.9118 83.564 30.1013V4.70825C83.564 0.521344 78.498 -1.57472 75.5384 1.38658ZM74.1283 44.8468C71.1792 43.9001 68.0559 45.5105 67.1124 48.4314C63.5609 59.4531 53.3765 66.852 41.782 66.852C35.1735 66.852 29.0733 64.3834 24.338 60.2714L32.0329 52.5765C34.975 49.6518 32.9382 44.6727 28.8296 44.5683H3.24855C1.44844 44.6205 0 46.0829 0 47.8934V73.2934C0 77.4786 5.06085 79.5747 8.02041 76.6134L16.4639 68.1647C23.2412 74.3032 32.1373 77.9939 41.6253 77.9939C58.0683 77.9939 72.5092 67.4892 77.5579 51.8453C78.6721 48.9206 77.053 45.6303 74.1283 44.8468Z" fill="white"/>
<path d="M75.5384 1.38658L67.095 9.83525C60.3228 3.68981 51.4267 0.000809736 41.782 0.000809736C25.3304 0.000809736 10.8964 10.5055 5.846 26.1494C4.89929 29.0759 6.50703 32.2217 9.43403 33.1618C12.3884 34.1193 15.5029 32.4982 16.4499 29.5773C20.0031 18.5416 30.1875 11.1427 41.782 11.1427C48.3905 11.1427 54.4907 13.6113 59.226 17.7234L51.3745 25.4182C48.589 28.3429 50.6259 33.322 54.7344 33.4264H80.3085C82.1191 33.3742 83.564 31.9118 83.564 30.1013V4.70825C83.564 0.521344 78.498 -1.57472 75.5384 1.38658ZM74.1283 44.8468C71.1792 43.9001 68.0559 45.5105 67.1124 48.4314C63.5609 59.4531 53.3765 66.852 41.782 66.852C35.1735 66.852 29.0733 64.3834 24.338 60.2714L32.0329 52.5765C34.975 49.6518 32.9382 44.6727 28.8296 44.5683H3.24855C1.44844 44.6205 0 46.0829 0 47.8934V73.2934C0 77.4786 5.06085 79.5747 8.02041 76.6134L16.4639 68.1647C23.2412 74.3032 32.1373 77.9939 41.6253 77.9939C58.0683 77.9939 72.5092 67.4892 77.5579 51.8453C78.6721 48.9206 77.053 45.6303 74.1283 44.8468Z" fill="url(#paint0_linear_249_668)"/>
<defs>
<linearGradient id="paint0_linear_249_668" x1="15.6936" y1="2.53968e-05" x2="90.7669" y2="6.50053" gradientUnits="userSpaceOnUse">
<stop stop-color="#FE8603"/>
<stop offset="1" stop-color="#E32E7F"/>
</linearGradient>
</defs>
</svg>
