<svg width="90" height="78" viewBox="0 0 90 78" fill="none" xmlns="http://www.w3.org/2000/svg">
<path d="M1.57815 37.4394L22.2696 45.1049L30.3357 70.8887C30.6864 72.6308 32.7906 72.9793 34.1934 71.934L45.7665 62.5264C46.8186 61.4811 48.5722 61.4811 49.975 62.5264L70.6663 77.5089C72.0691 78.5542 74.1733 77.8573 74.524 76.1151L89.9549 2.94476C90.3056 1.20261 88.5521 -0.539529 86.7986 0.157332L1.57815 32.9098C-0.526052 33.6067 -0.526052 36.7425 1.57815 37.4394ZM29.2836 41.2721L69.9649 16.5336C70.6663 16.1851 71.3677 17.2304 70.6663 17.5789L37.3497 48.5892C36.2976 49.6345 35.2455 51.0282 35.2455 52.7703L34.1934 61.1327C34.1934 62.1779 32.4399 62.5264 32.0892 61.1327L27.8807 45.8017C26.8286 44.0596 27.5301 41.969 29.2836 41.2721Z" fill="white"/>
<path d="M1.57815 37.4394L22.2696 45.1049L30.3357 70.8887C30.6864 72.6308 32.7906 72.9793 34.1934 71.934L45.7665 62.5264C46.8186 61.4811 48.5722 61.4811 49.975 62.5264L70.6663 77.5089C72.0691 78.5542 74.1733 77.8573 74.524 76.1151L89.9549 2.94476C90.3056 1.20261 88.5521 -0.539529 86.7986 0.157332L1.57815 32.9098C-0.526052 33.6067 -0.526052 36.7425 1.57815 37.4394ZM29.2836 41.2721L69.9649 16.5336C70.6663 16.1851 71.3677 17.2304 70.6663 17.5789L37.3497 48.5892C36.2976 49.6345 35.2455 51.0282 35.2455 52.7703L34.1934 61.1327C34.1934 62.1779 32.4399 62.5264 32.0892 61.1327L27.8807 45.8017C26.8286 44.0596 27.5301 41.969 29.2836 41.2721Z" fill="url(#paint0_linear_249_669)"/>
<defs>
<linearGradient id="paint0_linear_249_669" x1="16.9023" y1="2.53968e-05" x2="97.6615" y2="7.53144" gradientUnits="userSpaceOnUse">
<stop stop-color="#FE8603"/>
<stop offset="1" stop-color="#E32E7F"/>
</linearGradient>
</defs>
</svg>
