<svg width="87" height="78" viewBox="0 0 87 78" fill="none" xmlns="http://www.w3.org/2000/svg">
<path fill-rule="evenodd" clip-rule="evenodd" d="M86.1148 32.0493C86.5692 33.1463 86.8031 34.3221 86.8031 35.5095C86.803 37.1128 86.3766 38.6873 85.5675 40.0715C84.7585 41.4557 83.5959 42.6 82.1989 43.3869C82.8491 44.5756 83.1887 45.9092 83.1863 47.2641C83.1858 48.7674 82.7693 50.2412 81.9828 51.5224C81.1964 52.8036 80.0707 53.8421 78.7304 54.523C79.678 56.4434 79.8296 58.6601 79.1524 60.6916C78.4752 62.7232 77.0239 64.4056 75.1136 65.3734C75.6663 66.4912 75.9534 67.7215 75.9527 68.9685C75.9527 71.3194 74.893 75.2979 67.8149 75.2979H44.3058C39.3029 75.3258 34.3147 74.7538 29.448 73.5944C28.3412 73.3593 27.1694 73.1206 25.8782 72.871C25.4658 72.7912 25.094 72.5703 24.8267 72.2463C24.5594 71.9222 24.4133 71.5152 24.4134 71.0951V34.5076C24.4131 34.2145 24.4841 33.9258 24.6201 33.6662C24.7562 33.4066 24.9534 33.184 25.1946 33.0175C32.0846 28.2614 39.7848 17.411 39.7848 7.47931C39.716 5.7238 40.2884 4.00325 41.3952 2.63887C42.502 1.2745 44.0675 0.359561 45.7995 0.064879C49.3259 -0.423389 53.8324 1.76477 55.9591 9.34196C56.7232 14.7283 56.0751 20.2207 54.0783 25.2812C54.0338 25.4168 54.022 25.5611 54.0439 25.7022C54.0659 25.8433 54.1209 25.9771 54.2045 26.0929C54.2881 26.2086 54.398 26.3029 54.525 26.368C54.6521 26.4331 54.7928 26.4672 54.9355 26.4675H77.7611C78.9485 26.4675 80.1243 26.7014 81.2214 27.1558C82.3184 27.6102 83.3152 28.2762 84.1548 29.1158C84.9944 29.9555 85.6604 30.9522 86.1148 32.0493ZM17.9288 32.0409C18.6071 32.7192 18.9882 33.6391 18.9882 34.5983V74.3831C18.9882 75.3423 18.6071 76.2623 17.9288 76.9406C17.2506 77.6188 16.3306 77.9999 15.3714 77.9999H3.6168C2.65756 77.9999 1.73762 77.6188 1.05934 76.9406C0.381054 76.2623 0 75.3423 0 74.3831V34.5983C0 33.6391 0.381054 32.7192 1.05934 32.0409C1.73762 31.3626 2.65756 30.9815 3.6168 30.9815H15.3714C16.3306 30.9815 17.2506 31.3626 17.9288 32.0409ZM13.1058 69.5607C13.4039 69.1147 13.563 68.5902 13.563 68.0537C13.563 67.3343 13.2772 66.6443 12.7685 66.1356C12.2598 65.6269 11.5698 65.3411 10.8504 65.3411C10.3139 65.3411 9.78944 65.5002 9.34335 65.7983C8.89727 66.0963 8.54959 66.52 8.34428 67.0156C8.13897 67.5113 8.08525 68.0567 8.18991 68.5829C8.29458 69.1091 8.55293 69.5924 8.93229 69.9718C9.31166 70.3512 9.795 70.6095 10.3212 70.7142C10.8474 70.8188 11.3928 70.7651 11.8885 70.5598C12.3841 70.3545 12.8078 70.0068 13.1058 69.5607Z" fill="white"/>
<path fill-rule="evenodd" clip-rule="evenodd" d="M86.1148 32.0493C86.5692 33.1463 86.8031 34.3221 86.8031 35.5095C86.803 37.1128 86.3766 38.6873 85.5675 40.0715C84.7585 41.4557 83.5959 42.6 82.1989 43.3869C82.8491 44.5756 83.1887 45.9092 83.1863 47.2641C83.1858 48.7674 82.7693 50.2412 81.9828 51.5224C81.1964 52.8036 80.0707 53.8421 78.7304 54.523C79.678 56.4434 79.8296 58.6601 79.1524 60.6916C78.4752 62.7232 77.0239 64.4056 75.1136 65.3734C75.6663 66.4912 75.9534 67.7215 75.9527 68.9685C75.9527 71.3194 74.893 75.2979 67.8149 75.2979H44.3058C39.3029 75.3258 34.3147 74.7538 29.448 73.5944C28.3412 73.3593 27.1694 73.1206 25.8782 72.871C25.4658 72.7912 25.094 72.5703 24.8267 72.2463C24.5594 71.9222 24.4133 71.5152 24.4134 71.0951V34.5076C24.4131 34.2145 24.4841 33.9258 24.6201 33.6662C24.7562 33.4066 24.9534 33.184 25.1946 33.0175C32.0846 28.2614 39.7848 17.411 39.7848 7.47931C39.716 5.7238 40.2884 4.00325 41.3952 2.63887C42.502 1.2745 44.0675 0.359561 45.7995 0.064879C49.3259 -0.423389 53.8324 1.76477 55.9591 9.34196C56.7232 14.7283 56.0751 20.2207 54.0783 25.2812C54.0338 25.4168 54.022 25.5611 54.0439 25.7022C54.0659 25.8433 54.1209 25.9771 54.2045 26.0929C54.2881 26.2086 54.398 26.3029 54.525 26.368C54.6521 26.4331 54.7928 26.4672 54.9355 26.4675H77.7611C78.9485 26.4675 80.1243 26.7014 81.2214 27.1558C82.3184 27.6102 83.3152 28.2762 84.1548 29.1158C84.9944 29.9555 85.6604 30.9522 86.1148 32.0493ZM17.9288 32.0409C18.6071 32.7192 18.9882 33.6391 18.9882 34.5983V74.3831C18.9882 75.3423 18.6071 76.2623 17.9288 76.9406C17.2506 77.6188 16.3306 77.9999 15.3714 77.9999H3.6168C2.65756 77.9999 1.73762 77.6188 1.05934 76.9406C0.381054 76.2623 0 75.3423 0 74.3831V34.5983C0 33.6391 0.381054 32.7192 1.05934 32.0409C1.73762 31.3626 2.65756 30.9815 3.6168 30.9815H15.3714C16.3306 30.9815 17.2506 31.3626 17.9288 32.0409ZM13.1058 69.5607C13.4039 69.1147 13.563 68.5902 13.563 68.0537C13.563 67.3343 13.2772 66.6443 12.7685 66.1356C12.2598 65.6269 11.5698 65.3411 10.8504 65.3411C10.3139 65.3411 9.78944 65.5002 9.34335 65.7983C8.89727 66.0963 8.54959 66.52 8.34428 67.0156C8.13897 67.5113 8.08525 68.0567 8.18991 68.5829C8.29458 69.1091 8.55293 69.5924 8.93229 69.9718C9.31166 70.3512 9.795 70.6095 10.3212 70.7142C10.8474 70.8188 11.3928 70.7651 11.8885 70.5598C12.3841 70.3545 12.8078 70.0068 13.1058 69.5607Z" fill="url(#paint0_linear_249_665)"/>
<defs>
<linearGradient id="paint0_linear_249_665" x1="16.3019" y1="2.53968e-05" x2="94.2394" y2="7.01012" gradientUnits="userSpaceOnUse">
<stop stop-color="#FE8603"/>
<stop offset="1" stop-color="#E32E7F"/>
</linearGradient>
</defs>
</svg>
