<svg width="87" height="87" viewBox="0 0 87 87" fill="none" xmlns="http://www.w3.org/2000/svg">
<path d="M87 43.499C87 67.5229 67.5244 86.9981 43.5 86.9981C19.4756 86.9981 0 67.5229 0 43.499C0 19.4752 19.4756 0 43.5 0C67.5244 0 87 19.4752 87 43.499Z" fill="white"/>
<path d="M87 43.499C87 67.5229 67.5244 86.9981 43.5 86.9981C19.4756 86.9981 0 67.5229 0 43.499C0 19.4752 19.4756 0 43.5 0C67.5244 0 87 19.4752 87 43.499Z" fill="url(#paint0_linear_136_681)"/>
<path fill-rule="evenodd" clip-rule="evenodd" d="M34.7848 86.1266C27.4123 84.6274 20.7174 81.2636 15.2139 76.549C20.1841 71.9437 27.5049 67.5106 37.8284 66.2966C38.1777 67.3605 38.8219 68.2921 39.6651 68.9964L34.7848 86.1266ZM50.757 86.3972C48.397 86.7935 45.9724 86.9998 43.4997 86.9998C41.0196 86.9998 38.5879 86.7923 36.2211 86.3936L41.2728 68.6618C40.6292 68.1242 40.1857 67.3581 40.0692 66.4893C40.0352 66.2363 40.2439 66.0266 40.501 66.0206L43.497 65.9503L46.4989 66.0206C46.7559 66.0266 46.9646 66.2363 46.9307 66.4894C46.813 67.3663 46.3622 68.1387 45.7087 68.677L50.757 86.3972ZM71.7858 76.5488C66.277 81.268 59.5745 84.6338 52.1936 86.1309L47.3196 69.0228C48.1779 68.3158 48.8335 67.3749 49.1874 66.2985C59.5024 67.5151 66.8181 71.946 71.7858 76.5488ZM43.4999 22.3767C32.6299 22.3767 23.4763 31.4638 23.4763 42.2548C23.4763 53.0457 32.6299 62.1329 43.4999 62.1329C54.3699 62.1329 63.5235 53.0457 63.5235 42.2548C63.5235 31.4638 54.3699 22.3767 43.4999 22.3767Z" fill="#161323"/>
<defs>
<linearGradient id="paint0_linear_136_681" x1="16.3389" y1="2.83265e-05" x2="94.574" y2="6.32339" gradientUnits="userSpaceOnUse">
<stop stop-color="#FE8603"/>
<stop offset="1" stop-color="#E32E7F"/>
</linearGradient>
</defs>
</svg>
