<svg width="352" height="352" viewBox="0 0 352 352" fill="none" xmlns="http://www.w3.org/2000/svg">
<path d="M351.656 176C351.656 273.202 272.935 352 175.828 352C78.7209 352 0 273.202 0 176C0 78.7979 78.7209 0 175.828 0C272.935 0 351.656 78.7979 351.656 176Z" fill="#1C182E"/>
<path d="M147.897 215.513C147.897 199.797 160.822 186.562 176.171 186.562C191.52 186.562 204.445 199.797 204.445 215.513C204.445 231.229 191.52 244.463 176.171 244.463C160.822 244.463 147.897 231.229 147.897 215.513Z" fill="white"/>
<path d="M147.897 215.513C147.897 199.797 160.822 186.562 176.171 186.562C191.52 186.562 204.445 199.797 204.445 215.513C204.445 231.229 191.52 244.463 176.171 244.463C160.822 244.463 147.897 231.229 147.897 215.513Z" fill="url(#paint0_linear_135_669)"/>
<path d="M168.163 250.527C141.238 253.793 128.779 273.053 124.98 280.344H163.606L170.756 254.459C169.565 253.433 168.656 252.076 168.163 250.527Z" fill="white"/>
<path d="M168.163 250.527C141.238 253.793 128.779 273.053 124.98 280.344H163.606L170.756 254.459C169.565 253.433 168.656 252.076 168.163 250.527Z" fill="url(#paint1_linear_135_669)"/>
<path d="M184.202 250.53C183.702 252.097 182.776 253.468 181.564 254.497L188.704 280.344H227.361C223.564 273.055 211.111 253.803 184.202 250.53Z" fill="white"/>
<path d="M184.202 250.53C183.702 252.097 182.776 253.468 181.564 254.497L188.704 280.344H227.361C223.564 273.055 211.111 253.803 184.202 250.53Z" fill="url(#paint2_linear_135_669)"/>
<path d="M171.327 250.808C171.279 250.439 171.573 250.134 171.936 250.125L176.167 250.023L180.406 250.125C180.769 250.134 181.063 250.439 181.015 250.808C180.849 252.085 180.213 253.21 179.29 253.994L186.661 280.68H165.649L173.026 253.972C172.117 253.189 171.491 252.073 171.327 250.808Z" fill="white"/>
<path d="M171.327 250.808C171.279 250.439 171.573 250.134 171.936 250.125L176.167 250.023L180.406 250.125C180.769 250.134 181.063 250.439 181.015 250.808C180.849 252.085 180.213 253.21 179.29 253.994L186.661 280.68H165.649L173.026 253.972C172.117 253.189 171.491 252.073 171.327 250.808Z" fill="url(#paint3_linear_135_669)"/>
<path d="M272.535 215.513C272.535 199.797 285.46 186.562 300.809 186.562C316.157 186.562 329.082 199.797 329.082 215.513C329.082 231.229 316.157 244.463 300.809 244.463C285.46 244.463 272.535 231.229 272.535 215.513Z" fill="white"/>
<path d="M272.535 215.513C272.535 199.797 285.46 186.562 300.809 186.562C316.157 186.562 329.082 199.797 329.082 215.513C329.082 231.229 316.157 244.463 300.809 244.463C285.46 244.463 272.535 231.229 272.535 215.513Z" fill="url(#paint4_linear_135_669)"/>
<path d="M292.8 250.527C265.876 253.793 253.416 273.053 249.618 280.344H288.244L295.394 254.459C294.203 253.433 293.294 252.076 292.8 250.527Z" fill="white"/>
<path d="M292.8 250.527C265.876 253.793 253.416 273.053 249.618 280.344H288.244L295.394 254.459C294.203 253.433 293.294 252.076 292.8 250.527Z" fill="url(#paint5_linear_135_669)"/>
<path d="M308.839 250.53C308.34 252.097 307.414 253.468 306.202 254.497L313.341 280.344H351.999C348.202 273.055 335.748 253.803 308.839 250.53Z" fill="white"/>
<path d="M308.839 250.53C308.34 252.097 307.414 253.468 306.202 254.497L313.341 280.344H351.999C348.202 273.055 335.748 253.803 308.839 250.53Z" fill="url(#paint6_linear_135_669)"/>
<path d="M295.964 250.808C295.916 250.439 296.211 250.134 296.574 250.125L300.805 250.023L305.043 250.125C305.406 250.134 305.701 250.439 305.653 250.808C305.487 252.085 304.85 253.21 303.927 253.994L311.299 280.68H290.287L297.664 253.972C296.755 253.189 296.129 252.073 295.964 250.808Z" fill="white"/>
<path d="M295.964 250.808C295.916 250.439 296.211 250.134 296.574 250.125L300.805 250.023L305.043 250.125C305.406 250.134 305.701 250.439 305.653 250.808C305.487 252.085 304.85 253.21 303.927 253.994L311.299 280.68H290.287L297.664 253.972C296.755 253.189 296.129 252.073 295.964 250.808Z" fill="url(#paint7_linear_135_669)"/>
<path d="M23.2593 215.513C23.2593 199.797 36.1845 186.562 51.5332 186.562C66.8819 186.562 79.8071 199.797 79.8071 215.513C79.8071 231.229 66.8819 244.463 51.5332 244.463C36.1845 244.463 23.2593 231.229 23.2593 215.513Z" fill="white"/>
<path d="M23.2593 215.513C23.2593 199.797 36.1845 186.562 51.5332 186.562C66.8819 186.562 79.8071 199.797 79.8071 215.513C79.8071 231.229 66.8819 244.463 51.5332 244.463C36.1845 244.463 23.2593 231.229 23.2593 215.513Z" fill="url(#paint8_linear_135_669)"/>
<path d="M43.5249 250.527C16.6005 253.793 4.1409 273.053 0.342773 280.344H38.9684L46.1183 254.459C44.9277 253.433 44.0181 252.076 43.5249 250.527Z" fill="white"/>
<path d="M43.5249 250.527C16.6005 253.793 4.1409 273.053 0.342773 280.344H38.9684L46.1183 254.459C44.9277 253.433 44.0181 252.076 43.5249 250.527Z" fill="url(#paint9_linear_135_669)"/>
<path d="M59.5641 250.53C59.0645 252.097 58.1386 253.468 56.9267 254.497L64.066 280.344H102.724C98.9266 273.055 86.4729 253.803 59.5641 250.53Z" fill="white"/>
<path d="M59.5641 250.53C59.0645 252.097 58.1386 253.468 56.9267 254.497L64.066 280.344H102.724C98.9266 273.055 86.4729 253.803 59.5641 250.53Z" fill="url(#paint10_linear_135_669)"/>
<path d="M46.6889 250.808C46.641 250.439 46.9357 250.134 47.2987 250.125L51.5291 250.023L55.7678 250.125C56.1308 250.134 56.4255 250.439 56.3776 250.808C56.2115 252.085 55.5749 253.21 54.652 253.994L62.0231 280.68H41.0113L48.3885 253.972C47.4797 253.189 46.8535 252.073 46.6889 250.808Z" fill="white"/>
<path d="M46.6889 250.808C46.641 250.439 46.9357 250.134 47.2987 250.125L51.5291 250.023L55.7678 250.125C56.1308 250.134 56.4255 250.439 56.3776 250.808C56.2115 252.085 55.5749 253.21 54.652 253.994L62.0231 280.68H41.0113L48.3885 253.972C47.4797 253.189 46.8535 252.073 46.6889 250.808Z" fill="url(#paint11_linear_135_669)"/>
<path fill-rule="evenodd" clip-rule="evenodd" d="M191.272 66.4792C180.346 69.7986 162.671 72.379 162.671 72.379V119.577C162.671 119.577 180.346 122.157 191.272 125.477C202.812 128.982 219.873 137.276 219.873 137.276V54.6797C219.873 54.6797 202.812 62.9736 191.272 66.4792ZM162.671 72.3784H127.206V119.576H162.671V72.3784ZM145.706 119.579H162.671L144.231 140.228H134.642L145.706 119.579ZM225.593 84.7686H219.873V110.727H225.593V84.7686Z" fill="white"/>
<path fill-rule="evenodd" clip-rule="evenodd" d="M191.272 66.4792C180.346 69.7986 162.671 72.379 162.671 72.379V119.577C162.671 119.577 180.346 122.157 191.272 125.477C202.812 128.982 219.873 137.276 219.873 137.276V54.6797C219.873 54.6797 202.812 62.9736 191.272 66.4792ZM162.671 72.3784H127.206V119.576H162.671V72.3784ZM145.706 119.579H162.671L144.231 140.228H134.642L145.706 119.579ZM225.593 84.7686H219.873V110.727H225.593V84.7686Z" fill="url(#paint12_linear_135_669)"/>
<path d="M98.623 155.801C99.7625 154.738 101.522 154.829 102.553 156.004C103.583 157.179 103.495 158.994 102.356 160.057L89.624 171.935C88.4845 172.998 86.7252 172.907 85.6944 171.732C84.6637 170.556 84.7519 168.742 85.8914 167.679L98.623 155.801Z" fill="white"/>
<path d="M98.623 155.801C99.7625 154.738 101.522 154.829 102.553 156.004C103.583 157.179 103.495 158.994 102.356 160.057L89.624 171.935C88.4845 172.998 86.7252 172.907 85.6944 171.732C84.6637 170.556 84.7519 168.742 85.8914 167.679L98.623 155.801Z" fill="url(#paint13_linear_135_669)"/>
<path d="M255.413 155.801C254.274 154.738 252.514 154.829 251.484 156.004C250.453 157.179 250.541 158.994 251.68 160.057L264.412 171.935C265.552 172.998 267.311 172.907 268.342 171.732C269.372 170.556 269.284 168.742 268.145 167.679L255.413 155.801Z" fill="white"/>
<path d="M255.413 155.801C254.274 154.738 252.514 154.829 251.484 156.004C250.453 157.179 250.541 158.994 251.68 160.057L264.412 171.935C265.552 172.998 267.311 172.907 268.342 171.732C269.372 170.556 269.284 168.742 268.145 167.679L255.413 155.801Z" fill="url(#paint14_linear_135_669)"/>
<path d="M179.509 155.015C179.509 153.43 178.264 152.146 176.727 152.146C175.191 152.146 173.945 153.43 173.945 155.015L173.945 172.721C173.945 174.306 175.191 175.591 176.727 175.591C178.264 175.591 179.509 174.306 179.509 172.721L179.509 155.015Z" fill="white"/>
<path d="M179.509 155.015C179.509 153.43 178.264 152.146 176.727 152.146C175.191 152.146 173.945 153.43 173.945 155.015L173.945 172.721C173.945 174.306 175.191 175.591 176.727 175.591C178.264 175.591 179.509 174.306 179.509 172.721L179.509 155.015Z" fill="url(#paint15_linear_135_669)"/>
<defs>
<linearGradient id="paint0_linear_135_669" x1="144.208" y1="186.563" x2="236.165" y2="194.647" gradientUnits="userSpaceOnUse">
<stop stop-color="#FE8603"/>
<stop offset="1" stop-color="#E32E7F"/>
</linearGradient>
<linearGradient id="paint1_linear_135_669" x1="144.208" y1="186.563" x2="236.165" y2="194.647" gradientUnits="userSpaceOnUse">
<stop stop-color="#FE8603"/>
<stop offset="1" stop-color="#E32E7F"/>
</linearGradient>
<linearGradient id="paint2_linear_135_669" x1="144.208" y1="186.563" x2="236.165" y2="194.647" gradientUnits="userSpaceOnUse">
<stop stop-color="#FE8603"/>
<stop offset="1" stop-color="#E32E7F"/>
</linearGradient>
<linearGradient id="paint3_linear_135_669" x1="144.208" y1="186.563" x2="236.165" y2="194.647" gradientUnits="userSpaceOnUse">
<stop stop-color="#FE8603"/>
<stop offset="1" stop-color="#E32E7F"/>
</linearGradient>
<linearGradient id="paint4_linear_135_669" x1="268.846" y1="186.563" x2="360.803" y2="194.647" gradientUnits="userSpaceOnUse">
<stop stop-color="#FE8603"/>
<stop offset="1" stop-color="#E32E7F"/>
</linearGradient>
<linearGradient id="paint5_linear_135_669" x1="268.846" y1="186.563" x2="360.803" y2="194.647" gradientUnits="userSpaceOnUse">
<stop stop-color="#FE8603"/>
<stop offset="1" stop-color="#E32E7F"/>
</linearGradient>
<linearGradient id="paint6_linear_135_669" x1="268.846" y1="186.563" x2="360.803" y2="194.647" gradientUnits="userSpaceOnUse">
<stop stop-color="#FE8603"/>
<stop offset="1" stop-color="#E32E7F"/>
</linearGradient>
<linearGradient id="paint7_linear_135_669" x1="268.846" y1="186.563" x2="360.803" y2="194.647" gradientUnits="userSpaceOnUse">
<stop stop-color="#FE8603"/>
<stop offset="1" stop-color="#E32E7F"/>
</linearGradient>
<linearGradient id="paint8_linear_135_669" x1="19.5702" y1="186.563" x2="111.527" y2="194.647" gradientUnits="userSpaceOnUse">
<stop stop-color="#FE8603"/>
<stop offset="1" stop-color="#E32E7F"/>
</linearGradient>
<linearGradient id="paint9_linear_135_669" x1="19.5702" y1="186.563" x2="111.527" y2="194.647" gradientUnits="userSpaceOnUse">
<stop stop-color="#FE8603"/>
<stop offset="1" stop-color="#E32E7F"/>
</linearGradient>
<linearGradient id="paint10_linear_135_669" x1="19.5702" y1="186.563" x2="111.527" y2="194.647" gradientUnits="userSpaceOnUse">
<stop stop-color="#FE8603"/>
<stop offset="1" stop-color="#E32E7F"/>
</linearGradient>
<linearGradient id="paint11_linear_135_669" x1="19.5702" y1="186.563" x2="111.527" y2="194.647" gradientUnits="userSpaceOnUse">
<stop stop-color="#FE8603"/>
<stop offset="1" stop-color="#E32E7F"/>
</linearGradient>
<linearGradient id="paint12_linear_135_669" x1="145.684" y1="54.6797" x2="233.974" y2="62.8866" gradientUnits="userSpaceOnUse">
<stop stop-color="#FE8603"/>
<stop offset="1" stop-color="#E32E7F"/>
</linearGradient>
<linearGradient id="paint13_linear_135_669" x1="101.387" y1="154.676" x2="104.807" y2="158.491" gradientUnits="userSpaceOnUse">
<stop stop-color="#FE8603"/>
<stop offset="1" stop-color="#E32E7F"/>
</linearGradient>
<linearGradient id="paint14_linear_135_669" x1="254.201" y1="155.06" x2="270.645" y2="156.44" gradientUnits="userSpaceOnUse">
<stop stop-color="#FE8603"/>
<stop offset="1" stop-color="#E32E7F"/>
</linearGradient>
<linearGradient id="paint15_linear_135_669" x1="174.99" y1="152.146" x2="180.025" y2="152.242" gradientUnits="userSpaceOnUse">
<stop stop-color="#FE8603"/>
<stop offset="1" stop-color="#E32E7F"/>
</linearGradient>
</defs>
</svg>
